<?xml version="1.0" encoding="utf-8"?>
<!-- Generator: Adobe Illustrator 26.2.1, SVG Export Plug-In . SVG Version: 6.00 Build 0)  -->
<svg version="1.1" id="图层_1" xmlns="http://www.w3.org/2000/svg" xmlns:xlink="http://www.w3.org/1999/xlink" x="0px" y="0px"
	 viewBox="0 0 651.97 436.54" style="enable-background:new 0 0 651.97 436.54;" xml:space="preserve">
<polygon points="625.2,156.02 617.14,199.28 616.91,199.28 593.05,156.02 582.38,156.02 569.89,223.9 583.63,223.9 591.58,181.47 
	591.8,181.47 615.2,223.9 626.34,223.9 639.06,156.02 "/>
<polygon points="493.44,223.89 507.3,223.89 520.02,156.02 506.84,156.02 483.21,183.98 468.79,156.02 457.99,156.02 445.39,223.89 
	459.25,223.89 467.19,181 467.43,181 480.03,205.13 501.28,180.28 501.5,180.28 "/>
<polygon points="414.38,156.02 400.41,156.02 387.79,223.9 401.65,223.9 407.67,192.11 428.68,223.9 446.07,223.9 422.1,188.4 
	451.86,156.02 435.28,156.02 408.81,186.02 "/>
<polygon points="461.74,267.87 439.94,267.87 443.12,250.54 469.92,250.54 471.85,240.03 431.19,240.03 418.58,307.78 
	462.54,307.78 472.65,297.26 434.37,297.26 438,278.38 459.7,278.38 "/>
<g>
	<path d="M376.66,154.35c-3.74,0-7.38,0.24-10.8,1.2c-17.03,4.66-29.3,20.67-29.3,40.5c0,13.99,8.85,29.4,27.15,29.4
		c13.85,0,20.89-6.46,26.47-10.04l-5.57-8.84c-3.52,2.38-6.01,4.53-9.77,5.97c-2.38,0.95-5.34,1.67-9.43,1.67
		c-8.06,0-14.54-7.17-14.54-18.52c0.12-14.35,8.3-30.23,23.51-30.23c7.38,0,9.78,2.99,12.38,5.73l7.04-8.6
		C389.84,157.94,383.82,154.35,376.66,154.35"/>
	<polygon points="379.62,307.78 393.48,307.78 404.26,250.54 421.19,250.54 431.41,240.02 374.16,240.02 372.23,250.54 
		390.3,250.54 	"/>
	<polygon points="330.43,183.98 308.62,183.98 311.8,166.53 338.61,166.53 340.54,156.02 299.88,156.02 287.26,223.89 
		332.59,223.89 342.81,213.38 303.05,213.38 306.69,194.5 328.39,194.5 	"/>
	<polygon points="332.59,307.78 371.89,307.78 382.12,297.26 348.37,297.26 359.05,240.02 345.19,240.02 	"/>
	<path d="M324.86,240.03l-8.52,45.76c-1.36,7.53-7.61,12.19-14.65,12.19c-7.05,0-11.25-5.74-10.12-12.19l8.52-45.76h-13.86
		l-8.18,43.86c-3.06,16.13,6.82,25.33,21.36,25.33c18.06,0,27.94-8.84,31.01-25.33l8.18-43.86H324.86z"/>
</g>
<g>
	<path d="M196.96,229.51c-3.98,0-7.84,0.12-11.48,1.08c-19.08,4.89-33.05,22.46-33.05,44.09c-0.12,18.64,12.5,34.89,30.9,34.89
		c14.77,0,22.15-6.33,27.37-10.28l-5.22-9.2c-4.88,4.31-9.08,8.13-19.31,8.13c-10.8,0-18.86-9.2-18.86-22.95
		c0-17.44,9.54-34.89,27.6-34.89c6.59,0,11.36,4.18,14.77,7.89l7.27-8.49C213.09,235.84,205.36,229.51,196.96,229.51"/>
	<path d="M197.64,47.76c-13.97-22.11-42.37-32.98-66.57-32.98c-62.82,0-115.63,54.62-115.63,120.93c0,12.66,2.27,24.97,6.47,36.2
		v-0.12c-0.79-2.87-1.47-8.96-1.47-11.12c0-15.06,8.4-27.48,20.33-33.58c0.91-2.38,2.04-4.78,3.4-7.17
		c9.43-17.44,32.26-35.84,61.01-35.84c25.45,0,49.87,15.06,77.8,15.06c1.6,0,3.18-0.13,4.66-0.36c0.12-15.06-5.79-29.39-14.2-41.35
		c-8.51-12.07-24.31-20.8-37.93-21.98c2.27-0.13,4.43-0.48,6.58-0.48c28.4-0.24,51.35,23.77,51.35,53.77c0,3.1-0.23,5.97-0.57,8.84
		c8.18-2.87,13.41-9.8,13.74-20.44C206.73,70.23,204.12,57.8,197.64,47.76"/>
</g>
<g>
	<path d="M172.08,115.87c-26.69,0.12-53.39-16.73-84.4-16.73c-23.51,0-31.69,8.01-40.33,21.27c-0.9,1.43-1.7,2.99-2.38,4.66
		c3.98-1.43,8.18-2.27,12.61-2.27c26.7-0.13,53.39,16.72,84.52,16.72c23.51,0,31.69-8.01,40.21-21.26c0.9-1.44,1.7-2.99,2.38-4.66
		C180.72,115.04,176.51,115.75,172.08,115.87"/>
	<path d="M208.2,67.84c-1.02-2.63-0.46-0.84-0.46-0.84s1.48,8.84,1.48,11.11c0,15.06-8.4,27.49-20.33,33.7
		c-0.91,2.39-2.05,4.78-3.41,7.17c-9.43,17.45-32.25,35.84-61,35.97c-25.45,0-49.87-15.06-77.81-15.06c-1.59,0-3.18,0.12-4.66,0.36
		c-0.11,15.06,5.8,29.39,14.2,41.34c8.52,12.07,24.31,20.8,37.94,21.99c-2.28,0.12-4.44,0.48-6.7,0.48
		c-28.4,0.23-51.35-23.78-51.35-53.77c0-3.11,0.23-5.98,0.57-8.84c-8.18,2.86-13.4,9.79-13.75,20.43
		c-0.22,6.69,2.39,19.12,8.98,29.28c14.2,22.23,42.6,33.46,67.25,33.46c63.04,0,115.63-51.86,115.63-119.02
		C214.79,92.21,212.63,79.43,208.2,67.84"/>
	<path d="M535.46,197.37l10.12-20.2h0.45l3.98,20.2H535.46z M554.32,156.02h-8.74l-38.28,67.76h14.88l8.18-15.89h21.58l3.18,15.89
		h14.99L554.32,156.02z"/>
	<path d="M491.62,268.1l3.29-17.57h5c9.66,0,11.59,3.95,10.68,8.84c-1.14,6.22-4.77,8.84-12.84,8.84h-6.13V268.1z M506.39,276.83
		c6.7-0.84,16.47-4.78,18.74-17.57c2.04-11.35-6.14-19.36-21.36-19.36h-20.89l-12.62,67.87h13.86l5.68-30.59h0.34l19.88,30.59h17.95
		L506.39,276.83z"/>
	<path d="M271.93,200.95c-2.05,10.51-10.91,12.43-23.3,12.43h-8.29l4.54-24.98h8.3C264.09,188.4,273.98,190.2,271.93,200.95
		 M250.69,157.81h6.47c10.34,0,15.8,2.51,14.32,10.04c-1.14,6.1-5.12,10.04-16.58,10.04h-8.06L250.69,157.81z M272.5,182.79v-0.24
		c3.4-1.67,11.7-3.94,13.52-14.7c2.5-14.45-8.3-20.55-25.56-20.55h-21.7l-14.31,76.6h26.35c22.38,0,32.94-7.76,35.33-20.31
		C288.29,192.35,279.88,184.22,272.5,182.79"/>
	<path d="M243.65,297.86c-1.6,0.36-3.3,0.36-5,0.36c-6.7,0-13.74-7.65-13.74-19.24c0-11.12,5.68-25.1,16.36-28.68
		c2.04-0.72,4.2-0.84,6.36-0.84c6.7,0,13.74,7.53,13.74,19.01C261.37,280.17,255.46,294.99,243.65,297.86 M249.21,238.47
		c-4.09,0-7.95,0.48-11.48,1.56c-15.9,5.14-26.35,21.15-26.35,39.91c0,13.98,8.4,29.15,25.79,29.15c3.64,0,6.93-0.23,10.22-1.19
		c16.7-4.79,27.72-21.16,27.72-40.4C274.88,253.65,266.48,238.47,249.21,238.47"/>
	<polygon points="192.19,409.47 190.03,421.65 152.88,421.65 164.7,356.29 177.99,356.29 168.34,409.47 	"/>
	<path d="M197.19,421.65l8.51-47.44H219l-8.64,47.44H197.19z M214,368.24c-3.74,0-6.36-2.75-6.36-6.81c0-4.79,3.64-7.89,7.61-7.89
		c3.98,0,6.7,2.75,6.7,6.94c0,4.89-3.63,7.88-7.83,7.88H214V368.24z"/>
	<path d="M221.84,421.66l6.58-36.92h-5.79l1.93-10.64h5.91l0.34-2.38c0.9-5.62,3.06-11.59,7.61-15.53c3.64-3.23,8.4-4.43,12.84-4.43
		c3.18,0,5.68,0.48,7.04,1.2l-2.28,11.12c-1.14-0.49-2.5-0.84-4.2-0.84c-4.32,0-6.93,3.94-7.72,8.6l-0.46,2.39h8.98l-1.94,10.63
		h-8.86l-6.58,36.92h-13.4V421.66z"/>
	<path d="M286.93,418.91c-5.22,2.87-11.82,3.82-16.82,3.82c-12.83,0-19.53-7.65-19.53-20.08c0-14.45,9.99-29.51,26.35-29.51
		c9.08,0,15.68,5.38,15.68,14.34c0,12.07-11.14,16.37-29.31,15.89c0.11,1.31,0.56,3.46,1.48,4.78c1.7,2.39,4.77,3.71,8.63,3.71
		c4.88,0,9.08-1.2,12.61-2.99L286.93,418.91z M275.22,383.3c-6.14,0-9.77,5.38-10.68,9.79c10.46,0.13,15.56-1.31,15.56-5.86
		C280.11,384.97,278.29,383.3,275.22,383.3"/>
	<path d="M315.66,406.48c3.64,2.39,8.98,4.18,14.66,4.18c5.11,0,9.87-2.51,9.87-7.53c0-3.82-2.72-6.09-8.4-9.32
		c-6.59-3.71-12.83-8.84-12.83-17.33c0-13.26,10.9-21.26,24.41-21.26c7.62,0,12.04,1.79,14.66,3.22l-4.2,11.59
		c-2.04-1.2-6.48-2.87-11.58-2.75c-6.25,0-9.54,3.23-9.54,6.82c0,3.82,3.74,6.22,9.08,9.32c7.61,4.07,12.38,9.44,12.38,17.21
		c0,14.58-11.48,21.99-25.33,21.99c-8.64-0.13-14.88-2.39-17.84-4.67L315.66,406.48z"/>
	<path d="M391.09,420.1c-2.84,1.43-7.5,2.51-12.84,2.51c-11.13,0-18.97-7.17-18.97-19.36c0-16.85,12.27-30.11,29.42-30.11
		c3.86,0,7.16,0.84,9.2,1.56l-3.3,10.75c-1.59-0.71-3.4-1.19-6.02-1.19c-9.43,0-15.34,8.48-15.34,17.32c0,6.45,3.98,9.79,8.86,9.79
		c3.86,0,6.59-0.95,8.98-1.91V420.1z"/>
	<path d="M398.25,421.65l8.63-47.44h13.3l-8.64,47.44H398.25z M415.06,368.24c-3.64,0-6.36-2.75-6.36-6.81
		c0-4.79,3.64-7.89,7.62-7.89c3.97,0,6.69,2.75,6.69,6.94c0,4.89-3.63,7.88-7.83,7.88h-0.12V368.24z"/>
	<path d="M459.02,418.91c-5.22,2.87-11.82,3.82-16.81,3.82c-12.84,0-19.54-7.65-19.54-20.08c0-14.45,9.99-29.51,26.23-29.51
		c9.09,0,15.68,5.38,15.68,14.34c0,12.07-11.13,16.37-29.31,15.89c0.12,1.31,0.57,3.46,1.48,4.78c1.7,2.39,4.77,3.71,8.64,3.71
		c4.88,0,9.08-1.2,12.61-2.99L459.02,418.91z M447.32,383.3c-6.14,0-9.77,5.38-10.68,9.79c10.46,0.13,15.56-1.31,15.56-5.86
		C452.2,384.97,450.38,383.3,447.32,383.3"/>
	<path d="M466.52,421.66l5.68-32.02c1.24-5.98,1.82-11.12,2.5-15.42h11.7l-0.8,7.89h0.22c4.2-6.1,9.78-8.97,15.8-8.97
		c7.38,0,11.58,4.79,11.58,13.02c0,2.16-0.34,5.62-0.68,8.01l-5,27.6h-13.4l4.77-26.29c0.23-1.66,0.46-3.46,0.46-5.25
		c0-3.35-1.14-5.74-4.54-5.74c-4.32,0-9.43,5.74-11.24,16.25l-3.75,21.03h-13.29V421.66z"/>
	<path d="M548.64,420.1c-2.84,1.43-7.5,2.51-12.84,2.51c-11.13,0-18.97-7.17-18.97-19.36c0-16.85,12.27-30.11,29.42-30.11
		c3.86,0,7.16,0.84,9.2,1.56l-3.3,10.75c-1.59-0.71-3.4-1.19-6.14-1.19c-9.43,0-15.33,8.48-15.33,17.32c0,6.45,3.98,9.79,8.86,9.79
		c3.86,0,6.59-0.95,8.97-1.91L548.64,420.1z"/>
	<path d="M591.81,418.91c-5.22,2.87-11.82,3.82-16.92,3.82c-12.84,0-19.42-7.65-19.42-20.08c0-14.45,9.99-29.51,26.23-29.51
		c9.09,0,15.68,5.38,15.68,14.34c0,12.07-11.13,16.37-29.31,15.89c0.12,1.31,0.56,3.46,1.48,4.78c1.7,2.39,4.77,3.71,8.63,3.71
		c4.89,0,9.09-1.2,12.62-2.99L591.81,418.91z M580.11,383.3c-6.24,0-9.77,5.38-10.68,9.79c10.46,0.13,15.56-1.31,15.56-5.86
		C584.99,384.97,583.17,383.3,580.11,383.3"/>
	<path d="M601.01,409.11c2.62,1.31,7.38,3.35,11.7,3.35c3.74,0,5.68-1.92,5.68-4.3c0-2.28-1.48-3.95-5.68-6.1
		c-5.12-2.74-9.54-6.69-9.54-12.66c0-9.92,8.18-16.37,19.88-16.37c5.22,0,9.43,1.2,11.58,2.39l-3.18,9.91
		c-1.82-0.84-5.12-2.03-8.98-2.03c-3.63,0-5.9,1.56-5.9,4.18c0,1.92,1.82,3.59,5.46,5.5c4.99,2.64,10.11,6.46,10.11,13.03
		c0,10.86-8.74,16.72-20.79,16.72c-5.68-0.12-11.14-1.67-13.74-3.7L601.01,409.11z"/>
</g>
</svg>
