<?xml version="1.0" encoding="utf-8"?>
<!-- Generator: Adobe Illustrator 26.2.1, SVG Export Plug-In . SVG Version: 6.00 Build 0)  -->
<svg version="1.1" id="Layer_1" xmlns="http://www.w3.org/2000/svg" xmlns:xlink="http://www.w3.org/1999/xlink" x="0px" y="0px"
	 viewBox="0 0 745 274" style="enable-background:new 0 0 745 274;" xml:space="preserve">
<path d="M219.13,99.35V73.98c0-4.67-3.79-8.47-8.46-8.47h-93.06v-2.52c0-5.13,3.52-9.59,8.52-10.79l83.65-19.96
	c1.94-0.48,4.01-0.61,5.91-0.01c2.8,0.88,5.28,2.67,8.39,4.4l22.2,13.08c1.15,0.67,2.24,1.47,3.07,2.52
	c2.33,2.97,3.62,6.15,3.62,10.47v36.66v33.84v39.05c-0.03,5.65-3.05,10.87-7.95,13.69l-25.89,14.93v-33.84V133.2V99.35z"/>
<path d="M83.77,167.11v25.38c0,4.67,3.79,8.47,8.46,8.47h93.06v2.52c0,5.13-3.52,9.59-8.52,10.79l-83.65,19.96
	c-1.94,0.48-4.01,0.61-5.91,0.01c-2.8-0.88-5.28-2.67-8.39-4.4l-22.2-13.08c-1.15-0.67-2.24-1.47-3.07-2.52
	c-2.33-2.97-3.62-6.16-3.62-10.47v-36.66v-33.84V94.21c0.03-5.65,3.05-10.87,7.95-13.69L83.77,65.6v33.84v33.83V167.11z"/>
<rect x="303.73" y="82.5" width="25.37" height="101.32"/>
<path d="M442.41,91.45c-9.72-6.52-20.51-8.96-39.03-8.96h-51.2v101.31h50.59c17,0,29.16-3.03,39.19-10.02
	c13.37-9.11,21.11-24.46,21.11-41.47C463.07,115.46,455.33,100.27,442.41,91.45 M403.07,163.31h-25.51V103h25.51
	c20.67,0,32.2,10.94,32.2,30.08C435.27,152.38,423.74,163.31,403.07,163.31"/>
<path d="M566.97,129.59c8.96-5.62,13.06-12.45,13.06-21.72c0-10.33-5.47-19.45-13.67-22.63c-5.93-2.44-9.27-2.74-26.58-2.74h-60.31
	v101.32h61.06c15.8,0,21.88-0.77,28.87-3.95c9.27-4.11,15.34-13.98,15.34-24.92C584.74,143.41,578.67,134.61,566.97,129.59
	 M504.85,102.55h34.33c9.72,0,13.51,2.73,13.51,10.03c0,7.29-3.79,10.02-13.51,10.02h-34.33V102.55z M551.93,161.94
	c-2.89,1.37-5.62,1.82-12.76,1.82h-34.33v-23.24h34.33c7.15,0,9.88,0.31,12.76,1.83c3.34,1.52,5.47,5.32,5.47,9.71
	C557.4,156.62,555.27,160.42,551.93,161.94"/>
<path d="M693.96,128.22c-6.84-3.5-13.83-5.16-26.88-6.38l-24.62-2.57c-10.78-1.06-14.73-3.65-14.73-9.42
	c0-7.59,8.96-12.15,23.99-12.15c7.45,0,13.07,1.06,17.77,3.5c4.57,2.43,6.69,5.46,8.51,11.54h26.74c-1.97-12-5.47-18.38-13.37-23.85
	c-9.11-6.23-23.54-9.87-39.49-9.87c-31.59,0-51.04,12.91-51.04,34.02c0,16.1,12,26.13,34.18,28.41l28.55,2.89
	c11.85,1.21,16.86,4.55,16.86,11.25c0,8.35-9.57,13.21-26.13,13.21c-10.47,0-17.46-1.82-23.09-6.08c-4.09-3.19-5.91-6.68-6.68-13.37
	h-26.58c0.92,13.37,3.5,20.06,10.64,26.13c9.27,8.05,23.85,12,44.51,12c16.39,0,27.79-1.96,37.52-6.68
	c11.39-5.46,18.38-16.1,18.38-27.95C709,142.19,703.23,132.78,693.96,128.22"/>
</svg>
