<?xml version="1.0" encoding="utf-8"?>
<!-- Generator: Adobe Illustrator 27.1.1, SVG Export Plug-In . SVG Version: 6.00 Build 0)  -->
<svg version="1.1" id="Layer_1" xmlns="http://www.w3.org/2000/svg" xmlns:xlink="http://www.w3.org/1999/xlink" x="0px" y="0px"
	 viewBox="0 0 600 200" style="enable-background:new 0 0 600 200;" xml:space="preserve">
<g>
	<path d="M229.44,185.95v-25.83h5.35c3.85,0,6.65,0.31,8.39,0.93c2.5,0.88,4.45,2.4,5.86,4.57c1.41,2.17,2.11,4.74,2.11,7.74
		c0,2.59-0.56,4.87-1.67,6.83c-1.12,1.97-2.56,3.42-4.35,4.35c-1.79,0.94-4.28,1.41-7.5,1.41H229.44z M231.91,183.5h2.98
		c3.56,0,6.03-0.22,7.41-0.67c1.94-0.63,3.46-1.77,4.58-3.41c1.11-1.64,1.66-3.65,1.66-6.02c0-2.49-0.6-4.62-1.81-6.39
		c-1.2-1.76-2.88-2.98-5.03-3.63c-1.61-0.49-4.27-0.73-7.97-0.73h-1.82V183.5z"/>
	<polygon points="255.86,185.94 255.86,160.12 256.42,160.12 273.58,179.92 273.58,160.12 276.12,160.12 276.12,185.94 
		275.54,185.94 258.52,166.39 258.52,185.94 	"/>
	<path d="M291.44,160.12l12.02,25.83h-2.78l-4.06-8.5h-11.11l-4.02,8.5h-2.87l12.18-25.83H291.44z M291.11,165.61l-4.42,9.35h8.81
		L291.11,165.61z"/>
	<rect x="5.05" y="160.12" width="2.58" height="25.83"/>
	<polygon points="12.65,185.94 12.65,160.12 13.21,160.12 30.37,179.92 30.37,160.12 32.91,160.12 32.91,185.94 32.33,185.94 
		15.31,166.39 15.31,185.94 	"/>
	<polygon points="37.93,162.65 37.93,160.12 52.06,160.12 52.06,162.65 46.31,162.65 46.31,185.94 43.68,185.94 43.68,162.65 	"/>
	<polygon points="56.79,160.12 71.56,160.12 71.56,162.65 59.37,162.65 59.37,170.74 71.46,170.74 71.46,173.27 59.37,173.27 
		59.37,183.42 71.46,183.42 71.46,185.95 56.79,185.95 	"/>
	<path d="M101.35,164.46l-2,1.9c-1.44-1.42-3.01-2.49-4.72-3.22c-1.72-0.73-3.38-1.09-5-1.09c-2.02,0-3.95,0.5-5.78,1.49
		c-1.83,1-3.25,2.34-4.25,4.04c-1,1.71-1.51,3.51-1.51,5.4c0,1.94,0.52,3.79,1.56,5.54c1.04,1.75,2.48,3.12,4.31,4.12
		c1.83,1,3.84,1.5,6.03,1.5c2.65,0,4.9-0.75,6.73-2.25c1.84-1.5,2.92-3.44,3.26-5.83h-8.22v-2.49h11.11
		c-0.02,3.99-1.21,7.16-3.55,9.51c-2.35,2.35-5.48,3.52-9.4,3.52c-4.77,0-8.54-1.63-11.33-4.88c-2.14-2.51-3.21-5.4-3.21-8.69
		c0-2.45,0.62-4.72,1.84-6.83c1.23-2.11,2.91-3.75,5.05-4.94c2.14-1.19,4.55-1.78,7.25-1.78c2.18,0,4.24,0.39,6.17,1.18
		C97.64,161.45,99.52,162.71,101.35,164.46"/>
	<path d="M106.73,160.12h5.14c2.86,0,4.8,0.12,5.82,0.36c1.53,0.35,2.78,1.1,3.73,2.26c0.96,1.16,1.44,2.58,1.44,4.26
		c0,1.41-0.33,2.64-0.99,3.71c-0.66,1.07-1.6,1.87-2.83,2.41c-1.23,0.55-2.92,0.82-5.08,0.84l9.27,11.99h-3.19l-9.27-11.99h-1.45
		v11.99h-2.58V160.12z M109.31,162.65v8.78l4.44,0.04c1.72,0,2.99-0.17,3.82-0.49c0.82-0.33,1.47-0.85,1.93-1.57
		c0.46-0.72,0.69-1.52,0.69-2.41c0-0.87-0.23-1.65-0.7-2.36c-0.47-0.71-1.09-1.21-1.84-1.52c-0.76-0.3-2.03-0.45-3.79-0.45H109.31z"
		/>
	<path d="M138.54,160.12l12.02,25.83h-2.78l-4.06-8.5h-11.11l-4.02,8.5h-2.87l12.18-25.83H138.54z M138.21,165.61l-4.42,9.35h8.81
		L138.21,165.61z"/>
	<polygon points="149.33,162.65 149.33,160.12 163.46,160.12 163.46,162.65 157.71,162.65 157.71,185.94 155.08,185.94 
		155.08,162.65 	"/>
	<polygon points="168.48,160.12 183.25,160.12 183.25,162.65 171.06,162.65 171.06,170.74 183.15,170.74 183.15,173.27 
		171.06,173.27 171.06,183.42 183.15,183.42 183.15,185.95 168.48,185.95 	"/>
	<path d="M188.27,185.95v-25.83h5.35c3.85,0,6.65,0.31,8.39,0.93c2.5,0.88,4.45,2.4,5.86,4.57c1.41,2.17,2.11,4.74,2.11,7.74
		c0,2.59-0.56,4.87-1.67,6.83c-1.12,1.97-2.56,3.42-4.35,4.35c-1.79,0.94-4.28,1.41-7.5,1.41H188.27z M190.74,183.5h2.98
		c3.56,0,6.03-0.22,7.41-0.67c1.94-0.63,3.46-1.77,4.58-3.41c1.11-1.64,1.66-3.65,1.66-6.02c0-2.49-0.6-4.62-1.81-6.39
		c-1.2-1.76-2.88-2.98-5.03-3.63c-1.61-0.49-4.27-0.73-7.97-0.73h-1.82V183.5z"/>
	<polygon points="317.05,162.65 317.05,160.12 331.18,160.12 331.18,162.65 325.43,162.65 325.43,185.94 322.8,185.94 322.8,162.65 
			"/>
	<polygon points="336.36,159.74 351.14,159.74 351.14,162.27 338.94,162.27 338.94,170.36 351.03,170.36 351.03,172.89 
		338.94,172.89 338.94,183.04 351.03,183.04 351.03,185.57 336.36,185.57 	"/>
	<path d="M380.5,164.91l-2.03,1.56c-1.12-1.46-2.47-2.57-4.04-3.33c-1.57-0.76-3.3-1.13-5.18-1.13c-2.06,0-3.96,0.49-5.71,1.48
		c-1.75,0.99-3.11,2.32-4.08,3.99c-0.97,1.67-1.45,3.54-1.45,5.62c0,3.15,1.08,5.78,3.23,7.89c2.16,2.1,4.88,3.16,8.16,3.16
		c3.61,0,6.63-1.41,9.06-4.25l2.03,1.54c-1.28,1.64-2.89,2.9-4.81,3.8c-1.92,0.9-4.07,1.34-6.44,1.34c-4.51,0-8.07-1.5-10.68-4.51
		c-2.18-2.54-3.27-5.61-3.27-9.2c0-3.78,1.32-6.96,3.97-9.54c2.65-2.58,5.96-3.87,9.95-3.87c2.41,0,4.58,0.47,6.52,1.43
		C377.67,161.86,379.27,163.19,380.5,164.91"/>
	<polygon points="384.36,160.12 386.93,160.12 386.93,170.95 400.06,170.95 400.06,160.12 402.64,160.12 402.64,185.95 
		400.06,185.95 400.06,173.48 386.93,173.48 386.93,185.95 384.36,185.95 	"/>
	<polygon points="407.66,185.94 407.66,160.12 408.22,160.12 425.37,179.92 425.37,160.12 427.92,160.12 427.92,185.94 
		427.34,185.94 410.32,166.39 410.32,185.94 	"/>
	<path d="M445.19,159.47c3.9,0,7.17,1.31,9.8,3.91c2.63,2.61,3.95,5.82,3.95,9.64c0,3.78-1.32,6.99-3.94,9.62
		c-2.63,2.63-5.83,3.95-9.61,3.95c-3.82,0-7.05-1.31-9.68-3.93c-2.63-2.63-3.94-5.8-3.94-9.52c0-2.48,0.6-4.78,1.8-6.9
		c1.2-2.12,2.83-3.78,4.9-4.98C440.54,160.07,442.78,159.47,445.19,159.47 M445.3,161.98c-1.91,0-3.72,0.5-5.43,1.49
		c-1.71,1-3.04,2.34-4,4.02c-0.96,1.69-1.44,3.57-1.44,5.64c0,3.07,1.06,5.66,3.18,7.77c2.13,2.11,4.69,3.17,7.68,3.17
		c2,0,3.85-0.48,5.55-1.45c1.71-0.97,3.03-2.3,3.99-3.99c0.96-1.69,1.43-3.56,1.43-5.62c0-2.05-0.47-3.9-1.43-5.56
		c-0.95-1.66-2.29-2.98-4.03-3.98C449.08,162.48,447.24,161.98,445.3,161.98"/>
	<polygon points="463.51,160.12 466.09,160.12 466.09,183.45 476.01,183.45 476.01,185.95 463.51,185.95 	"/>
	<path d="M490.58,159.47c3.9,0,7.17,1.31,9.8,3.91c2.63,2.61,3.95,5.82,3.95,9.64c0,3.78-1.32,6.99-3.94,9.62
		c-2.63,2.63-5.83,3.95-9.61,3.95c-3.82,0-7.05-1.31-9.68-3.93c-2.63-2.63-3.94-5.8-3.94-9.52c0-2.48,0.6-4.78,1.8-6.9
		c1.2-2.12,2.83-3.78,4.9-4.98C485.93,160.07,488.17,159.47,490.58,159.47 M490.69,161.98c-1.9,0-3.72,0.5-5.43,1.49
		c-1.71,1-3.04,2.34-4,4.02c-0.96,1.69-1.44,3.57-1.44,5.64c0,3.07,1.06,5.66,3.18,7.77c2.13,2.11,4.69,3.17,7.68,3.17
		c2,0,3.85-0.48,5.55-1.45c1.71-0.97,3.03-2.3,3.99-3.99c0.95-1.69,1.43-3.56,1.43-5.62c0-2.05-0.47-3.9-1.43-5.56
		c-0.96-1.66-2.3-2.98-4.03-3.98C494.47,162.48,492.63,161.98,490.69,161.98"/>
	<path d="M534.14,164.46l-2,1.9c-1.44-1.42-3.01-2.49-4.72-3.22c-1.72-0.73-3.38-1.09-5.01-1.09c-2.02,0-3.94,0.5-5.77,1.49
		s-3.25,2.34-4.25,4.04c-1,1.71-1.51,3.51-1.51,5.4c0,1.94,0.52,3.79,1.56,5.54c1.04,1.75,2.48,3.12,4.31,4.12
		c1.83,1,3.84,1.5,6.03,1.5c2.65,0,4.9-0.75,6.73-2.25c1.83-1.5,2.92-3.44,3.26-5.83h-8.22v-2.49h11.11
		c-0.02,3.99-1.21,7.16-3.55,9.51c-2.35,2.35-5.48,3.52-9.41,3.52c-4.77,0-8.54-1.63-11.32-4.88c-2.14-2.51-3.21-5.4-3.21-8.69
		c0-2.45,0.62-4.72,1.84-6.83c1.23-2.11,2.91-3.75,5.05-4.94c2.14-1.19,4.55-1.78,7.25-1.78c2.18,0,4.24,0.39,6.17,1.18
		C530.42,161.45,532.3,162.71,534.14,164.46"/>
	<rect x="539.52" y="160.12" width="2.58" height="25.83"/>
	<polygon points="546.88,160.12 561.66,160.12 561.66,162.65 549.46,162.65 549.46,170.74 561.55,170.74 561.55,173.27 
		549.46,173.27 549.46,183.42 561.55,183.42 561.55,185.95 546.88,185.95 	"/>
	<path d="M563.58,181.13l2.19-1.32c1.54,2.84,3.33,4.26,5.35,4.26c0.87,0,1.68-0.2,2.44-0.6c0.76-0.41,1.34-0.95,1.73-1.63
		c0.39-0.68,0.59-1.4,0.59-2.16c0-0.87-0.29-1.71-0.87-2.54c-0.81-1.15-2.28-2.53-4.42-4.14c-2.15-1.63-3.49-2.81-4.01-3.53
		c-0.91-1.22-1.36-2.53-1.36-3.95c0-1.12,0.27-2.15,0.81-3.08c0.54-0.92,1.29-1.65,2.27-2.18c0.98-0.53,2.04-0.8,3.18-0.8
		c1.22,0,2.35,0.3,3.41,0.91c1.06,0.6,2.18,1.71,3.36,3.33l-2.1,1.6c-0.97-1.28-1.8-2.13-2.48-2.54c-0.68-0.41-1.43-0.62-2.24-0.62
		c-1.04,0-1.89,0.32-2.55,0.95c-0.66,0.63-0.99,1.41-0.99,2.33c0,0.56,0.12,1.11,0.35,1.63c0.23,0.53,0.66,1.1,1.28,1.72
		c0.34,0.33,1.45,1.19,3.33,2.58c2.23,1.65,3.76,3.12,4.59,4.4c0.83,1.29,1.24,2.58,1.24,3.88c0,1.87-0.71,3.5-2.13,4.88
		c-1.42,1.38-3.15,2.07-5.18,2.07c-1.56,0-2.99-0.42-4.26-1.26C565.83,184.5,564.66,183.1,563.58,181.13"/>
	<path d="M353.22,140.98l-4.21-0.19c-28.98-1.29-56.94-24.7-83.09-48.57c-27-24.67-54.92-50.18-84.24-52.42
		c-1.37-0.1-2.76-0.16-4.14-0.16c-25.86,0-50.33,18.76-73.16,37.96l-2.76,2.39l-2.61-2.38c-1.38-1.27-2.76-2.53-4.14-3.8l-3.19-3.09
		l4.16-3.78c25.76-23.51,55.78-48.54,85.97-47.92c30.94,0.65,58.46,24.07,85.06,46.72l0.14,0.12c26.08,22.2,53.07,45.2,82.11,44.67
		l4.09-0.07V140.98z"/>
	<path d="M349.16,19.2c-22.85,0.19-43.67,18.69-63.81,36.59c-4.68,4.15-9.51,8.45-14.18,12.33l-0.76,0.63
		c3.2,2.72,6.42,5.44,9.66,8.11c3.88-3.39,7.84-7.03,11.68-10.55c18.42-16.9,37.47-34.37,57.69-35.58l3.88-0.23V19.17L349.16,19.2z"
		/>
	<rect x="368.96" y="19.16" width="23.06" height="121.9"/>
	<path d="M405.58,19.16h26.36c13.33,0,24.77,1.17,34.31,3.5c9.54,2.34,17.51,6.08,23.93,11.22c7.35,5.84,12.88,12.54,16.56,20.13
		c3.68,7.58,5.52,15.91,5.52,24.97c0,8.58-1.66,16.64-4.98,24.19c-3.31,7.55-8.14,14.14-14.48,19.77
		c-6.33,5.62-14.16,10.06-23.49,13.28c-9.32,3.23-19.99,4.83-32.02,4.83h-31.71V19.16z M427.32,132.11h6.37
		c7.36,0,14.26-1.14,20.7-3.4c6.45-2.27,12.06-5.63,16.83-10.09c4.77-4.46,8.54-9.97,11.31-16.53c2.76-6.55,4.15-14.12,4.15-22.69
		c0-7.48-1.31-14.37-3.93-20.65c-2.63-6.28-6.26-11.69-10.93-16.22c-4.66-4.53-10.23-8.05-16.71-10.55
		c-6.48-2.51-13.55-3.76-21.2-3.76h-6.59V132.11z"/>
	<polygon points="581.01,19.16 581.01,32.85 550.23,32.85 550.23,141.06 527.15,141.06 527.15,32.85 496.37,32.85 496.37,19.16 	"/>
	<path d="M253.29,84.33c-22.86,19.56-47.45,38.65-74.64,38.65h-0.25c-27.76-0.18-52.74-20.76-76.77-43l0,0.01l-2.61-2.38
		c-1.38-1.27-2.76-2.53-4.14-3.8l-3.19-3.09l0.01-0.01C66.23,46.82,39.87,22.43,9.6,18.95l-4.58-0.53v31.42l3.9,0.2
		c29.34,1.5,56.1,24.77,82,47.29c27.84,24.21,54.15,47.09,84.52,47.09c1,0,2-0.02,3.02-0.08c32-1.72,60.83-28.75,84-50.47l2.6-2.44
		c-3.23-2.95-6.48-5.91-9.73-8.84L253.29,84.33z"/>
	<path d="M76.03,84.55c-4.7,3.98-9.42,8.23-13.99,12.35c-17.37,15.66-35.32,31.85-53.43,34.09l-3.67,0.45v11.49l4.5-0.35
		c22.02-1.67,41.99-19.09,61.3-35.93c5.36-4.68,10.43-9.09,15.54-13.2l0.09-0.07C82.94,90.42,79.5,87.45,76.03,84.55"/>
</g>
</svg>
