<?xml version="1.0" encoding="utf-8"?>
<!-- Generator: Adobe Illustrator 26.2.1, SVG Export Plug-In . SVG Version: 6.00 Build 0)  -->
<svg version="1.1" id="Layer_1" xmlns="http://www.w3.org/2000/svg" xmlns:xlink="http://www.w3.org/1999/xlink" x="0px" y="0px"
	 viewBox="0 0 235.62 53.17" style="enable-background:new 0 0 235.62 53.17;" xml:space="preserve">
<style type="text/css">
	.st0{fill-rule:evenodd;clip-rule:evenodd;}
</style>
<path class="st0" d="M66.87,38.39h3.9V27.43c0.18-2.59,4.04-2.32,4.43,0.05v10.92h3.73l0.35-0.27V25.74
	c-0.93-5.42-5.59-5.69-8.47-4.69v-7.42h-4.26v24.4L66.87,38.39L66.87,38.39z M137.47,38.4c0,0-0.03-7.4,0-10.5
	c0.03-3.26,3.68-3.23,3.72-0.05V38.4h3.68c0-3.39,0-7.18,0-10.55c0-3.37,3.9-3.41,3.86,0V38.4h3.73l0.52-0.54v-12.6
	c-0.97-4.74-7.4-5.78-9.93-1.64c-2.39-4.33-8.65-3.32-9.67,1.64v12.59l0.53,0.54H137.47z"/>
<path class="st0" d="M28.94,26.22c0,2.56-2.08,4.64-4.64,4.64s-4.64-2.08-4.64-4.64c0-2.56,2.08-4.64,4.64-4.64
	S28.94,23.65,28.94,26.22z"/>
<path class="st0" d="M11.99,42.66c0,0,0.04-12.01,0.04-16.44c0-6.78,5.49-12.27,12.27-12.27s12.27,5.49,12.27,12.27
	c0,6.78-5.49,12.27-12.27,12.27c-1.38,0-2.71-0.23-3.95-0.65l-0.02,8.56c1.29,0.25,2.61,0.38,3.97,0.38
	c11.36,0,20.56-9.21,20.56-20.56c0-11.36-9.21-20.56-20.56-20.56c-11.36,0-20.56,9.21-20.56,20.56
	C3.74,32.93,7.01,38.91,11.99,42.66z"/>
<path class="st0" d="M173.25,38.39h3.73V27.74c0.22-2.96,5.1-3.05,5.01-0.05v10.7h3.9l0.53-0.63V26.88
	c-0.36-8.47-13.35-8.33-13.7,0.14v11.15L173.25,38.39L173.25,38.39z"/>
<g>
	<path d="M56.78,21.16c-4.9,0-8.73,4.13-8.73,9.04c0,4.12,0,16.39,0,16.39l0.44,0.45h4.21l0.38-0.45v-8.42
		c1.12,0.51,2.37,0.79,3.7,0.79c4.9,0,8.88-3.98,8.88-8.88C65.66,25.17,61.68,21.16,56.78,21.16z M56.78,34.45
		c-2.42,0-4.38-1.96-4.38-4.38c0-2.42,1.96-4.42,4.38-4.42c2.42,0,4.38,2,4.38,4.42C61.15,32.5,59.19,34.45,56.78,34.45z"/>
	<path d="M123.13,21.18c-4.92,0-8.9,3.99-8.9,8.9c0,4.92,3.99,8.9,8.9,8.9c4.92,0,8.9-3.99,8.9-8.9
		C132.03,25.16,128.04,21.18,123.13,21.18z M123.13,34.45c-2.42,0-4.38-1.96-4.38-4.38c0-2.42,1.96-4.37,4.38-4.37
		c2.42,0,4.38,1.96,4.38,4.37C127.5,32.5,125.54,34.45,123.13,34.45z"/>
</g>
<path d="M89.48,34.86c-1.08,0-2.08-0.52-2.87-1.14l11.41-6.15c-1.08-3.69-4.5-6.39-8.54-6.39c-4.92,0-8.9,3.99-8.9,8.9
	c0,4.92,3.99,8.9,8.9,8.9c2.94,0,5.55-1.43,7.17-3.62l-3.38-2.61C92.56,34.06,91.04,34.86,89.48,34.86z M84.84,30.08
	c0-2.56,2.08-4.64,4.64-4.64c1.03,0,1.98,0.33,2.74,0.9l-7.36,4.23C84.85,30.41,84.84,30.25,84.84,30.08z"/>
<path d="M163.22,34.86c-1.08,0-2.08-0.52-2.87-1.14l11.41-6.15c-1.08-3.69-4.5-6.39-8.54-6.39c-4.92,0-8.9,3.99-8.9,8.9
	c0,4.92,3.99,8.9,8.9,8.9c2.94,0,5.55-1.43,7.17-3.62l-3.38-2.61C166.3,34.06,164.79,34.86,163.22,34.86z M158.58,30.08
	c0-2.56,2.08-4.64,4.64-4.64c1.03,0,1.98,0.33,2.74,0.9l-7.35,4.23C158.59,30.41,158.58,30.25,158.58,30.08z"/>
<path d="M196.95,34.86c-1.08,0-2.08-0.52-2.87-1.14l11.41-6.15c-1.08-3.69-4.5-6.39-8.54-6.39c-4.92,0-8.9,3.99-8.9,8.9
	c0,4.92,3.99,8.9,8.9,8.9c2.94,0,5.55-1.43,7.17-3.62l-3.38-2.61C200.02,34.06,198.51,34.86,196.95,34.86z M192.31,30.08
	c0-2.56,2.08-4.64,4.64-4.64c1.03,0,1.97,0.33,2.74,0.9l-7.35,4.23C192.32,30.41,192.31,30.25,192.31,30.08z"/>
<polygon class="st0" points="209.74,38.4 212.84,33.62 215.9,38.4 221.67,38.4 215.68,29.43 220.92,21.47 215.37,21.47 
	212.98,25.15 210.49,21.47 204.82,21.47 210.01,29.57 204.2,38.4 209.74,38.4 "/>
<path class="st0" d="M99.45,38.39h3.73V27.74c0.22-2.96,5.1-3.05,5.01-0.05v10.7h3.9l0.53-0.53V26.88
	c-0.36-8.47-13.35-8.33-13.7,0.14v10.85L99.45,38.39L99.45,38.39z"/>
<g>
	<path d="M223.76,35.64v0.33h-0.93v2.42h-0.38v-2.42h-0.93v-0.33H223.76z"/>
	<path d="M223.89,35.64h0.53l0.79,2.32l0.78-2.32h0.53v2.75h-0.36v-1.62c0-0.06,0-0.15,0-0.28c0-0.13,0-0.27,0-0.42l-0.78,2.32
		h-0.37l-0.79-2.32v0.08c0,0.07,0,0.17,0.01,0.31c0,0.14,0.01,0.24,0.01,0.3v1.62h-0.36V35.64z"/>
</g>
</svg>
