<svg width="16" height="16" viewBox="0 0 16 16" fill="none" xmlns="http://www.w3.org/2000/svg">
<path d="M8.0013 3.99999V2.66666M8.0013 3.99999C7.26492 3.99999 6.66797 4.59694 6.66797 5.33332C6.66797 6.0697 7.26492 6.66666 8.0013 6.66666M8.0013 3.99999C8.73768 3.99999 9.33464 4.59694 9.33464 5.33332C9.33464 6.0697 8.73768 6.66666 8.0013 6.66666M4.0013 12C4.73768 12 5.33464 11.403 5.33464 10.6667C5.33464 9.93028 4.73768 9.33332 4.0013 9.33332M4.0013 12C3.26492 12 2.66797 11.403 2.66797 10.6667C2.66797 9.93028 3.26492 9.33332 4.0013 9.33332M4.0013 12V13.3333M4.0013 9.33332V2.66666M8.0013 6.66666V13.3333M12.0013 12C12.7377 12 13.3346 11.403 13.3346 10.6667C13.3346 9.93028 12.7377 9.33332 12.0013 9.33332M12.0013 12C11.2649 12 10.668 11.403 10.668 10.6667C10.668 9.93028 11.2649 9.33332 12.0013 9.33332M12.0013 12V13.3333M12.0013 9.33332V2.66666" stroke="black" stroke-linecap="round" stroke-linejoin="round"/>
</svg>
