<svg width="41" height="40" viewBox="0 0 41 40" fill="none" xmlns="http://www.w3.org/2000/svg">
<g id="Arrow circle left">
<g id="Icon">
<path d="M5.75977 20C5.75977 11.7157 12.4969 5 20.8077 5C29.1184 5 35.8555 11.7157 35.8555 20C35.8555 28.2843 29.1184 35 20.8076 35C12.4969 35 5.75976 28.2843 5.75977 20Z" fill="white"/>
<path d="M19.1357 25L14.1197 20M14.1197 20L19.1357 15M14.1197 20L27.4956 20M5.75977 20C5.75977 11.7157 12.4969 5 20.8077 5C29.1184 5 35.8555 11.7157 35.8555 20C35.8555 28.2843 29.1184 35 20.8076 35C12.4969 35 5.75976 28.2843 5.75977 20Z" stroke="#D1D5DB" stroke-width="2" stroke-linecap="round" stroke-linejoin="round"/>
</g>
</g>
</svg>
