<svg width="41" height="40" viewBox="0 0 41 40" fill="none" xmlns="http://www.w3.org/2000/svg">
<g id="Arrow circle right">
<g id="Icon">
<path d="M35.9825 20C35.9825 28.2843 29.2453 35 20.9346 35C12.6239 35 5.88672 28.2843 5.88672 20C5.88672 11.7157 12.6239 5 20.9346 5C29.2453 5 35.9825 11.7157 35.9825 20Z" fill="white"/>
<path d="M22.6066 15L27.6226 20M27.6226 20L22.6066 25M27.6226 20L14.2467 20M35.9825 20C35.9825 28.2843 29.2453 35 20.9346 35C12.6239 35 5.88672 28.2843 5.88672 20C5.88672 11.7157 12.6239 5 20.9346 5C29.2453 5 35.9825 11.7157 35.9825 20Z" stroke="#7523FF" stroke-width="2" stroke-linecap="round" stroke-linejoin="round"/>
</g>
</g>
</svg>
