<svg width="36" height="36" viewBox="0 0 36 36" fill="none" xmlns="http://www.w3.org/2000/svg">
<path d="M13.5 7.5H10.5C8.84315 7.5 7.5 8.84315 7.5 10.5V28.5C7.5 30.1569 8.84315 31.5 10.5 31.5H25.5C27.1569 31.5 28.5 30.1569 28.5 28.5V10.5C28.5 8.84315 27.1569 7.5 25.5 7.5H22.5M13.5 7.5C13.5 9.15685 14.8431 10.5 16.5 10.5H19.5C21.1569 10.5 22.5 9.15685 22.5 7.5M13.5 7.5C13.5 5.84315 14.8431 4.5 16.5 4.5H19.5C21.1569 4.5 22.5 5.84315 22.5 7.5M18 18H22.5M18 24H22.5M13.5 18H13.515M13.5 24H13.515" stroke="black" stroke-linecap="round"/>
</svg>
