<svg width="36" height="36" viewBox="0 0 36 36" fill="none" xmlns="http://www.w3.org/2000/svg">
<path d="M28.5 16.5H7.5M28.5 16.5C30.1569 16.5 31.5 17.8431 31.5 19.5V28.5C31.5 30.1569 30.1569 31.5 28.5 31.5H7.5C5.84315 31.5 4.5 30.1569 4.5 28.5V19.5C4.5 17.8431 5.84315 16.5 7.5 16.5M28.5 16.5V13.5C28.5 11.8431 27.1569 10.5 25.5 10.5M7.5 16.5V13.5C7.5 11.8431 8.84315 10.5 10.5 10.5M10.5 10.5V7.5C10.5 5.84315 11.8431 4.5 13.5 4.5H22.5C24.1569 4.5 25.5 5.84315 25.5 7.5V10.5M10.5 10.5H25.5" stroke="black" stroke-linecap="round" stroke-linejoin="round"/>
</svg>
