<svg width="20" height="20" viewBox="0 0 20 20" fill="none" xmlns="http://www.w3.org/2000/svg">
<rect width="20" height="20" rx="10" fill="#7523FF"/>
<path d="M5.8068 8.13975H7.7425V14.3641H5.8068V8.13975ZM6.77807 5.0481C7.4005 5.0481 7.89982 5.54741 7.89982 6.16985C7.89982 6.78544 7.4005 7.2916 6.77807 7.2916C6.15563 7.2916 5.65632 6.78544 5.65632 6.16985C5.64948 5.54741 6.15563 5.0481 6.77807 5.0481Z" fill="white"/>
<path d="M8.95996 8.13974H10.8136V8.98789H10.8409C11.1009 8.49542 11.7301 7.98242 12.6741 7.98242C14.6303 7.98242 14.9928 9.26833 14.9928 10.9441V14.3641H13.0571V11.3408C13.0571 10.6158 13.0434 9.69241 12.0516 9.69241C11.0461 9.69241 10.8888 10.479 10.8888 11.293V14.3641H8.95996V8.13974Z" fill="white"/>
</svg>
