<!-- Generator: Adobe Illustrator 28.3.0, SVG Export Plug-In . SVG Version: 6.00 Build 0)  -->
<svg version="1.1" id="Layer_1" xmlns="http://www.w3.org/2000/svg" xmlns:xlink="http://www.w3.org/1999/xlink" x="0px" y="0px"
	 viewBox="0 0 143.7 59.2" style="enable-background:new 0 0 143.7 59.2;" xml:space="preserve">
<style type="text/css">
	.st0{fill:#EA1C2C;}
	.st1{fill:#EC1C24;}
</style>
<g>
	<polygon points="139.4,18.1 137,30.6 134.8,30.6 130.3,22.7 130.2,22.7 128.7,30.6 126,30.6 128.4,18.1 130.5,18.1 135.1,26
		135.2,26 136.8,18.1 	"/>
	<polygon points="113.8,18.1 109.2,23.2 106.4,18.1 104.3,18.1 101.9,30.6 104.6,30.6 106.1,22.7 106.2,22.7 108.6,27.1 112.7,22.5
		112.8,22.5 111.2,30.6 113.9,30.6 116.3,18.1 	"/>
	<polygon points="99.9,18.1 94.8,23.6 95.9,18.1 93.2,18.1 90.7,30.6 93.4,30.6 94.6,24.7 98.7,30.6 102,30.6 97.4,24 103.1,18.1
		"/>
	<polygon points="99.8,44.1 100.5,40.6 104.7,40.6 105.1,38.7 100.8,38.7 101.5,35.5 106.6,35.5 107,33.5 99.1,33.5 96.7,46
		105.2,46 107.2,44.1 	"/>
	<g>
		<path d="M88.6,17.8c-0.7,0-1.4,0.1-2.1,0.2c-3.3,0.9-5.7,3.8-5.7,7.5c0,2.6,1.7,5.4,5.3,5.4c2.7,0,4-1.2,5.1-1.9l-1.1-1.6
			c-0.7,0.4-1.2,0.8-1.9,1.1c-0.5,0.2-1,0.3-1.8,0.3c-1.6,0-2.8-1.3-2.8-3.4c0-2.6,1.6-5.6,4.6-5.6c1.4,0,1.9,0.5,2.4,1l1.4-1.6
			C91.1,18.4,90,17.8,88.6,17.8"/>
	</g>
	<polygon points="88.1,33.5 87.7,35.5 91.2,35.5 89.2,46 91.8,46 93.9,35.5 97.2,35.5 99.2,33.5 	"/>
	<polygon points="74.3,28.6 75,25.1 79.2,25.1 79.6,23.2 75.4,23.2 76,20 81.2,20 81.6,18.1 73.7,18.1 71.3,30.6 80,30.6 82,28.6
		"/>
	<polygon points="83.1,44.1 85.2,33.5 82.5,33.5 80,46 87.7,46 89.6,44.1 	"/>
	<path d="M78.5,33.5L76.9,42c-0.3,1.4-1.5,2.2-2.8,2.2c-1.4,0-2.2-1-2-2.2l1.7-8.4h-2.7l-1.6,8.1c-0.6,3,1.3,4.7,4.1,4.7
		c3.5,0,5.4-1.6,6-4.7l1.6-8.1H78.5z"/>
	<path d="M53.7,31.6c-0.8,0-1.5,0-2.2,0.2c-3.7,0.9-6.4,4.1-6.4,8.1c0,3.4,2.4,6.4,6,6.4c2.9,0,4.3-1.2,5.3-1.9l-1-1.7
		c-0.9,0.8-1.8,1.5-3.7,1.5c-2.1,0-3.7-1.7-3.7-4.2c0-3.2,1.8-6.4,5.4-6.4c1.3,0,2.2,0.8,2.9,1.4l1.4-1.6
		C56.9,32.8,55.4,31.6,53.7,31.6"/>
	<path class="st0" d="M39.2,13.1C36.5,9,31,7,26.3,7C14.1,7,3.9,17.1,3.9,29.3c0,2.3,0.4,4.6,1.3,6.7l0,0c-0.1-0.5-0.3-1.6-0.3-2.1
		c0-2.8,1.6-5.1,3.9-6.2c0.2-0.4,0.4-0.9,0.7-1.3c1.8-3.2,6.3-6.6,11.8-6.6c4.9,0,9.7,2.8,15.1,2.8c0.3,0,0.6,0,0.9-0.1
		c0-2.8-1.1-5.4-2.8-7.6c-1.7-2.2-4.7-3.8-7.4-4.1c0.4,0,0.9-0.1,1.3-0.1c5.5-0.1,10,4.4,10,9.9c0,0.6,0,1.1-0.1,1.6
		c1.6-0.5,2.6-1.8,2.7-3.8C41,17.2,40.4,15,39.2,13.1"/>
	<path class="st1" d="M34.3,25.6c-5.2,0-10.4-3.1-16.4-3.1c-4.6,0-6.1,1.5-7.8,3.9c-0.2,0.3-0.3,0.6-0.5,0.9
		c0.8-0.3,1.6-0.4,2.4-0.4c5.2,0,10.4,3.1,16.4,3.1c4.6,0,6.1-1.5,7.8-3.9c0.2-0.3,0.3-0.6,0.5-0.9C35.9,25.5,35.1,25.6,34.3,25.6"
		/>
	<path class="st0" d="M41.3,16.8c-0.2-0.5-0.1-0.2-0.1-0.2s0.3,1.6,0.3,2c0,2.8-1.6,5.1-3.9,6.2c-0.2,0.4-0.4,0.9-0.7,1.3
		c-1.8,3.2-6.2,6.6-11.8,6.6c-4.9,0-9.7-2.8-15.1-2.8c-0.3,0-0.6,0-0.9,0.1c0,2.8,1.1,5.4,2.8,7.6c1.7,2.2,4.7,3.8,7.4,4.1
		c-0.4,0-0.9,0.1-1.3,0.1c-5.5,0.1-10-4.4-10-9.9c0-0.6,0-1.1,0.1-1.6c-1.6,0.5-2.6,1.8-2.7,3.8c0,1.2,0.5,3.5,1.7,5.4
		c2.8,4.1,8.3,6.2,13,6.2c12.2,0,22.4-9.6,22.4-21.9C42.5,21.3,42.1,18.9,41.3,16.8"/>
	<path d="M119.4,25.7l2-3.7h0.1l0.8,3.7H119.4z M123,18.1h-1.7l-7.4,12.5h2.9l1.6-2.9h4.2l0.6,2.9h2.9L123,18.1z"/>
	<path d="M110.8,38.7l0.6-3.2h1c1.9,0,2.2,0.7,2.1,1.6c-0.2,1.1-0.9,1.6-2.5,1.6H110.8z M113.7,40.3c1.3-0.1,3.2-0.9,3.6-3.2
		c0.4-2.1-1.2-3.6-4.1-3.6h-4.1L106.7,46h2.7l1.1-5.6h0.1l3.9,5.6h3.5L113.7,40.3z"/>
	<path d="M68.3,26.3c-0.4,1.9-2.1,2.3-4.5,2.3h-1.6L63,24h1.6C66.8,24,68.7,24.4,68.3,26.3 M64.2,18.4h1.3c2,0,3.1,0.5,2.8,1.9
		c-0.2,1.1-1,1.9-3.2,1.9h-1.6L64.2,18.4z M68.4,23L68.4,23c0.7-0.3,2.3-0.8,2.6-2.7c0.5-2.7-1.6-3.8-4.9-3.8h-4.2l-2.8,14.1h5.1
		c4.3,0,6.4-1.4,6.8-3.7C71.4,24.7,69.8,23.2,68.4,23"/>
	<path d="M62.8,44.2c-0.3,0.1-0.6,0.1-1,0.1c-1.3,0-2.7-1.4-2.7-3.5c0-2,1.1-4.6,3.2-5.3c0.4-0.1,0.8-0.1,1.2-0.1
		c1.3,0,2.7,1.4,2.7,3.5C66.2,40.9,65.1,43.7,62.8,44.2 M63.9,33.3c-0.8,0-1.5,0.1-2.2,0.3c-3.1,1-5.1,3.9-5.1,7.4
		c0,2.6,1.6,5.4,5,5.4c0.7,0,1.4,0,2-0.2c3.2-0.9,5.4-3.9,5.4-7.4C68.9,36.1,67.2,33.3,63.9,33.3"/>
</g>
</svg>