<svg id="Layer_1" xmlns="http://www.w3.org/2000/svg" xmlns:xlink="http://www.w3.org/1999/xlink" viewBox="0 0 635 190">
  <defs>
    <style>
      .cls-1 {
        fill: url(#linear-gradient-4);
      }

      .cls-2 {
        fill: url(#linear-gradient-3);
      }

      .cls-3 {
        fill: url(#linear-gradient-2);
      }

      .cls-4 {
        fill: url(#linear-gradient);
      }

      .cls-5 {
        fill: #004b87;
      }
    </style>
    <linearGradient id="linear-gradient" x1="33.37" y1="36.36" x2="357.24" y2="36.36" gradientUnits="userSpaceOnUse">
      <stop offset="0" stop-color="#8200ff"/>
      <stop offset=".94" stop-color="#02fffe"/>
    </linearGradient>
    <linearGradient id="linear-gradient-2" x1="33.37" y1="71.24" x2="357.24" y2="71.24" xlink:href="#linear-gradient"/>
    <linearGradient id="linear-gradient-3" x1="290.76" y1="65.9" x2="65.71" y2="128.53" gradientUnits="userSpaceOnUse">
      <stop offset="0" stop-color="#004b87"/>
      <stop offset="1" stop-color="#007aff"/>
    </linearGradient>
    <linearGradient id="linear-gradient-4" x1="283.26" y1="38.96" x2="58.21" y2="101.6" xlink:href="#linear-gradient-3"/>
  </defs>
  <g>
    <g>
      <g>
        <path class="cls-4" d="M367.78,6.28c-24.08.2-46.02,19.52-67.25,38.2-4.93,4.34-10.02,8.82-14.95,12.87l-.8.66c3.38,2.84,6.77,5.68,10.18,8.47,4.09-3.54,8.26-7.34,12.31-11.01,19.41-17.64,39.49-35.89,60.8-37.15l4.09-.24V6.24l-4.38.04Z"/>
        <path class="cls-3" d="M266.75,74.28c-24.09,20.42-50.01,40.36-78.67,40.36h-.27c-29.25-.19-55.58-21.68-80.91-44.9h0s-2.75-2.48-2.75-2.48c-1.46-1.32-2.91-2.64-4.36-3.96l-3.36-3.23h.01C69.6,35.12,41.81,9.65,9.9,6.01l-4.83-.55v32.81l4.11.21c30.92,1.56,59.13,25.86,86.42,49.37,29.35,25.29,57.07,49.17,89.08,49.17,1.06,0,2.11-.03,3.18-.08,33.73-1.79,64.12-30.02,88.53-52.7l2.74-2.54c-3.41-3.08-6.83-6.18-10.26-9.23l-2.14,1.81Z"/>
      </g>
      <g>
        <path class="cls-2" d="M372.06,133.42l-4.43-.2c-30.54-1.36-60.01-25.79-87.58-50.71-28.46-25.76-57.88-52.39-88.78-54.73-1.44-.11-2.91-.16-4.36-.16-27.26,0-53.04,19.58-77.11,39.64l-2.91,2.49-2.75-2.48c-1.46-1.32-2.91-2.64-4.36-3.96l-3.36-3.23,4.38-3.95C127.96,31.58,159.6,5.44,191.41,6.09c32.61.68,61.61,25.14,89.65,48.78l.15.13c27.49,23.18,55.94,47.19,86.53,46.64l4.32-.07v31.86Z"/>
        <path class="cls-1" d="M79.93,74.51c-4.95,4.16-9.92,8.59-14.74,12.9-18.3,16.35-37.23,33.25-56.31,35.59l-3.87.47v11.99l4.74-.36c23.2-1.75,44.25-19.93,64.6-37.51,5.65-4.88,10.99-9.5,16.38-13.78l.1-.08c-3.61-3.1-7.24-6.19-10.9-9.22"/>
      </g>
    </g>
    <g>
      <path class="cls-5" d="M241.6,180.78v-27.22h5.63c4.06,0,7.01.33,8.85.98,2.63.92,4.7,2.53,6.18,4.81,1.49,2.28,2.23,5,2.23,8.16,0,2.73-.59,5.13-1.76,7.2-1.18,2.07-2.7,3.6-4.58,4.59-1.88.99-4.51,1.48-7.9,1.48h-8.64ZM244.21,178.21h3.14c3.75,0,6.36-.23,7.81-.7,2.04-.66,3.65-1.86,4.82-3.6,1.17-1.73,1.75-3.85,1.75-6.35s-.63-4.87-1.9-6.73c-1.27-1.86-3.04-3.14-5.3-3.83-1.7-.52-4.5-.78-8.41-.78h-1.92v21.98Z"/>
      <polygon class="cls-5" points="269.45 180.78 269.45 153.56 270.04 153.56 288.12 174.43 288.12 153.56 290.8 153.56 290.8 180.78 290.19 180.78 272.26 160.17 272.26 180.78 269.45 180.78"/>
      <path class="cls-5" d="M306.94,153.56l12.67,27.22h-2.93l-4.28-8.95h-11.7l-4.23,8.95h-3.03l12.84-27.22h.66ZM306.6,159.35l-4.66,9.85h9.29l-4.63-9.85Z"/>
      <rect class="cls-5" x="5.12" y="153.56" width="2.72" height="27.22"/>
      <polygon class="cls-5" points="13.12 180.78 13.12 153.56 13.71 153.56 31.8 174.43 31.8 153.56 34.48 153.56 34.48 180.78 33.87 180.78 15.93 160.17 15.93 180.78 13.12 180.78"/>
      <polygon class="cls-5" points="39.77 156.23 39.77 153.56 54.65 153.56 54.65 156.23 48.59 156.23 48.59 180.78 45.83 180.78 45.83 156.23 39.77 156.23"/>
      <polygon class="cls-5" points="59.64 153.56 75.21 153.56 75.21 156.23 62.36 156.23 62.36 164.76 75.1 164.76 75.1 167.42 62.36 167.42 62.36 178.12 75.1 178.12 75.1 180.78 59.64 180.78 59.64 153.56"/>
      <path class="cls-5" d="M106.61,158.13l-2.11,2c-1.51-1.49-3.17-2.63-4.98-3.39-1.8-.77-3.56-1.16-5.28-1.16-2.13,0-4.16.53-6.09,1.57-1.93,1.05-3.42,2.47-4.48,4.27-1.06,1.79-1.59,3.69-1.59,5.69s.55,3.99,1.65,5.84c1.1,1.84,2.61,3.29,4.54,4.35,1.93,1.06,4.05,1.58,6.35,1.58,2.8,0,5.16-.79,7.09-2.37,1.93-1.58,3.08-3.63,3.44-6.14h-8.66v-2.63h11.71c-.02,4.21-1.27,7.55-3.74,10.02-2.47,2.47-5.77,3.71-9.91,3.71-5.03,0-9-1.71-11.93-5.15-2.25-2.64-3.38-5.69-3.38-9.16,0-2.58.65-4.98,1.94-7.2,1.29-2.22,3.07-3.96,5.32-5.21,2.25-1.25,4.8-1.88,7.65-1.88,2.3,0,4.47.42,6.5,1.25,2.03.83,4.02,2.17,5.95,4.01"/>
      <path class="cls-5" d="M112.28,153.56h5.41c3.02,0,5.06.12,6.13.37,1.61.37,2.92,1.16,3.93,2.38,1.01,1.21,1.51,2.71,1.51,4.49,0,1.48-.35,2.79-1.04,3.91s-1.69,1.97-2.98,2.55c-1.29.58-3.08.87-5.36.88l9.77,12.64h-3.36l-9.77-12.64h-1.54v12.64h-2.72v-27.22ZM114.99,156.23v9.25l4.68.04c1.81,0,3.15-.17,4.02-.52.87-.35,1.55-.9,2.04-1.66.49-.76.73-1.61.73-2.55s-.25-1.74-.74-2.49c-.49-.75-1.14-1.28-1.94-1.6-.8-.32-2.13-.48-3.99-.48h-4.79Z"/>
      <path class="cls-5" d="M145.8,153.56l12.67,27.22h-2.93l-4.28-8.95h-11.7l-4.23,8.95h-3.03l12.84-27.22h.66ZM145.46,159.35l-4.66,9.85h9.29l-4.63-9.85Z"/>
      <polygon class="cls-5" points="157.18 156.23 157.18 153.56 172.06 153.56 172.06 156.23 166.01 156.23 166.01 180.78 163.24 180.78 163.24 156.23 157.18 156.23"/>
      <polygon class="cls-5" points="177.35 153.56 192.93 153.56 192.93 156.23 180.07 156.23 180.07 164.76 192.81 164.76 192.81 167.42 180.07 167.42 180.07 178.12 192.81 178.12 192.81 180.78 177.35 180.78 177.35 153.56"/>
      <path class="cls-5" d="M198.22,180.78v-27.22h5.63c4.06,0,7.01.33,8.85.98,2.63.92,4.7,2.53,6.18,4.81,1.49,2.28,2.23,5,2.23,8.16,0,2.73-.59,5.13-1.76,7.2-1.18,2.07-2.7,3.6-4.58,4.59-1.88.99-4.51,1.48-7.9,1.48h-8.64ZM200.82,178.21h3.14c3.75,0,6.36-.23,7.81-.7,2.04-.66,3.65-1.86,4.82-3.6,1.17-1.73,1.75-3.85,1.75-6.35s-.63-4.87-1.9-6.73c-1.27-1.86-3.04-3.14-5.3-3.83-1.7-.52-4.5-.78-8.41-.78h-1.92v21.98Z"/>
      <polygon class="cls-5" points="333.94 156.23 333.94 153.56 348.83 153.56 348.83 156.23 342.77 156.23 342.77 180.78 340 180.78 340 156.23 333.94 156.23"/>
      <polygon class="cls-5" points="354.29 153.17 369.86 153.17 369.86 155.83 357.01 155.83 357.01 164.36 369.75 164.36 369.75 167.02 357.01 167.02 357.01 177.72 369.75 177.72 369.75 180.38 354.29 180.38 354.29 153.17"/>
      <path class="cls-5" d="M400.81,158.61l-2.14,1.65c-1.18-1.54-2.6-2.71-4.26-3.51-1.66-.79-3.48-1.19-5.46-1.19-2.17,0-4.17.52-6.02,1.56-1.84,1.04-3.28,2.44-4.29,4.2-1.02,1.76-1.52,3.73-1.52,5.93,0,3.32,1.14,6.09,3.41,8.31,2.27,2.22,5.14,3.33,8.6,3.33,3.81,0,6.99-1.49,9.55-4.48l2.14,1.63c-1.35,1.73-3.05,3.06-5.07,4.01-2.03.94-4.29,1.41-6.79,1.41-4.75,0-8.5-1.59-11.25-4.76-2.3-2.68-3.45-5.91-3.45-9.7,0-3.98,1.39-7.34,4.19-10.05,2.79-2.72,6.28-4.08,10.48-4.08,2.54,0,4.83.5,6.87,1.51,2.04,1.01,3.72,2.42,5.03,4.23"/>
      <polygon class="cls-5" points="404.87 153.56 407.59 153.56 407.59 164.98 421.43 164.98 421.43 153.56 424.14 153.56 424.14 180.78 421.43 180.78 421.43 167.64 407.59 167.64 407.59 180.78 404.87 180.78 404.87 153.56"/>
      <polygon class="cls-5" points="429.43 180.78 429.43 153.56 430.02 153.56 448.11 174.43 448.11 153.56 450.79 153.56 450.79 180.78 450.18 180.78 432.24 160.17 432.24 180.78 429.43 180.78"/>
      <path class="cls-5" d="M468.99,152.88c4.12,0,7.56,1.37,10.33,4.12,2.77,2.75,4.16,6.14,4.16,10.16s-1.38,7.36-4.15,10.14c-2.77,2.78-6.14,4.16-10.12,4.16s-7.43-1.38-10.2-4.14c-2.77-2.76-4.16-6.11-4.16-10.03,0-2.61.63-5.04,1.89-7.27,1.26-2.23,2.98-3.98,5.16-5.25,2.18-1.27,4.54-1.9,7.08-1.9M469.11,155.52c-2.01,0-3.92.53-5.72,1.58-1.8,1.05-3.21,2.46-4.22,4.24-1.01,1.78-1.52,3.76-1.52,5.94,0,3.23,1.12,5.96,3.36,8.19,2.24,2.23,4.94,3.35,8.09,3.35,2.11,0,4.06-.51,5.86-1.54,1.79-1.03,3.19-2.42,4.2-4.2,1.01-1.78,1.51-3.75,1.51-5.92s-.5-4.11-1.51-5.86c-1-1.75-2.42-3.14-4.24-4.19-1.83-1.05-3.76-1.58-5.81-1.58"/>
      <polygon class="cls-5" points="488.3 153.56 491.02 153.56 491.02 178.15 501.47 178.15 501.47 180.78 488.3 180.78 488.3 153.56"/>
      <path class="cls-5" d="M516.82,152.88c4.12,0,7.56,1.37,10.33,4.12,2.77,2.75,4.16,6.14,4.16,10.16s-1.38,7.36-4.15,10.14c-2.76,2.78-6.14,4.16-10.12,4.16s-7.43-1.38-10.2-4.14c-2.77-2.76-4.16-6.11-4.16-10.03,0-2.61.63-5.04,1.89-7.27,1.26-2.23,2.98-3.98,5.16-5.25,2.18-1.27,4.54-1.9,7.08-1.9M516.94,155.52c-2.01,0-3.92.53-5.72,1.58-1.8,1.05-3.21,2.46-4.22,4.24-1.01,1.78-1.52,3.76-1.52,5.94,0,3.23,1.12,5.96,3.36,8.19,2.24,2.23,4.94,3.35,8.09,3.35,2.11,0,4.06-.51,5.86-1.54,1.79-1.03,3.19-2.42,4.2-4.2,1-1.78,1.51-3.75,1.51-5.92s-.5-4.11-1.51-5.86c-1.01-1.75-2.42-3.14-4.25-4.19-1.83-1.05-3.76-1.58-5.81-1.58"/>
      <path class="cls-5" d="M562.73,158.13l-2.11,2c-1.51-1.49-3.17-2.63-4.98-3.39-1.8-.77-3.56-1.16-5.28-1.16-2.13,0-4.16.53-6.09,1.57-1.93,1.05-3.42,2.47-4.48,4.27-1.06,1.79-1.59,3.69-1.59,5.69s.55,3.99,1.64,5.84c1.09,1.84,2.61,3.29,4.54,4.35,1.93,1.06,4.05,1.58,6.35,1.58,2.8,0,5.16-.79,7.09-2.37,1.93-1.58,3.08-3.63,3.43-6.14h-8.66v-2.63h11.71c-.02,4.21-1.27,7.55-3.74,10.02-2.47,2.47-5.77,3.71-9.91,3.71-5.03,0-9-1.71-11.93-5.15-2.25-2.64-3.38-5.69-3.38-9.16,0-2.58.65-4.98,1.94-7.2,1.29-2.22,3.07-3.96,5.32-5.21,2.25-1.25,4.8-1.88,7.65-1.88,2.3,0,4.47.42,6.5,1.25,2.03.83,4.02,2.17,5.95,4.01"/>
      <rect class="cls-5" x="568.4" y="153.56" width="2.72" height="27.22"/>
      <polygon class="cls-5" points="576.16 153.56 591.74 153.56 591.74 156.23 578.88 156.23 578.88 164.76 591.62 164.76 591.62 167.42 578.88 167.42 578.88 178.12 591.62 178.12 591.62 180.78 576.16 180.78 576.16 153.56"/>
      <path class="cls-5" d="M593.77,175.71l2.31-1.39c1.63,3,3.51,4.49,5.63,4.49.91,0,1.77-.21,2.57-.64.8-.43,1.41-1,1.83-1.71.42-.71.63-1.47.63-2.27,0-.91-.31-1.81-.92-2.68-.85-1.21-2.4-2.66-4.66-4.36-2.27-1.71-3.68-2.96-4.23-3.72-.96-1.28-1.44-2.67-1.44-4.16,0-1.18.28-2.26.85-3.24.57-.98,1.37-1.74,2.39-2.3,1.03-.56,2.14-.84,3.35-.84,1.28,0,2.48.32,3.59.95,1.12.64,2.29,1.8,3.54,3.51l-2.21,1.68c-1.02-1.36-1.9-2.25-2.62-2.68-.72-.43-1.5-.65-2.35-.65-1.1,0-1.99.33-2.69,1-.7.67-1.04,1.49-1.04,2.46,0,.59.12,1.16.37,1.72.24.56.7,1.16,1.35,1.81.36.35,1.53,1.25,3.51,2.72,2.35,1.74,3.96,3.29,4.84,4.64.87,1.36,1.31,2.72,1.31,4.09,0,1.97-.75,3.69-2.24,5.14-1.5,1.46-3.31,2.18-5.46,2.18-1.65,0-3.15-.44-4.49-1.33-1.34-.88-2.58-2.36-3.71-4.43"/>
    </g>
    <g>
      <rect class="cls-5" x="388.65" y="5" width="24.31" height="128.48"/>
      <path class="cls-5" d="M427.24,5h27.79c14.05,0,26.1,1.23,36.16,3.69,10.06,2.46,18.46,6.41,25.22,11.82,7.75,6.16,13.57,13.22,17.45,21.22,3.87,7.99,5.82,16.77,5.82,26.32,0,9.04-1.75,17.54-5.25,25.5-3.49,7.96-8.57,14.9-15.26,20.83-6.67,5.93-14.93,10.6-24.76,14-9.83,3.4-21.07,5.1-33.75,5.1h-33.42V5ZM450.16,124.04h6.71c7.76,0,15.03-1.2,21.82-3.59,6.8-2.38,12.71-5.93,17.73-10.63,5.03-4.7,9-10.51,11.93-17.42,2.91-6.9,4.37-14.88,4.37-23.92,0-7.89-1.38-15.14-4.15-21.76-2.76-6.62-6.6-12.32-11.52-17.09-4.91-4.78-10.78-8.48-17.61-11.12-6.84-2.64-14.28-3.96-22.34-3.96h-6.94v109.49Z"/>
      <polygon class="cls-5" points="612.14 5 612.14 19.43 579.69 19.43 579.69 133.48 555.37 133.48 555.37 19.43 522.93 19.43 522.93 5 612.14 5"/>
    </g>
  </g>
  <path class="cls-5" d="M616.23,6.26h-2.37v-1.26h6.22v1.26h-2.37v6.61h-1.49v-6.61ZM621.16,5h2.27l2.12,6.03h.06l2.12-6.03h2.27v7.87h-1.49v-6.57h-.04l-2.29,6.57h-1.2l-2.29-6.57h-.04v6.57h-1.49v-7.87Z"/>
</svg>