<svg version="1.1" xmlns="http://www.w3.org/2000/svg" xmlns:xlink="http://www.w3.org/1999/xlink" x="0px" y="0px"
	 viewBox="0 0 105.7 68.05" style="enable-background:new 0 0 105.7 68.05;" xml:space="preserve">
<style type="text/css">
	.st0{fill:#ED1B2F;}
</style>
<g id="Ebene_1">
	<g>
		<path class="st0" d="M101.2,39.84c-5.53,1.26-11.23,2.3-17.03,2.85c-11.45,0.71-22.89,1.04-34.23,0.22
			c-9.42-0.66-18.29-2.63-26.95-5.31c2.85-4.16,3.89-9.15,5.42-13.97c4.98-0.77,9.31-3.78,11.83-8.11c1.21-2.47,2.41-5.7,1.04-8.49
			c-0.44-0.88-1.1-1.42-1.86-2.08c-2.79-1.81-6.68-1.1-9.31,0.6c-6.14,3.23-7.07,10.13-8.82,15.99c-1.86,0.06-3.67-0.49-5.31-0.88
			c-0.33,0.6-0.6,1.26-0.71,1.92c1.75,0.6,3.51,1.21,5.48,1.31c-0.77,3.45-1.92,6.74-3.12,9.91c-0.38,0.66-0.44,1.59-1.1,2.08
			c-3.45-0.82-7.94-1.97-11.23,0.05c-1.04,0.77-1.64,1.86-1.59,3.12c0.16,1.7,1.26,2.96,2.74,3.72c4.66,2.25,10.3,0.66,14.13-2.14
			c2.96,1.04,5.86,2.08,8.87,2.96c9.26,2.46,18.79,4.65,28.97,4.33V48c14.79-0.05,29.36-2.3,43.1-5.86l0.22-0.16L101.2,39.84z
			 M32.79,9.49c0.71-1.15,1.81-2.52,3.34-2.63c0.66,0.05,1.31,0,1.81,0.55c1.48,1.42,1.04,4,0.33,5.7c-1.53,4-5.2,6.9-9.2,7.94
			C29.99,17.05,30.93,13.11,32.79,9.49z M7.76,40.6c-0.44-0.27-1.04-0.71-1.04-1.31c0.05-0.55,0.33-0.99,0.77-1.26
			c2.19-1.15,4.71,0.05,6.85,0.66l0.38,0.17C13.02,40.44,10.28,41.64,7.76,40.6z"/>
		<path class="st0" d="M57.22,20.28c1.53,0.11,3.4-0.22,4.22-1.7c0.44-0.71,0.33-1.7-0.11-2.41c-0.71-0.98-1.86-1.26-2.96-1.53
			c-1.64-0.16-3.01,0.27-3.94,1.48c-0.49,0.71-0.6,1.97-0.05,2.74C55.02,19.79,56.12,20.17,57.22,20.28z"/>
		<path class="st0" d="M36.02,23.62c-3.18,1.2-5.97,4.6-5.97,8.22c0.05,2.08,1.31,3.78,2.96,4.87c5.42,3.18,12.16,0.6,17.03-1.97
			c0.05,0.06,0.16,0.11,0.11,0.17c0.22,1.53,1.7,2.9,3.12,3.23c3.72,0.55,7.07-0.98,9.86-3.23c1.15,2.14,3.62,3.23,6.08,3.45
			l0.05-0.05c3.39,0.11,6.25-1.48,8.71-3.56c0.77,1.59,2.08,2.63,3.56,3.29c2.85,0.93,5.86,0,8-2.03c0.27,0.77,0.99,1.48,1.64,1.92
			c3.23,1.53,6.68-0.38,9.15-2.03c-0.05-0.71-0.27-1.43-0.55-2.08c-1.04,0.55-2.46,1.37-3.62,0.49c-0.22-0.33-0.38-0.66-0.33-1.09
			l2.79-9.91c-1.97-0.05-4.11-0.11-6.19-0.05l-0.49,1.53c-0.27-0.38-0.6-0.77-0.99-1.1c-2.14-1.53-5.2-1.04-7.45-0.11
			c-3.4,1.64-6.08,4.76-6.13,8.71c-1.81,1.59-4.16,3.4-6.74,2.35c-1.26-0.71-1.2-2.41-0.99-3.72c0.38-2.08,1.04-4.38,3.12-5.31
			c1.37-0.6,2.68,0.27,3.67,1.15c0.27-0.93,0.6-1.86,0.77-2.85c-2.79-1.81-7.12-1.26-9.86,0.33c-2.85,1.7-5.26,4.66-5.04,8.27
			c-0.49,0.49-1.1,0.88-1.7,1.21c-0.93,0.44-2.3,1.21-3.29,0.27c-0.22-0.33-0.27-0.71-0.27-1.15c0.88-3.23,1.81-6.52,2.68-9.75
			c-2.3,0-4.71-0.06-6.9,0.05l-2.52,8.65c-1.86,1.26-3.94,2.14-6.08,2.68c-2.08,0.49-4.77,0.93-6.52-0.49
			c-0.49-0.55-0.66-1.31-0.49-2.08c3.67,0.33,7.67-0.17,9.97-2.85c0.66-1.04,1.15-2.52,0.6-3.78l-0.55-0.88
			C44.4,21.82,39.36,22.36,36.02,23.62z M85.81,27.84c0.6-1.1,1.42-2.03,2.63-2.46c0.93-0.17,1.7,0.27,2.14,0.93
			c0.77,2.19-0.6,4.16-1.1,6.13c-0.44,1.15-1.48,2.36-2.85,2.68c-0.71,0.06-1.42-0.22-1.81-0.82C84,32.06,85.15,29.87,85.81,27.84z
			 M43.19,25.38c0.27,1.42-0.38,2.85-1.59,3.78c-1.15,0.66-2.57,0.98-4,0.71c0.6-1.81,1.15-3.78,2.74-4.98
			C41.22,24.56,42.76,24.23,43.19,25.38z"/>
		<g>
			<path d="M15.64,63.6v-5.9h1.99l0.92,4.01h0.02l0.98-4.01h1.92v5.9h-1.04v-4.66H20.2l-1.18,4.66h-1.02l-1.12-4.66h-0.22v4.66
				H15.64z"/>
			<path d="M83.53,63.6v-5.9h1.99l0.92,4.01h0.02l0.98-4.01h1.92v5.9h-1.04v-4.66h-0.23l-1.18,4.66h-1.02l-1.12-4.66h-0.22v4.66
				H83.53z"/>
			<path d="M24.77,63.6v-5.9H26v5.9H24.77z"/>
			<path d="M29.27,60.65c0-1.56,0-3.05,2.04-3.05c1.26,0,1.77,0.69,1.72,1.96h-1.21c0-0.79-0.14-1.08-0.51-1.08
				c-0.69,0-0.78,0.65-0.78,2.17s0.09,2.17,0.78,2.17c0.57,0,0.55-0.73,0.56-1.2h1.22c0,1.58-0.63,2.08-1.78,2.08
				C29.27,63.7,29.27,62.19,29.27,60.65z"/>
			<path d="M37.37,58.61h0.55c0.39,0,0.63,0.21,0.63,0.78c0,0.38-0.14,0.87-0.63,0.87h-0.55V58.61z M37.37,61.16h0.32
				c0.95,0,0.88,0.6,0.88,1.3c0,0.38-0.03,0.78,0.13,1.14h1.21c-0.11-0.25-0.14-1.36-0.14-1.73c0-1.06-0.8-1.13-1.07-1.16v-0.02
				c0.8-0.13,1.1-0.7,1.1-1.45c0-1.01-0.54-1.54-1.38-1.54h-2.28v5.9h1.23V61.16z"/>
			<path d="M44.98,62.82c-0.69,0-0.79-0.65-0.79-2.17s0.09-2.17,0.79-2.17c0.69,0,0.79,0.65,0.79,2.17S45.67,62.82,44.98,62.82z
				 M44.98,63.7c2.04,0,2.04-1.5,2.04-3.05c0-1.56,0-3.05-2.04-3.05c-2.04,0-2.04,1.49-2.04,3.05C42.94,62.19,42.94,63.7,44.98,63.7
				z"/>
			<path d="M51.89,63.7c-1.53,0-1.82-0.9-1.75-1.92h1.23c0,0.56,0.02,1.04,0.7,1.04c0.42,0,0.62-0.27,0.62-0.67
				c0-1.06-2.49-1.13-2.49-2.89c0-0.92,0.44-1.66,1.95-1.66c1.2,0,1.8,0.54,1.72,1.77h-1.2c0-0.44-0.07-0.89-0.57-0.89
				c-0.4,0-0.64,0.22-0.64,0.63c0,1.12,2.49,1.02,2.49,2.88C53.95,63.52,52.83,63.7,51.89,63.7z"/>
			<path d="M58.2,61.56l-1.54-3.86h1.35l0.88,2.49l0.94-2.49h1.26l-1.65,3.86v2.04H58.2V61.56z"/>
			<path d="M65.55,63.7c-1.53,0-1.81-0.9-1.75-1.92h1.23c0,0.56,0.02,1.04,0.7,1.04c0.42,0,0.62-0.27,0.62-0.67
				c0-1.06-2.49-1.13-2.49-2.89c0-0.92,0.44-1.66,1.95-1.66c1.2,0,1.8,0.54,1.72,1.77h-1.2c0-0.44-0.07-0.89-0.57-0.89
				c-0.4,0-0.64,0.22-0.64,0.63c0,1.12,2.49,1.02,2.49,2.88C67.61,63.52,66.5,63.7,65.55,63.7z"/>
			<path d="M74.3,57.7v0.98h-1.37v4.92h-1.23v-4.92h-1.37V57.7H74.3z"/>
			<path d="M77.16,63.6v-5.9h3.22v0.91H78.4v1.45h1.83v0.91H78.4v1.73h2.05v0.91H77.16z"/>
			<path d="M94.24,63.7c-1.53,0-1.81-0.9-1.75-1.92h1.24c0,0.56,0.02,1.04,0.7,1.04c0.42,0,0.62-0.27,0.62-0.67
				c0-1.06-2.48-1.13-2.48-2.89c0-0.92,0.44-1.66,1.95-1.66c1.2,0,1.8,0.54,1.72,1.77h-1.2c0-0.44-0.07-0.89-0.57-0.89
				c-0.4,0-0.64,0.22-0.64,0.63c0,1.12,2.49,1.02,2.49,2.88C96.3,63.52,95.18,63.7,94.24,63.7z"/>
		</g>
	</g>
</g>
<g id="Ebene_2">
</g>
</svg>