<svg width="104" height="38" viewBox="0 0 104 38" fill="none" xmlns="http://www.w3.org/2000/svg">
<path d="M30.5899 13.7784V10.26C30.5899 9.61231 30.0608 9.08531 29.4089 9.08531H16.418V8.73582C16.418 8.02436 16.9094 7.40582 17.6073 7.23939L29.2847 4.47122C29.5555 4.40465 29.8444 4.38662 30.1097 4.46983C30.5005 4.59188 30.8467 4.84012 31.2809 5.08005L34.38 6.89407C34.5405 6.98698 34.6927 7.09793 34.8085 7.24355C35.1338 7.65545 35.3139 8.09647 35.3139 8.6956V13.7798V18.473V23.8887C35.3097 24.6722 34.8881 25.3962 34.2041 25.7873L30.5899 27.8579V23.1647V18.473V13.7784Z" fill="#0040C6"/>
<path d="M11.6942 23.1759V26.6957C11.6942 27.3434 12.2233 27.8704 12.8752 27.8704H25.8661V28.2199C25.8661 28.9313 25.3747 29.5499 24.6767 29.7163L12.9994 32.4845C12.7286 32.5511 12.4396 32.5691 12.1744 32.4859C11.7835 32.3638 11.4373 32.1156 11.0032 31.8756L7.90412 30.0616C7.74358 29.9687 7.59142 29.8578 7.47556 29.7121C7.1503 29.3002 6.97021 28.8578 6.97021 28.2601V23.1759V18.4827V13.0656C6.9744 12.2821 7.39599 11.5581 8.08001 11.167L11.6942 9.09784V13.791V18.4827V23.1759Z" fill="#0040C6"/>
<path d="M45.9415 11.4416H42.3999V25.4933H45.9415V11.4416Z" fill="#2F2E33"/>
<path d="M61.7592 12.6829C60.4023 11.7786 58.8961 11.4402 56.3107 11.4402H49.1633V25.4905H56.2256C58.5987 25.4905 60.2962 25.0703 61.6964 24.1009C63.5628 22.8375 64.6433 20.7086 64.6433 18.3496C64.6433 16.0127 63.5628 13.9061 61.7592 12.6829ZM56.2674 22.6489H52.7063V14.2847H56.2674C59.1529 14.2847 60.7625 15.8019 60.7625 18.4564C60.7625 21.133 59.1529 22.6489 56.2674 22.6489Z" fill="#2F2E33"/>
<path d="M79.1474 17.9723C80.3982 17.1929 80.9705 16.2457 80.9705 14.9601C80.9705 13.5274 80.2069 12.2626 79.0622 11.8216C78.2344 11.4832 77.7682 11.4416 75.3517 11.4416H66.9326V25.4933H75.4564C77.6621 25.4933 78.5108 25.3865 79.4866 24.9455C80.7807 24.3755 81.628 23.0066 81.628 21.4894C81.628 19.889 80.7807 18.6685 79.1474 17.9723ZM70.4756 14.2222H75.268C76.6249 14.2222 77.1539 14.6009 77.1539 15.6133C77.1539 16.6243 76.6249 17.0029 75.268 17.0029H70.4756V14.2222ZM77.0478 22.4588C76.6444 22.6488 76.2633 22.7112 75.2666 22.7112H70.4742V19.4882H75.2666C76.2647 19.4882 76.6458 19.5312 77.0478 19.742C77.5141 19.9528 77.8114 20.4798 77.8114 21.0886C77.8114 21.721 77.5141 22.248 77.0478 22.4588Z" fill="#2F2E33"/>
<path d="M96.8749 17.7823C95.9201 17.2969 94.9443 17.0667 93.1225 16.8975L89.6856 16.5411C88.1808 16.3941 87.6294 16.0349 87.6294 15.2347C87.6294 14.182 88.8802 13.5496 90.9783 13.5496C92.0183 13.5496 92.8028 13.6966 93.459 14.035C94.0969 14.372 94.3929 14.7923 94.6469 15.6355H98.3798C98.1048 13.9712 97.6162 13.0864 96.5133 12.3278C95.2416 11.4638 93.2272 10.959 91.0006 10.959C86.5908 10.959 83.8756 12.7494 83.8756 15.6771C83.8756 17.9099 85.5508 19.301 88.647 19.6172L92.6325 20.018C94.2868 20.1858 94.9862 20.649 94.9862 21.5782C94.9862 22.7362 93.6502 23.4102 91.3385 23.4102C89.8769 23.4102 88.9011 23.1578 88.1152 22.567C87.5442 22.1246 87.2902 21.6406 87.1827 20.7128H83.4722C83.6006 22.567 83.9608 23.4948 84.9575 24.3366C86.2516 25.4531 88.2869 26.0009 91.171 26.0009C93.459 26.0009 95.0504 25.7291 96.4086 25.0745C97.9987 24.3172 98.9744 22.8416 98.9744 21.1982C98.9744 19.7198 98.169 18.4148 96.8749 17.7823Z" fill="#2F2E33"/>
</svg>
