
<svg version="1.1" id="HemoCue_Logo" xmlns="http://www.w3.org/2000/svg" xmlns:xlink="http://www.w3.org/1999/xlink" x="0px"
	 y="0px" viewBox="0 0 1457 300" style="enable-background:new 0 0 1457 300;" xml:space="preserve">
<style type="text/css">
	.st0{fill:#FFFFFF;}
	.st1{fill:#E02E37;}
	.st2{fill:#1E1A1A;}
</style>
<g id="HemoCue_Logo_Clear_Red">
	<g>
		<path class="st1" d="M1456,167.3c0-36.1-20.2-61-56.6-61c-33.8,0-58.2,25.3-58.2,61.4s23,61.4,59.9,61.4
			c21.3,0,38.8-7.9,49.5-21.5l-20.5-15.7c-6,7.3-15.9,11.9-27.6,11.9c-17.3,0-29.4-9-32.6-26.1h85.4
			C1455.8,174.4,1456,170.9,1456,167.3z M1370,155.4c3.5-15.9,14.2-24.6,29.4-24.6c15.9,0,27.3,9.8,28.2,24.6H1370z"/>
		<path class="st1" d="M1260.6,229.1c15.4,0,27.1-5.8,33.8-13.1v10.7h27.6V108.5h-28.8V178c0,16.1-9.4,25.3-23.6,25.3
			c-15.9,0-23.6-9-23.6-25.3v-69.5h-28.8v73.1C1217.3,212.6,1235.1,229.1,1260.6,229.1z"/>
		<path class="st1" d="M979.8,106.2c-36.5,0-63,25.3-63,61.4s26.5,61.4,63,61.4c36.5,0,63-25.3,63-61.4S1016.3,106.2,979.8,106.2z
			 M979.8,203.4c-20.3,0-34.2-14.2-34.2-35.7c0-21.5,13.8-35.7,34.2-35.7c20.4,0,34.2,14.2,34.2,35.7
			C1014,189.2,1000.2,203.4,979.8,203.4z"/>
		<path class="st1" d="M717.6,226.8h28.8v-69.5c0-16.1,9.4-25.3,23.6-25.3c15.9,0,23.6,9,23.6,25.3v69.5h28.8v-69.5
			c0-16.1,9.4-25.3,23.6-25.3c15.9,0,23.6,9,23.6,25.3v69.5h28.8v-73.1c0-29-18.4-47.4-45.3-47.4c-16.9,0-30.3,7.3-39.7,17.3
			c-7.9-10.9-20.5-17.3-35.3-17.3c-14.6,0-24.8,5.8-32.8,13.1v-10.7h-27.6V226.8z"/>
		<path class="st1" d="M696.5,167.3c0-36.1-20.2-61-56.6-61c-33.8,0-58.2,25.3-58.2,61.4s23,61.4,59.9,61.4
			c21.3,0,38.8-7.9,49.5-21.5l-20.5-15.7c-6,7.3-15.9,11.9-27.6,11.9c-17.3,0-29.4-9-32.6-26.1h85.4
			C696.3,174.4,696.5,170.9,696.5,167.3z M610.5,155.4c3.5-15.9,14.2-24.6,29.4-24.6c15.9,0,27.3,9.8,28.2,24.6H610.5z"/>
		<polygon class="st1" points="423.9,226.8 453.9,226.8 453.9,159.4 530.6,159.4 530.6,226.8 560.6,226.8 560.6,73.2 530.6,73.2
			530.6,134.5 453.9,134.5 453.9,73.2 423.9,73.2 		"/>
		<path class="st1" d="M1136.6,229.5c28.2,0,50.3-11.1,64.5-31.1l-21.9-16.7c-8.4,12.7-23,21.3-41.5,21.3c-29.4,0-48.8-21.1-48.8-53
			s19.4-53,48.8-53c18.4,0,33,8.6,41.5,21.3l21.9-16.7c-14.2-20-36.3-31.1-64.5-31.1c-45.9,0-77.9,33-77.9,79.5
			S1090.4,229.5,1136.6,229.5z"/>
	</g>
	<g>
		<path class="st1" d="M239.7,168.4l45.9-79.1c7.2-12.6,9.9-22.5,9.9-32.6c0-31.2-24.2-55.8-55.8-55.8s-55.8,24.6-55.8,55.8
			c0,10.1,2.7,20,9.9,32.6L239.7,168.4z"/>
		<path class="st1" d="M153.8,56.8l-91.4-0.2c-14.5,0-24.4,2.7-33.2,7.7C2.1,79.9-7.1,113.1,8.7,140.5s49.2,36,76.2,20.4
			c8.7-5,16-12.3,23.3-24.9L153.8,56.8z"/>
		<path class="st1" d="M100,187.1l45.5,79.3c7.3,12.6,14.5,19.8,23.3,24.9c27.1,15.6,60.4,7,76.2-20.4s6.6-60.6-20.4-76.2
			c-8.7-5-18.7-7.7-33.2-7.7L100,187.1z"/>
	</g>
</g>
</svg>
