<svg version="1.0" id="Layer_1" xmlns="http://www.w3.org/2000/svg" xmlns:xlink="http://www.w3.org/1999/xlink" x="0px" y="0px"
	 viewBox="0 0 166.7 30.6" style="enable-background:new 0 0 166.7 30.6;" xml:space="preserve">
<g>
	<g>
		<g>
			<path style="fill:#8A8FA8;" d="M164,10.1h1.1v0.2h-0.4v1.2h-0.2v-1.2H164V10.1z"/>
			<path style="fill:#8A8FA8;" d="M165.3,10.1h0.3l0.4,1.1h0l0.4-1.1h0.3v1.4h-0.2v-1.1h0l-0.4,1.1h-0.2l-0.4-1.1h0v1.1h-0.2V10.1z"
				/>
		</g>
	</g>
	<path style="fill:#0762AB;" d="M46.8,16.3c0,3.4-2.7,6-6,6c-1.2,0-2.4-0.4-3.3-1v4.6c0,0.8-0.6,1.4-1.4,1.4c-0.7,0-1.4-0.6-1.4-1.4
		v-9.5v-0.1c0-0.1,0-0.1,0-0.1c0-3.3,2.7-6,6.1-6C44.1,10.2,46.8,12.9,46.8,16.3z M43.8,16.3c0-1.7-1.4-3.1-3.1-3.1
		c-1.7,0-3.1,1.4-3.1,3.1c0,1.7,1.4,3.1,3.1,3.1C42.4,19.3,43.8,17.9,43.8,16.3z"/>
	<path style="fill:#0762AB;" d="M58.7,15.6v5.2c0,0.8-0.7,1.5-1.5,1.5c-0.8,0-1.5-0.7-1.5-1.5v-5.2c0-1.3-1.1-2.4-2.4-2.4
		c-1.3,0-2.4,1.1-2.4,2.4v5.2c0,0.8-0.7,1.5-1.5,1.5c-0.8,0-1.5-0.7-1.5-1.5V6c0-0.8,0.7-1.5,1.5-1.5C50.3,4.5,51,5.1,51,6v4.8
		c0.7-0.4,1.5-0.6,2.4-0.6C56.3,10.2,58.7,12.6,58.7,15.6z"/>
	<path style="fill:#0762AB;" d="M70.9,19.3c-0.3-0.7-1.1-0.8-1.9-0.6c-1.2,0.8-2.3,0.8-3.4,0.7c-0.5-0.1-1-0.2-1.4-0.5l6.2-3.5
		c0.7-0.4,0.4-1.8,0-2.5c-1.5-2.8-4.9-3.7-7.7-2.1c-2.9,1.6-4,5.3-2.3,8.2l0,0c0.9,1.7,2.6,2.9,4.8,3.1c2.3,0.2,3.8-0.3,4.8-1.1
		C70.8,20.8,71.2,20.1,70.9,19.3z M64.2,13.4c1.3-0.7,2.6-0.4,3.5,0.6l-5,2.8C62.3,15.3,62.9,14.1,64.2,13.4z"/>
	<path style="fill:#0762AB;" d="M127.2,19.3c-0.3-0.7-1.1-0.8-1.9-0.6c-1.2,0.8-2.3,0.8-3.4,0.7c-0.5-0.1-1-0.2-1.4-0.5l6.2-3.5
		c0.7-0.4,0.4-1.8,0-2.5c-1.5-2.8-4.9-3.7-7.7-2.1c-2.9,1.6-4,5.3-2.3,8.2l0,0c0.9,1.7,2.6,2.9,4.8,3.1c2.3,0.2,3.8-0.3,4.8-1.1
		C127.1,20.8,127.5,20.1,127.2,19.3z M120.4,13.4c1.3-0.7,2.6-0.4,3.5,0.6l-5,2.8C118.6,15.3,119.2,14.1,120.4,13.4z"/>
	<path style="fill:#0762AB;" d="M151.8,19.3c-0.3-0.7-1.1-0.8-1.9-0.6c-1.2,0.8-2.3,0.8-3.4,0.7c-0.5-0.1-1-0.2-1.4-0.5l6.2-3.5
		c0.7-0.4,0.4-1.8,0-2.5c-1.5-2.8-4.9-3.7-7.7-2.1c-2.9,1.6-4,5.3-2.3,8.2l0,0c0.9,1.7,2.6,2.9,4.8,3.1c2.3,0.2,3.8-0.3,4.8-1.1
		C151.7,20.8,152.1,20.1,151.8,19.3z M145,13.4c1.3-0.7,2.6-0.4,3.5,0.6l-5,2.8C143.2,15.3,143.8,14.1,145,13.4z"/>
	<path style="fill:#0762AB;" d="M72.7,20.8v-5.2c0-2.9,2.4-5.4,5.4-5.4c2.9,0,5.4,2.4,5.4,5.4v5.2c0,0.8-0.7,1.5-1.5,1.5
		c-0.8,0-1.5-0.7-1.5-1.5v-5.2c0-1.3-1.1-2.4-2.4-2.4c-1.3,0-2.4,1.1-2.4,2.4v5.2c0,0.8-0.7,1.5-1.5,1.5
		C73.4,22.3,72.7,21.7,72.7,20.8z"/>
	<path style="fill:#0762AB;" d="M84.4,16.3c0-3.3,2.7-6,6-6c3.3,0,6,2.7,6,6c0,3.4-2.7,6-6,6C87.1,22.4,84.4,19.7,84.4,16.3z
		 M93.5,16.3c0-1.7-1.4-3.1-3.1-3.1c-1.7,0-3.1,1.4-3.1,3.1c0,1.7,1.4,3.1,3.1,3.1C92.1,19.4,93.5,18,93.5,16.3z"/>
	<path style="fill:#0762AB;" d="M114.7,15.2v5.6c0,0.8-0.7,1.5-1.5,1.5c-0.8,0-1.5-0.7-1.5-1.5v-5.6c0-1.1-0.9-2-2-2
		c-1.1,0-2,0.9-2,2v5.6c0,0.8-0.7,1.5-1.5,1.5c-0.8,0-1.5-0.7-1.5-1.5v-5.6c0-1.1-0.9-2-2-2c-1.1,0-2,0.9-2,2v5.6
		c0,0.8-0.7,1.5-1.5,1.5c-0.8,0-1.5-0.7-1.5-1.5v-5.6c0-2.8,2.2-5,5-5c1.3,0,2.6,0.5,3.5,1.4c0.9-0.9,2.1-1.4,3.5-1.4
		C112.5,10.3,114.7,12.5,114.7,15.2z"/>
	<path style="fill:#0762AB;" d="M128.7,20.8v-5.2c0-2.9,2.4-5.4,5.4-5.4c2.9,0,5.4,2.4,5.4,5.4v5.2c0,0.8-0.7,1.5-1.5,1.5
		c-0.8,0-1.5-0.7-1.5-1.5v-5.2c0-1.3-1.1-2.4-2.4-2.4c-1.3,0-2.4,1.1-2.4,2.4v5.2c0,0.8-0.7,1.5-1.5,1.5
		C129.4,22.3,128.7,21.7,128.7,20.8z"/>
	<path style="fill:#0762AB;" d="M162.8,19.9c0.5,0.6,0.5,1.6-0.2,2.1c-0.3,0.2-0.6,0.4-1,0.4c-0.4,0-0.9-0.2-1.1-0.6l-2.6-3.1
		l-2.6,3.1c-0.3,0.4-0.7,0.6-1.2,0.6c-0.3,0-0.7-0.1-0.9-0.4c-0.6-0.5-0.7-1.5-0.2-2.1l3-3.6l-3-3.6c-0.5-0.6-0.4-1.6,0.2-2.1
		c0.6-0.5,1.6-0.5,2.1,0.2l2.6,3.2l2.6-3.2c0.5-0.6,1.5-0.7,2.1-0.2c0.6,0.5,0.7,1.5,0.2,2.1l-3,3.6L162.8,19.9z"/>
	<g>
		<path style="fill-rule:evenodd;clip-rule:evenodd;fill:#0762AB;" d="M18.7,15.2c0,1.9-1.5,3.4-3.4,3.4s-3.4-1.5-3.4-3.4
			c0-1.9,1.5-3.4,3.4-3.4S18.7,13.3,18.7,15.2z"/>
		<path style="fill-rule:evenodd;clip-rule:evenodd;fill:#CC1522;" d="M6.1,27.5c0,0,0-8.9,0-12.2c0-5,4.1-9.1,9.1-9.1
			c5,0,9.1,4.1,9.1,9.1c0,5-4.1,9.1-9.1,9.1c-1,0-2-0.2-2.9-0.5l0,6.4c1,0.2,1.9,0.3,3,0.3c8.4,0,15.3-6.8,15.3-15.3
			C30.6,6.8,23.7,0,15.3,0C6.8,0,0,6.8,0,15.3C0,20.3,2.4,24.7,6.1,27.5z"/>
	</g>
</g>
</svg>