<svg version="1.1" id="layer" xmlns="http://www.w3.org/2000/svg" xmlns:xlink="http://www.w3.org/1999/xlink" x="0px" y="0px"
	 viewBox="0 0 638 255" style="enable-background:new 0 0 638 255;" xml:space="preserve">
<g>
	<path d="M508.7,25.6c0,0,23.5,9.3,44,27.1c16.5,14.3,52.4,52.7-6.6,122.2l17.8,27.5C602.3,169.9,678.3,65.4,508.7,25.6"/>
	<path d="M252.4,42.6c-34,10.8-65.5,24.2-93,40.1c3.9-0.4,8-0.6,12.3-0.6c12.4,0,25,1.8,34.5,4.9l1.5,0.5
		c25.7-14.1,57.8-25.8,90-36.3C371,27.5,443.5,25,507.3,35.6C449.2,13.7,348.4,12.1,252.4,42.6"/>
	<path d="M108.4,130.2l-93.9,88.9l14.3-4.3c0,0,57-41.5,88.1-59C111.9,149.6,108.6,141.4,108.4,130.2"/>
</g>
<polygon points="487.6,160.4 455.3,107.5 490,107.5 508.7,144.2 527.9,107.5 560.5,107.5 527.9,160.4 563.7,219.1 528.2,219.1
	506.6,178 485.2,219.1 451.5,219.1 "/>
<polygon points="368.8,107.5 447.4,107.5 447.4,128.6 398.5,128.6 398.5,151.6 444.7,151.6 444.7,172.7 398.5,172.7 398.5,198
	449.2,198 449.2,219.1 368.8,219.1 "/>
<rect x="322.7" y="107.5" width="29.8" height="111.6"/>
<g>
	<path d="M307,195.6c-6.5,2-13.7,3.3-20.7,3.3c-21.7,0-37.2-13.3-37.2-35.2c0-20.8,13.7-36.1,34.8-36.1c8.1,0,15.6,1.7,23.1,5V109
		c-8.1-2-16.3-3.4-24.7-3.4c-36.8,0-63.9,19.3-63.9,58.2c0,42.2,34.4,57.2,64.1,57.2c10.4,0,18-1.1,24.6-2.5v-22.9H307z"/>
	<path d="M155.5,220.3c-12.5,0-26.5-2-36.8-5.2l2.7-25.9c9.9,5.1,21.9,7.8,34.1,7.8c5.4,0,21.8,0,21.8-13.3
		c0-10.5-10.8-13.8-23.3-17.6c-17.2-5.2-36.7-11.1-36.7-37.3c0-34.3,38-38,54.3-38c11.4,0,23.2,1.7,31.7,4.4l-2,24.1
		c-8.1-3.5-17.6-5.4-27.3-5.4c-6.5,0-23.6,0-23.6,12.7c0,8.9,10.1,11.8,21.9,15.1c17,4.8,38.1,10.7,38.1,37.4
		C210.3,213.3,180.5,220.3,155.5,220.3"/>
</g>
</svg>