<svg width="94" height="20" viewBox="0 0 94 20" fill="none" xmlns="http://www.w3.org/2000/svg">
<path fill-rule="evenodd" clip-rule="evenodd" d="M73.8696 5.03909H69.1668V8.07873H71.002V16.28H69.1668V19.3196H76.049V16.28H74.2137V11.6345C74.2137 9.39781 75.3607 8.02138 77.196 8.02138C79.0886 8.02138 79.9489 9.1684 80.0062 11.6919V16.28H78.171V19.3196H84.9958V16.28H83.1032V11.4625C83.1032 9.34046 84.3076 8.02138 86.2002 8.02138C88.0354 8.02138 89.0104 9.16841 89.0104 11.4625V16.28H87.1752V19.3196H94V16.28H92.1647V10.6596C92.2221 9.51252 91.9927 8.36548 91.4765 7.33315C90.5016 5.72731 88.781 4.75233 86.9458 4.75233C84.9385 4.69498 83.0459 5.89937 82.2429 7.79197C81.268 5.78467 79.7768 4.75233 77.8842 4.75233C76.1637 4.75233 74.8446 5.55526 73.8122 7.21846L73.8696 5.03909ZM65.7257 8.07873H67.5609V5.03909H62.514V7.10375C61.539 5.61261 59.8185 4.75233 58.0406 4.80968C54.0833 4.80968 50.8716 8.19343 50.8716 12.2654C50.8143 16.2226 53.9686 19.4917 57.9259 19.549C59.7038 19.6637 61.4243 18.8608 62.514 17.427V19.3196H67.5609V16.28H65.7257V8.07873ZM62.514 12.1507C62.514 14.5021 60.6214 16.3947 58.27 16.3947C55.9759 16.3374 54.1407 14.4447 54.198 12.1507C54.2554 9.85662 56.148 8.02138 58.442 8.07873C60.6787 8.07873 62.514 9.91397 62.514 12.1507ZM49.5525 5.03909H46.7997V6.41552C45.7673 5.26849 44.3335 4.58028 42.785 4.63764C38.8851 4.63764 35.6735 8.13607 35.6735 12.208C35.6735 16.3373 38.9425 19.7211 43.0718 19.7784C46.2835 19.7784 49.1511 17.6564 50.126 14.6168H46.5129C45.882 15.8785 44.563 16.6815 43.1292 16.6241C40.7777 16.6241 38.8851 14.6742 38.9425 12.3227V12.2654C38.8278 9.97133 40.6057 8.02137 42.8997 7.90667C44.3909 7.84931 45.8247 8.59488 46.6276 9.85662H49.6099L49.5525 5.03909ZM23.1708 0.221558H18.1239V3.26118H19.9591V16.28H18.1239V19.3196H23.1708V17.1976C24.2031 18.7461 25.981 19.6064 27.8163 19.549C31.6015 19.549 34.7558 16.2226 34.7558 12.208C34.7558 8.19342 31.5441 4.86704 27.5295 4.80968C25.7516 4.75233 24.0884 5.61261 23.1708 7.10375V0.221558ZM31.5441 12.0933C31.6015 14.5021 29.7089 16.4521 27.3001 16.5094C24.8914 16.4521 22.9988 14.4448 22.9988 12.0933C22.9988 9.74193 24.9487 7.84931 27.3001 7.84931C29.6515 7.90666 31.4868 9.79928 31.5441 12.0933ZM14.8548 8.07873H16.6901V5.03909H11.6431V7.10375C10.6682 5.61261 8.94762 4.75233 7.16972 4.80968C3.21246 4.80968 0.000769825 8.19343 0.000769825 12.2654C-0.0565818 16.2226 3.09775 19.4917 7.05501 19.549C8.83291 19.6637 10.5535 18.8608 11.6431 17.427V19.3196H16.6901V16.28H14.8548V8.07873ZM11.6431 12.1507C11.6431 14.5021 9.75054 16.3947 7.39912 16.3947C5.10506 16.3947 3.21246 14.5021 3.26981 12.208C3.26981 9.91397 5.16242 8.02138 7.45648 8.07873C9.75054 8.02138 11.6431 9.85662 11.6431 12.1507Z" fill="black"/>
</svg>
