<svg version="1.1" id="Layer_1" xmlns="http://www.w3.org/2000/svg" xmlns:xlink="http://www.w3.org/1999/xlink" x="0px" y="0px"
	 viewBox="0 0 864 216" style="enable-background:new 0 0 864 216;" xml:space="preserve">
<style type="text/css">
	.st0{fill:#84329B;}
</style>
<g>
	<path class="st0" d="M121.3,153.1l-7.7-55.7l-24.2,55.7h-9.9L54.7,97.9l-8,55.1H30.9l14.6-92h10.6l29.7,66l28.9-66h10.7l14.5,92
		H121.3z"/>
	<path class="st0" d="M192.1,153.1v-7.7c-5.7,6.3-12.9,9.6-21.5,9.6c-16.8,0-22.4-12.3-22.4-21.8c0-15.8,13.8-23.6,28-23.6
		c5.9,0,10.3,1,15.9,2.7c0-8.6-3.4-18.8-17.3-18.8c-8.2,0-13.8,3.5-18.3,9.9l-4.4-2.2c5.5-13.6,15.9-17.9,27.6-17.9
		c23.6,0,29.3,14,29.3,28v41.6H192.1z M192.1,122.5c-3.9-1.6-6.9-2.6-11.2-2.6c-7.7,0-14.3,4.2-14.3,12.5c0,7.3,4.7,12,12,12
		c4.4,0,9.3-2.1,13.6-5V122.5z"/>
	<path class="st0" d="M305.1,153.1v-47.7c0-5.1-3-10.3-9.9-10.3c-6,0-10.7,4.2-13.6,9.4v48.6h-17.3v-45.8c0-6.4-3-12.3-10.3-12.3
		c-5.9,0-10.4,4.6-13,9.4v48.6h-17.5V86.3H241v8.3c5.3-7,12.3-10.3,21.3-10.3c7.7,0,15.4,3,18.5,11.7c4.8-7.2,12.4-11.7,21.8-11.7
		c13.4,0,19.9,7.8,19.9,20.3v48.4H305.1z"/>
	<path class="st0" d="M418.6,153.1v-47.7c0-5.1-3-10.3-9.9-10.3c-6,0-10.7,4.2-13.6,9.4v48.6h-17.3v-45.8c0-6.4-3-12.3-10.3-12.3
		c-5.9,0-10.4,4.6-13,9.4v48.6h-17.5V86.3h17.5v8.3c5.3-7,12.3-10.3,21.3-10.3c7.7,0,15.4,3,18.5,11.7c4.8-7.2,12.4-11.7,21.8-11.7
		c13.4,0,19.9,7.8,19.9,20.3v48.4H418.6z"/>
	<path class="st0" d="M482.2,83.6c23.5,0,34.5,17.5,34.5,35.7c0,12.3-6.1,36.5-35.3,36.5c-21,0-33.5-15.1-33.5-35.5
		C447.9,96.8,463,83.6,482.2,83.6z M482.3,145.3c12.8,0,16-15.1,16-25.2c0-10.4-2.9-25.9-16.2-25.9c-12.6,0-16,14.9-16,24.9
		C466.1,129.5,468.9,145.3,482.3,145.3z"/>
	<path class="st0" d="M549.1,132.6c0,7.2,3.1,14.7,12,14.7c2.2,0,4.3-0.5,6.4-1.3l2,4.2c-5.6,3.9-10.3,5.3-17.1,5.3
		c-13.6,0-20.7-8.1-20.7-20.7V96.8H521V86.3h10.6V68.2h17.5v18.1h15.3v10.4h-15.3V132.6z"/>
	<path class="st0" d="M605.8,83.6c23.5,0,34.5,17.5,34.5,35.7c0,12.3-6.1,36.5-35.3,36.5c-21,0-33.5-15.1-33.5-35.5
		C571.5,96.8,586.6,83.6,605.8,83.6z M605.9,145.3c12.8,0,16-15.1,16-25.2c0-10.4-2.9-25.9-16.2-25.9c-12.6,0-16,14.9-16,24.9
		C589.7,129.5,592.5,145.3,605.9,145.3z"/>
	<path class="st0" d="M733.7,153.1v-47.7c0-5.1-3-10.3-9.9-10.3c-6,0-10.7,4.2-13.6,9.4v48.6h-17.3v-45.8c0-6.4-3-12.3-10.3-12.3
		c-5.9,0-10.4,4.6-13,9.4v48.6h-17.5V86.3h17.5v8.3c5.3-7,12.3-10.3,21.3-10.3c7.7,0,15.4,3,18.5,11.7c4.8-7.2,12.4-11.7,21.8-11.7
		c13.4,0,19.9,7.8,19.9,20.3v48.4H733.7z"/>
	<path class="st0" d="M781.3,121.4c0.9,13.7,9.3,23.3,23.5,23.3c10.8,0,15.5-4.2,21.5-12l4.3,2.1c-5.2,16-17.5,21-31.3,21
		c-26.6,0-36.5-19.8-36.5-37c0-19.8,13.3-35.5,36-35.5c20.2,0,33.9,12.3,33.9,36v2.1H781.3z M813.7,111.2c-1-9-4.2-16.9-15.3-16.9
		c-11.1,0-14.6,7.8-16.8,16.9H813.7z"/>
</g>
</svg>