<svg id="SVGRoot" width="500" height="138.48" version="1.1" viewBox="0 0 500 138.47937" xmlns="http://www.w3.org/2000/svg" xmlns:cc="http://creativecommons.org/ns#" xmlns:dc="http://purl.org/dc/elements/1.1/" xmlns:rdf="http://www.w3.org/1999/02/22-rdf-syntax-ns#"><metadata><rdf:RDF><cc:Work rdf:about=""><dc:format>image/svg+xml</dc:format><dc:type rdf:resource="http://purl.org/dc/dcmitype/StillImage"/><dc:title/></cc:Work></rdf:RDF></metadata><g transform="translate(-151 -180.44)"><g fill="#18181b"><g stroke-width="1.7361"><path class="cls-1" d="m356.71 267.99a8.9236 8.9236 0 0 1 -8.5938 -5.1042 30.104 30.104 0 0 1 -2.5347 -13.385 28.733 28.733 0 0 1 2.6389 -13.333 8.9931 8.9931 0 0 1 8.559 -5.0174 7.5868 7.5868 0 0 1 5.8507 2.1875 12.569 12.569 0 0 1 2.8299 5.8507l17.76-0.0868a25.451 25.451 0 0 0 -9.566 -17.726c-4.2708-3.2986-9.9826-4.9653-16.944-4.9653-9.2014 0-16.528 3.0382-21.771 9.0278-5.243 5.9896-7.9167 14.236-7.9167 24.514 0 10.278 2.5521 18.212 7.5868 23.993 5.0347 5.7812 12.344 8.6806 21.719 8.6806 7.6389 0 13.785-1.9444 18.247-5.7812 4.4618-3.8368 7.2743-9.1493 8.6806-16.285h-17.361a11.615 11.615 0 0 1 -3.0903 5.3819 8.5243 8.5243 0 0 1 -6.0937 2.0486z"/><path class="cls-1" d="m491.63 279.23-2.4479-13.333a35.347 35.347 0 0 1 -4.3576 0.98958 31.25 31.25 0 0 1 -5.1042 0.38195c-5.2083 0-7.7604-2.7951-7.7604-8.316v-26.215h18.16v-14.219h-18.16v-15h-18.247v54.913a40.903 40.903 0 0 0 1.7361 12.396 14.983 14.983 0 0 0 6.1979 8.2465c3.0035 1.9792 7.3785 2.9861 12.986 2.9861a50.747 50.747 0 0 0 9.0799 -0.72917 56.163 56.163 0 0 0 7.9167 -2.1007z"/><path class="cls-1" d="m500.1 230.44v50.347h18.368v-62.274h-6.3542a11.944 11.944 0 0 0 -12.014 11.927z"/></g><polygon class="cls-1" transform="matrix(1.7361 0 0 1.7361 151 180.44)" points="239.71 57.83 252.64 21.93 241.71 21.93 234.17 47.91 226.82 21.93 215.48 21.93 228.38 57.83"/><g stroke-width="1.7361"><path class="cls-1" d="m403.1 218.39h-19.097l24.774 56.58s-1.059 3.4722-1.5451 4.9653a4.1319 4.1319 0 0 1 -1.6146 2.4132l-0.45139 0.3993a7.8125 7.8125 0 0 1 -5.4167 1.7361 19.878 19.878 0 0 1 -2.9861 -0.22569 35.937 35.937 0 0 1 -3.7847 -0.79861l-2.8125 13.021a36.562 36.562 0 0 0 12.569 2.118 18.733 18.733 0 0 0 9.7222 -2.2569 19.097 19.097 0 0 0 6.4062 -6.7535c3.316-5.5556 27.118-67.222 28.646-71.181h-18.472l-12.274 38.42z"/><path class="cls-1" d="m632.63 224.31-0.26042-0.36458a16.181 16.181 0 0 0 -7.4132 -5.8333 17.587 17.587 0 0 0 -7.5347 -1.5451h-1.3368a26.51 26.51 0 0 0 -18.056 8.8368c-5.2083 5.9896-7.9167 14.236-7.9167 24.514 0 10.278 2.5521 18.212 7.6042 23.993a23.681 23.681 0 0 0 8.8542 6.3715 21.111 21.111 0 0 0 8.1771 1.9618c1.7361 0 4.2535-0.3125 4.2882-0.3125a20.99 20.99 0 0 0 5.9722 -1.9618 21.493 21.493 0 0 0 7.309 -6.2153l0.26042-0.34722v7.3958h18.42v-62.292h-18.368zm1.0069 26.771a30.347 30.347 0 0 1 -0.86805 7.5347 14.531 14.531 0 0 1 -3.1771 6.0243 10.694 10.694 0 0 1 -3.6632 2.8125 11.771 11.771 0 0 1 -5 0.97222 11.128 11.128 0 0 1 -8.8021 -4.2882c-2.3785-2.8472-3.5764-7.6215-3.5764-14.219s1.1806-11.146 3.4722-14.132a11.198 11.198 0 0 1 9.2014 -4.5312 10.573 10.573 0 0 1 8.1944 3.4722 15.382 15.382 0 0 1 3.0556 5.6597 28.872 28.872 0 0 1 1.1285 8.6806z"/><path class="cls-1" d="m509.33 192.37a10.556 10.556 0 1 0 10.538 10.538 10.556 10.556 0 0 0 -10.538 -10.538z"/></g></g><path class="cls-2" d="m151 249.3a69.635 69.635 0 1 0 80.104 -68.854v91.823c0 14.479-10.903 28.108-25.382 28.108s-26.424-10.556-26.424-23.646a25.885 25.885 0 0 1 7.5521 -18.854c6.8403-6.9444 20.556-13.715 27.951-23.385 4.6875-6.1458 5.9722-10.191 5.9722-16.719a26.215 26.215 0 0 0 -25.851 -26.562 34.392 34.392 0 0 0 -15.955 4.2882 48.958 48.958 0 0 0 -18.368 18.507 69.115 69.115 0 0 0 -9.6007 35.295z" fill="#00886f" stroke-width="1.7361"/></g></svg>