<!-- Generator: Adobe Illustrator 28.3.0, SVG Export Plug-In . SVG Version: 6.00 Build 0)  -->
<svg version="1.1" id="Layer_1" xmlns="http://www.w3.org/2000/svg" xmlns:xlink="http://www.w3.org/1999/xlink" x="0px" y="0px"
	 viewBox="0 0 65 44.9" style="enable-background:new 0 0 65 44.9;" xml:space="preserve">
<style type="text/css">
	.st0{fill:#003E51;}
	.st1{fill:#00249C;}
</style>
<g>
	<g>
		<g>
			<path class="st0" d="M6.5,37.9c0.3,0,0.5-0.2,0.5-0.5v0C7,37.1,6.8,37,6.5,37H5.9v1H6.5z M5.2,36.3h1.3c0.7,0,1.2,0.4,1.2,1.1v0
				c0,0.7-0.6,1.1-1.3,1.1H5.9v0.9H5.2V36.3z"/>
		</g>
		<path class="st0" d="M9.7,37.1l0.4,1H9.2L9.7,37.1z M9.3,36.3L8,39.5h0.7L9,38.8h1.3l0.3,0.7h0.7L10,36.3H9.3z"/>
		<polygon class="st0" points="12.2,36.3 12.2,39.5 14.5,39.5 14.5,38.8 12.9,38.8 12.9,36.3 		"/>
		<polygon class="st0" points="15.5,36.3 15.5,39.5 17.8,39.5 17.8,38.8 16.2,38.8 16.2,36.3 		"/>
		<g>
			<path class="st0" d="M20.4,37.9L20.4,37.9c0-0.9,0.7-1.6,1.6-1.6c0.6,0,0.9,0.2,1.2,0.5l-0.4,0.5c-0.2-0.2-0.5-0.4-0.8-0.4
				c-0.5,0-0.9,0.4-0.9,1v0c0,0.5,0.4,1,0.9,1c0.4,0,0.6-0.1,0.8-0.4l0.4,0.4c-0.3,0.3-0.7,0.6-1.3,0.6
				C21.1,39.5,20.4,38.8,20.4,37.9"/>
			<path class="st0" d="M26.8,37.9L26.8,37.9c0-0.5-0.4-1-1-1s-0.9,0.4-0.9,1v0c0,0.5,0.4,1,1,1C26.4,38.9,26.8,38.5,26.8,37.9
				 M24.2,37.9L24.2,37.9c0-0.9,0.7-1.6,1.7-1.6s1.7,0.7,1.7,1.6v0c0,0.9-0.7,1.6-1.7,1.6S24.2,38.8,24.2,37.9"/>
			<path class="st0" d="M29.9,37.9c0.3,0,0.5-0.2,0.5-0.4v0c0-0.3-0.2-0.4-0.5-0.4h-0.7v0.9H29.9z M28.5,36.3H30
				c0.4,0,0.7,0.1,0.9,0.3c0.2,0.2,0.3,0.4,0.3,0.7v0c0,0.5-0.3,0.8-0.7,1l0.8,1.1h-0.8l-0.7-1h-0.5v1h-0.7V36.3z"/>
			<path class="st0" d="M33.5,37.9c0.3,0,0.5-0.2,0.5-0.5v0c0-0.3-0.2-0.5-0.6-0.5h-0.5v1H33.5z M32.3,36.3h1.3
				c0.7,0,1.2,0.4,1.2,1.1v0c0,0.7-0.6,1.1-1.3,1.1h-0.5v0.9h-0.7V36.3z"/>
			<path class="st0" d="M38.2,37.9L38.2,37.9c0-0.5-0.4-1-1-1c-0.6,0-0.9,0.4-0.9,1v0c0,0.5,0.4,1,1,1S38.2,38.5,38.2,37.9
				 M35.6,37.9L35.6,37.9c0-0.9,0.7-1.6,1.7-1.6s1.7,0.7,1.7,1.6v0c0,0.9-0.7,1.6-1.7,1.6S35.6,38.8,35.6,37.9"/>
			<path class="st0" d="M41.2,37.9c0.3,0,0.5-0.2,0.5-0.4v0c0-0.3-0.2-0.4-0.5-0.4h-0.7v0.9H41.2z M39.8,36.3h1.4
				c0.4,0,0.7,0.1,0.9,0.3c0.2,0.2,0.3,0.4,0.3,0.7v0c0,0.5-0.3,0.8-0.7,1l0.8,1.1h-0.8l-0.7-1h-0.5v1h-0.7V36.3z"/>
		</g>
		<path class="st0" d="M44.8,37.1l0.4,1h-0.8L44.8,37.1z M44.5,36.3l-1.3,3.2h0.7l0.3-0.7h1.3l0.3,0.7h0.7l-1.3-3.2H44.5z"/>
		<polygon class="st0" points="46.8,36.3 46.8,37 47.8,37 47.8,39.5 48.5,39.5 48.5,37 49.4,37 49.4,36.3 		"/>
		<rect x="50.5" y="36.3" class="st0" width="0.7" height="3.1"/>
		<g>
			<path class="st0" d="M54.8,37.9L54.8,37.9c0-0.5-0.4-1-1-1c-0.6,0-0.9,0.4-0.9,1v0c0,0.5,0.4,1,1,1S54.8,38.5,54.8,37.9
				 M52.2,37.9L52.2,37.9c0-0.9,0.7-1.6,1.7-1.6s1.7,0.7,1.7,1.6v0c0,0.9-0.7,1.6-1.7,1.6S52.2,38.8,52.2,37.9"/>
		</g>
		<polygon class="st0" points="58.6,36.3 58.6,38.3 57.1,36.3 56.5,36.3 56.5,39.5 57.2,39.5 57.2,37.5 58.7,39.5 59.3,39.5
			59.3,36.3 		"/>
	</g>
	<g>
		<g>
			<g>
				<path class="st1" d="M19.4,11.3H14V21h1.9v-2.6h3.5c2,0,3.3-1.6,3.3-3.6C22.6,12.9,21.3,11.3,19.4,11.3z M19.5,16.5h-3.6v-3.2
					l3.3,0c1.1,0,1.4,0.9,1.4,1.6C20.6,15.7,20.3,16.3,19.5,16.5z"/>
				<g>
					<path class="st1" d="M31.5,30c10.4,0,20.5-3.1,25.1-7.8c1.8-1.8,2.7-3.6,2.7-5.6c0-2.1-1-4.1-2.9-6C51.6,6,42,3.2,31.7,3.4
						C16.6,3.8,5.2,9.4,5.2,16.5c0,2.1,1,4.2,2.9,6.1C12.6,27.1,21.6,30,31.5,30z M7,16.5c0-5.9,11.1-11,24.7-11.3
						c9.8-0.2,18.9,2.4,23.3,6.7c1.5,1.5,2.4,3.1,2.4,4.7c0,6-12.4,11.5-26,11.5c-9.3,0-18-2.7-22.1-6.8C7.8,19.8,7,18.2,7,16.5z"/>
				</g>
				<path class="st1" d="M33,21l-5-9.7h-1.2L22.2,21h2.1l0.9-1.9l4.6,0l1,1.9H33z M26.1,17.2l1.4-2.8l1.4,2.8H26.1z"/>
				<g>
					<polygon class="st1" points="34.6,21 41.9,21 41.9,19.3 36.6,19.3 36.6,11.3 34.6,11.3 					"/>
				</g>
				<g>
					<g>
						<polygon class="st1" points="43.5,21 51.2,21 51.2,19.3 45.5,19.3 45.5,11.3 43.5,11.3 						"/>
					</g>
				</g>
			</g>
		</g>
		<path class="st1" d="M51.2,27.9c0-1.2,1-2,2.1-2c1.1,0,2.1,0.9,2.1,2c0,1.2-1,2.1-2.1,2.1C52.1,30,51.2,29.1,51.2,27.9z
			 M53.3,29.7c0.9,0,1.7-0.7,1.7-1.7c0-1-0.7-1.7-1.7-1.7c-0.9,0-1.7,0.7-1.7,1.7C51.6,28.9,52.3,29.7,53.3,29.7z M52.8,29.1h-0.4
			v-2.4h0.9c0.6,0,0.8,0.2,0.8,0.7c0,0.4-0.3,0.6-0.6,0.6l0.7,1h-0.4l-0.6-1h-0.4V29.1z M53.2,27.8c0.3,0,0.6,0,0.6-0.4
			c0-0.3-0.3-0.3-0.5-0.3h-0.5v0.7H53.2z"/>
	</g>
</g>
</svg>