
<svg version="1.1" id="Layer_1" xmlns="http://www.w3.org/2000/svg" xmlns:xlink="http://www.w3.org/1999/xlink" x="0px" y="0px"
	 viewBox="0 0 1392.1 736.2" style="enable-background:new 0 0 1392.1 736.2;" xml:space="preserve">
<style type="text/css">
	.st0{fill:#007AC2;}
</style>
<g id="Group_458" transform="translate(-5246.114 9785.88)">
	<path id="Path_488" class="st0" d="M5883.7-9785.9l-98.2,137.8c-524.4,179.7-536.3,346.2-527.6,370.3
		c-25.6-48.9-9.1-116.5,45.2-180.5c86.3-102,233.4-182.8,320.6-223.7C5623.7-9682,5782.9-9754.4,5883.7-9785.9z"/>
	<path id="Path_489" class="st0" d="M5719.2-9555.1c0,0-504.7,172.3-444.8,301.2c3.4,6.4,8.1,11.9,13.8,16.3
		c-21.8-29.7,38.7-116,362.8-221.7L5719.2-9555.1"/>
	<path id="Path_490" class="st0" d="M5479.3-9345.6c-75.7,21.6-208.8,80.7-172,120.8c2,2,4.2,3.7,6.6,5.1
		c-32-31.3,165.1-76.4,227.2-85.5l51.4-72.1C5567.5-9371.6,5486.4-9347.6,5479.3-9345.6z"/>
	<g id="Group_390" transform="translate(5632.67 -9403.25)">
		<path id="Path_485" d="M237.1,47.9c-43.3,0-73.3,40.7-73.3,78c0,32.6,22.6,54,56.1,54c18.3,0.2,36-6.5,49.6-18.8l0.8-0.7
			l-11.1-13.8l-0.9,0.7c-10.2,9.4-23.7,14.6-37.6,14.5c-18.8,1.3-35.1-12.9-36.4-31.7c0,0,0,0,0,0c-0.1-1.6-0.1-3.1,0-4.7v-3.2h97
			v-0.7c3-7.8,4.6-16.1,4.6-24.4c1.5-25.5-17.9-47.5-43.4-49c0,0,0,0,0,0C240.7,47.9,238.9,47.9,237.1,47.9z M265.2,104.9h-77.3
			c8.1-23.7,26.6-39.1,48.3-39.1c15.6-1,29,10.9,30,26.5c0.1,1.5,0.1,2.9-0.1,4.4c0,0-0.7,6.7-0.8,8.1L265.2,104.9z M166,40.7
			C153.4,17.2,128.5,3,101.9,4C47.6,4,0,52.8,0,109.4c0,41.6,29.9,70.7,72.6,70.7c25.2,0.3,49.4-9.9,66.6-28.3l0.7-0.8l-14.2-14
			l-0.8,0.7c-13.2,14.4-31.8,22.5-51.3,22.4c-26.9,1.5-50-19.1-51.5-46c0,0,0,0,0-0.1c-0.1-1.8-0.1-3.5,0-5.3
			c0-45.2,36.5-84.9,78.1-84.9c20.1-1.1,38.9,9.9,47.8,27.9l0.6,1.1l18.2-11.2L166,40.7z M948.6,0c0,0-19.1,71.5-20.5,77
			c-8.1-18.2-26.5-29.6-46.3-28.7c-38.4,0-70.7,35.8-70.7,78.1c0,31.1,21.2,53.7,50.3,53.7c17.3-0.4,33.6-8.3,44.8-21.5
			c-1.4,5.1-4.9,18.6-4.9,18.6H922L969.2,0L948.6,0z M866.4,161.3c-20.3,0-34-14.7-34-36.7c0-31.9,22.8-57.9,50.7-57.9
			c19.9-0.7,36.6,14.9,37.3,34.8v2.4C920.5,132.9,893.8,161.3,866.4,161.3L866.4,161.3z M390.6,47.9c-17.3,0.5-33.6,8.3-44.9,21.5
			l5-18.9h-20.9l-44,164.5h20.9c0,0,16.3-59.8,17.2-64.5c8.1,18.3,26.6,29.8,46.6,29c38.3,0,70.7-35.7,70.7-78.1
			C440.9,69.9,420.2,47.9,390.6,47.9z M368.5,161.1c-20,0.6-36.8-15.2-37.4-35.2c0,0,0,0,0,0v-2.3c0-28.8,26.9-57,54.1-57
			c20.6,0,34,14.4,34,36.8C419.4,135.1,396.5,161.1,368.5,161.1z M680.5,47.9c-43.2,0-73.3,40.7-73.3,78c0,32.6,22.6,54,56.2,54
			c18.1,0.1,35.6-6.6,49.1-18.8l0.7-0.7l-10.7-13.8l-0.8,0.7c-10.2,9.4-23.7,14.6-37.6,14.5c-18.8,1.3-35.1-12.9-36.4-31.7
			c0,0,0,0,0,0c-0.1-1.6-0.1-3.1,0-4.7v-3.2h96.8v-0.7c3-7.8,4.5-16.1,4.7-24.4c1.5-25.6-18.1-47.5-43.7-49
			C683.9,47.9,682.2,47.9,680.5,47.9z M708.6,104.9h-77.5c8.1-23.7,26.6-39.1,48.4-39.1c15.6-0.9,29,11,29.9,26.6
			c0.1,1.4,0.1,2.8,0,4.2c0,0-0.6,6.7-0.7,8.1L708.6,104.9z M741.1,177.1h21L796.6,51h-21L741.1,177.1z M787.2,3.5L781,26.1h23.7
			l6.2-22.6H787.2z M544.2,48.3c-15.8,0.5-30.7,7.9-40.7,20.1L521.7,0h-20.9L453,177.2h20.9l18.8-71.4c6.3-22.7,24.4-39.2,43.9-39.2
			c16.7,0,26.8,9.3,26.8,24.8c0,4.6-0.7,9.2-1.9,13.6l-19.1,71.6h20.9l19-69.5c1.8-6.3,2.9-12.9,3.2-19.5
			c1.1-20.8-14.8-38.5-35.6-39.7c-1.9-0.1-3.7-0.1-5.6,0.1L544.2,48.3z"/>
		<path id="Path_486" d="M982.6,131.3c-12.7,0-23,10.2-23,22.9c0,0,0,0,0,0v0.4l0,0c0,12.7,10.4,22.9,23,22.9
			c12.7,0,22.9-10.4,22.9-23c0-12.6-10.3-22.9-23-22.9L982.6,131.3z M982.6,173.2c-10.4,0.1-18.9-8.3-19-18.8
			c-0.1-10.4,8.3-18.9,18.8-19c10.4-0.1,18.9,8.3,19,18.7l0,0c0.2,10.3-7.9,18.8-18.2,19c0,0,0,0,0,0L982.6,173.2L982.6,173.2z"/>
		<path id="Path_487" d="M973,141.3v24.4h5.6v-8.1h4.1l6.4,8.1h7l-7.5-9.8c3-0.9,5.1-3.7,5.2-6.8c0.1-2-0.7-3.9-2.1-5.2
			c-2-1.9-4.7-2.8-7.4-2.7L973,141.3z M984,146.5c1,0,4,0,4,2.8s-3.2,3-4.2,3h-5.3v-5.8L984,146.5z"/>
		<path id="Path_491" d="M308,327.5l-3.3-23.8h-32.6l-12.4,23.8l-10.3-0.6l44.7-80.4h12.2l12.8,80.4L308,327.5z M299.3,261.4
			c-0.4-2.5-0.7-5-0.8-7.6c0-0.2-1.9,4.1-3.7,7.6l-18.6,34.4h27.7L299.3,261.4z"/>
		<path id="Path_492" d="M376.7,273.1c-0.6,3.3-1.6,6.8-1.6,6.8c5-7.2,12.8-12,21.4-13.4c12.5,0,16.3,9.6,16.3,19.9
			c0,16.8-9.3,41.8-28.9,41.8c-6.2,0-12.2-2.4-16.7-6.7c-0.6,2.6-1.5,5.4-1.5,5.4h-10.1c0,0,3.8-12.9,5.7-23.3l11.9-61.3l9.9-2.2
			L376.7,273.1z M368.5,314.6c4.5,3.4,9.9,5.2,15.5,5.3c13.3,0,17.9-22.1,17.9-32.6c0-6.4-1.8-12.4-9-12.4c-5.6,0-13,6.8-19.4,14.2
			L368.5,314.6z"/>
		<path id="Path_493" d="M435,303.7c-0.1,1.5-0.1,3,0,4.5c0,7.3,2.3,12,10.1,12c8.1-0.9,15.8-3.9,22.3-8.8l-1.6,9.2
			c-7.1,4.6-15.2,7.2-23.7,7.6c-13.8,0-17.5-8.8-17.5-19c0-18.9,10.3-42.7,32.6-42.7c8.1,0,17.8,4.2,17.8,12.9
			C474.2,298.1,440.2,303.1,435,303.7z M463.8,280.6c0-4-3.7-6.3-9-6.3c-11.5,0-16.9,11.8-19,23C442.3,296,463.8,291.5,463.8,280.6
			L463.8,280.6z"/>
		<path id="Path_494" d="M522.5,275.6h-16.3l-7.3,37.6c-0.1,1.1-0.1,2.2,0,3.3c0,2.6,1.1,3.8,4.1,3.8c4.6-0.7,9-2.2,13-4.4l-1.1,8.1
			c-5,2.8-10.6,4.3-16.3,4.6c-7.6,0-10-3-10-8.6c0-2.2,0.3-4.3,0.7-6.4l7.6-37.6h-12.4l1.2-6.3l11.9-1.8l5.9-14.2h7.2l-3.5,14.5
			h16.3L522.5,275.6z"/>
		<path id="Path_495" d="M567.5,275.6h-16.3l-7.3,37.6c-0.1,1.1-0.1,2.2,0,3.3c0,2.6,1.1,3.8,4.2,3.8c4.5-0.7,8.9-2.2,12.9-4.4
			l-1.1,8.1c-5,2.8-10.6,4.3-16.3,4.6c-7.6,0-10-3-10-8.6c0-2.2,0.2-4.3,0.7-6.4l7.6-37.6h-11.6l1.2-6.3l11.8-1.8l5.8-14.2h7.2
			l-3.5,14.6h16.3L567.5,275.6z"/>
		<path id="Path_496" d="M584.1,303.7c-0.1,1.5-0.1,3,0,4.5c0,7.3,2.2,12,10.1,12c8-0.9,15.7-3.9,22.1-8.8l-1.6,9.2
			c-7.1,4.6-15.2,7.2-23.7,7.6c-13.8,0-17.4-8.8-17.4-19c0-18.9,10.3-42.7,32.6-42.7c8.1,0,17.7,4.2,17.7,12.9
			C622.9,298.1,589.3,303.1,584.1,303.7z M613,280.5c0-4-3.8-6.3-9-6.3c-11.6,0-17,11.8-19.1,23C591.4,296,613,291.5,613,280.5
			L613,280.5z"/>
		<path id="Path_497" d="M650.4,275.2c4.1-4.6,9.6-7.6,15.6-8.6c1.7,0,3.3,0.2,5,0.5l-2.6,8.8c-1.8-0.3-3.7-0.5-5.6-0.7
			c-2.7,0-5.1,0.8-13.7,8.1l-8.1,43.7h-9.9l9.1-46.4c0.7-4.2,1.1-8.5,1.3-12.8h9.8C651.2,270.4,650.9,272.8,650.4,275.2z"/>
		<path id="Path_498" d="M756.8,326.9H745l-1.9-34.4v-12.4c0,0-2.3,7-4.6,12.4L723.2,327H711l-5.9-59.1l10.9-0.4l2.8,40.7v10.7
			c0,0.2,2.6-7.2,4.2-10.9l17.4-40.1h10.5c0,0,1.7,39,1.7,40.1v10.9c0,0.3,2.6-6.5,4.5-10.4l19.2-40.7l10.7,0.5L756.8,326.9z"/>
		<path id="Path_499" d="M803,328.2c-11.9,0-15.1-9.6-15.1-19.8c0-17.8,9.7-41.9,30.5-41.9c5.1,0.1,10.1,1.7,14.2,4.6
			c0.7-1.7,1.4-3.3,1.4-3.3h8.7c0,0-1,3.7-2.1,9l-5.1,25.4c-1.2,8.1-2.1,16.2-2.5,24.4H823c0-4,0.4-8,1.1-11.9
			C819.6,322.3,811.8,327.2,803,328.2z M816.9,274.2c-13.7,0-18.6,20.9-18.6,32c0,6.8,1.4,13.6,8.1,13.6c5,0,11.6-5.5,18.6-14.2
			c1.1-5.9,2.8-14.7,5.6-27.5C826.4,275.5,821.6,274.1,816.9,274.2L816.9,274.2z"/>
		<path id="Path_500" d="M868.6,337.4c-2.8,5.3-7,9.7-12.1,12.7c-3.7,1.8-7.7,3-11.8,3.5v-8.1c6.5-0.8,12.2-4.7,15.5-10.3l4.5-7.5
			l-11-59.9l10.6-0.4l6.2,38.7c0.3,2.7,0.5,5.4,0.5,8.1v3.9l26.8-50l10.2,0.7L868.6,337.4z"/>
		<path id="Path_501" d="M907.4,328.2c-3.2,0.2-6-2.2-6.2-5.3c0,0,0,0,0,0c0-0.3,0-0.6,0-0.8c-0.3-4.5,3.1-8.3,7.6-8.6c0,0,0,0,0,0
			h0.5c3.2-0.2,5.9,2.2,6.1,5.4c0,0.3,0,0.5,0,0.8c0.3,4.5-3.1,8.3-7.6,8.6c0,0,0,0,0,0H907.4z"/>
	</g>
</g>
</svg>
