<svg version="1.1" id="layer" xmlns="http://www.w3.org/2000/svg" xmlns:xlink="http://www.w3.org/1999/xlink" x="0px" y="0px"
	 viewBox="0 0 652 241" style="enable-background:new 0 0 652 241;" xml:space="preserve">
<style type="text/css">
	.st0{fill:#FED400;}
	.st1{fill:#F49C00;}
	.st2{fill:#ED7100;}
</style>
<polygon class="st0" points="22.2,186.2 71.2,186.2 71.2,158.6 46.4,144.3 "/>
<polygon class="st0" points="120.2,16.5 96,58.4 120.8,72.7 144.7,58.9 "/>
<polygon class="st0" points="21.6,72.7 46.4,115.6 71.2,101.3 71.2,72.7 "/>
<polygon class="st0" points="96,58.4 71.2,44.1 71.2,72.7 87.7,72.7 "/>
<polygon class="st0" points="71.2,186.2 71.2,213.7 95.1,200 87.1,186.2 "/>
<polygon class="st0" points="21.6,130 21.6,130 46.4,144.3 54.7,129.9 46.4,115.6 "/>
<polygon class="st0" points="169.2,101.3 185.8,72.7 152.6,72.7 "/>
<polygon class="st1" points="120.8,72.7 120.8,72.7 96,58.4 87.7,72.7 "/>
<polygon class="st1" points="71.2,158.6 71.2,186.2 87.1,186.2 "/>
<polygon class="st1" points="87.1,186.2 95.1,200 119,186.2 "/>
<polygon class="st1" points="87.7,72.7 71.2,72.7 71.2,101.3 "/>
<polygon class="st1" points="71.2,158.6 54.7,129.9 46.4,144.3 "/>
<polygon class="st1" points="120.8,72.7 152.6,72.7 144.7,58.9 "/>
<polygon class="st1" points="71.2,101.3 46.4,115.6 54.7,129.9 "/>
<polygon class="st2" points="71.2,158.6 87.1,186.2 119,186.2 "/>
<polygon class="st2" points="120.8,72.7 87.7,72.7 71.2,101.3 "/>
<polygon class="st2" points="54.7,129.9 71.2,158.6 71.2,101.3 "/>
<polygon class="st2" points="152.6,72.7 120.8,72.7 169.2,101.3 "/>
<path d="M213.9,72.7h-18v113.5h18V72.7z M349.2,165.3c-3.2,3.5-9.3,7.8-16.9,7.8c-9.6,0-17.2-6.5-18.2-15.9h46.6
	c0.3-1.5,0.4-3.3,0.4-5.1c0-18.7-13.2-34.4-31.7-34.4c-19.9,0-32.7,16.3-32.7,35.1c0,21.1,15.1,34.9,35.2,34.9
	c10.4,0,21.1-4.3,27.6-12L349.2,165.3z M315,143.9c0.8-6.1,6.9-11.8,14.4-11.8c7.3,0,12.8,5.8,13.3,11.8H315z M375.2,119h-18.7
	l30.9,67.2h12.5l30.9-67.2h-18.7l-18.4,41L375.2,119z M477.9,118.2c-1.9-0.3-3.5-0.6-6.1-0.6c-8.2,0-14.8,2.4-18.8,7.4v-6h-18v67.2
	h18v-42.3c2.2-4,8.5-9.7,16.3-9.7c2.6,0,5.3,0.3,6.5,0.7L477.9,118.2z M513,117.6c-20.4,0-35.7,15.7-35.7,35.1s15.4,34.9,35.7,34.9
	c20.4,0,35.8-15.5,35.8-34.9C548.7,133.3,533.3,117.6,513,117.6 M513,170.9c-10.5,0-17.7-8.2-17.7-18.3c0-10.1,7.2-18.4,17.7-18.4
	s17.7,8.3,17.7,18.4C530.7,162.8,523.5,170.9,513,170.9 M573.1,186.2v-43.6c2.5-3.5,8.7-8.3,16.4-8.3c4.2,0,7.8,1.4,10.1,3.7
	c2.5,2.5,4,6,4,12.6v35.6h18V152c0-11.5-2.5-18.3-6.9-23.6c-5.5-6.6-14-10.8-23.3-10.8c-7.5,0-13.2,2-18.3,6.2V119h-18v67.2H573.1z
	 M290.3,72.7v113.5h-18v-4.9c-5.4,4.3-11.5,6.3-18,6.3c-10,0-19.4-4.4-25.4-11.4c-5.3-6.1-8.6-14.4-8.6-23.5
	c0-19.8,14.7-35.1,33-35.1c7.3,0,13.7,2.1,19,6.2V72.7L290.3,72.7L290.3,72.7z M257.4,170.9c10.5,0,17.7-8.2,17.7-18.3
	c0-10.1-7.2-18.4-17.7-18.4c-0.2,0-0.4,0-0.6,0c-0.4,0-0.7,0-1.1,0c-10.5,0-17.3,8.7-17.3,18.4c0,10.5,7.6,18.3,17.7,18.3
	c0.3,0,0.5,0,0.8,0C257.1,170.9,257.2,170.9,257.4,170.9 M187.3,119.3v66.9h-17.4h-0.7v-4.9c-5.4,4.3-11.5,6.3-18,6.3
	c-10,0-19.4-4.4-25.4-11.4c-5.3-6.1-8.6-14.4-8.6-23.5c0-19.8,14.7-35.1,33-35.1c7.3,0,13.7,2.1,19,6.2v-4.6h18.1V119.3L187.3,119.3
	z M154.4,170.9c10.5,0,17.7-8.2,17.7-18.3c0-10.1-7.2-18.4-17.7-18.4c-0.2,0-0.4,0-0.6,0c-0.4,0-0.7,0-1.1,0
	c-10.5,0-17.3,8.7-17.3,18.4c0,10.5,7.6,18.3,17.7,18.3c0.3,0,0.5,0,0.8,0C154,170.9,154.2,170.9,154.4,170.9"/>
</svg>