
<svg width="118" height="42" viewBox="0 0 118 42" fill="none" xmlns="http://www.w3.org/2000/svg">
<path d="M30.9878 15.4528C29.4321 15.4528 28.6133 16.7629 28.6133 16.7629V16.6196C28.6133 16.1078 28.2142 15.6575 27.7229 15.6575H27.027V21.6653C27.027 22.5966 27.3238 23.2004 28.2142 23.2004H28.685V18.7484C28.685 17.643 29.4014 16.7629 30.5067 16.7629C31.479 16.7629 31.9498 17.2746 31.9805 18.4516V21.7267C31.9908 22.6171 32.2978 23.1902 33.1575 23.1902H33.6385V18.0115C33.6488 16.3228 32.6151 15.4528 30.9878 15.4528Z" fill="#565655"/>
<path d="M50.7713 14.3168C50.7713 13.3854 50.4745 12.7816 49.5841 12.7816H49.1133C49.1133 12.7816 49.1133 16.5274 49.1133 16.6298C48.5811 15.8212 47.5269 15.4528 46.5751 15.4528C44.9273 15.4528 43.3103 16.6503 43.3103 19.3727C43.3103 21.6345 44.4668 23.3949 46.8412 23.3949C48.2127 23.3949 48.8779 22.7194 49.1543 22.1872C49.2566 22.8013 49.5841 23.18 50.2903 23.1902C50.2903 23.1902 50.5052 23.1902 50.7713 23.1902V14.3168ZM47.0562 22.0848C45.6131 22.0848 44.9785 20.8055 44.9785 19.5057C44.9785 18.1547 45.5312 16.7628 47.0869 16.7628C48.3662 16.7628 49.1747 17.7556 49.1747 19.4136C49.1645 20.7236 48.5402 22.0848 47.0562 22.0848Z" fill="#565655"/>
<path d="M55.7863 15.4528H54.5582C53.8417 15.4528 53.2686 16.026 53.2686 16.7424V16.7731H55.7863C56.4311 16.7731 57.2192 16.9778 57.2192 17.7863C57.2192 18.7586 56.2162 18.6972 54.9676 18.8405C53.5859 19.0145 52.0609 19.3215 52.0609 21.1945C52.0609 22.6682 53.2891 23.3949 54.64 23.3949C55.5202 23.3949 56.5846 23.1186 57.2396 22.484C57.3932 22.9241 57.7207 23.18 58.2938 23.1902H58.7748V17.6328C58.7851 16.0567 57.2499 15.4528 55.7863 15.4528ZM57.1271 20.478C57.1271 21.4196 56.1343 22.0644 55.2541 22.0644C54.6707 22.0644 53.811 21.8802 53.7292 21.1228C53.637 20.2529 54.3739 19.9868 55.0904 19.8742C55.817 19.7411 56.6256 19.7616 57.1373 19.4239V20.478H57.1271Z" fill="#565655"/>
<path d="M17.2529 18.5744H14.2132C12.8929 18.5744 13.026 19.6695 13.026 19.864C13.0976 19.864 15.7074 19.864 15.7074 19.864C15.3799 21.3173 14.1722 22.0337 12.7599 22.0337C10.6822 22.0337 9.39266 20.2222 9.39266 18.3697C9.39266 16.507 10.6822 14.675 12.7599 14.675C13.2921 14.675 14.0085 14.7978 14.4281 15.0434C14.643 15.1663 14.8887 15.2174 15.1548 15.2174C15.6153 15.2174 16.0452 15.0127 16.3215 14.6852C15.5539 13.7641 14.1211 13.2831 12.7496 13.2831C9.84298 13.2831 7.68347 15.4426 7.68347 18.3697C7.68347 21.307 9.84298 23.4461 12.7496 23.4461C14.0904 23.4461 15.0422 23.0674 15.7177 22.525C15.8814 22.9446 16.1987 23.2005 16.7821 23.2005H17.2529V18.5744Z" fill="#565655"/>
<path d="M22.2371 15.4733C19.9958 15.4733 18.5936 17.3053 18.5936 19.4545C18.5936 21.7778 19.9958 23.4154 22.36 23.4154C23.5574 23.4154 25.1233 22.8627 25.7169 21.9211L25.7067 21.9109C25.5225 21.5834 25.1745 21.3582 24.7651 21.3582C24.3762 21.3582 24.1817 21.5424 24.0691 21.6141C23.6802 21.9211 22.8819 22.1053 22.3497 22.1053C20.9681 22.1053 20.2516 21.0511 20.2516 19.8742H25.7988C26.0751 17.6123 24.6116 15.4733 22.2371 15.4733ZM22.2371 16.7833C23.2811 16.7833 23.977 17.6123 24.1101 18.5744H20.2721C20.4051 17.5509 21.1625 16.7833 22.2371 16.7833Z" fill="#565655"/>
<path d="M38.5 15.4733C36.2484 15.4733 34.8565 17.3053 34.8565 19.4545C34.8565 21.7778 36.2586 23.4154 38.6228 23.4154C39.8203 23.4154 41.3862 22.8627 41.9798 21.9211L41.9696 21.9109C41.7853 21.5834 41.4374 21.3582 41.028 21.3582C40.6391 21.3582 40.4446 21.5424 40.332 21.6141C39.9431 21.9211 39.1448 22.1053 38.6126 22.1053C37.2207 22.1053 36.5145 21.0511 36.5145 19.8742H42.0514C42.338 17.6123 40.8744 15.4733 38.5 15.4733ZM38.5 16.7833C39.5439 16.7833 40.2399 17.6123 40.373 18.5744H36.535C36.6578 17.5509 37.4151 16.7833 38.5 16.7833Z" fill="#565655"/>
<path d="M62.1932 15.4426V14.327C62.183 13.4673 61.487 12.7816 60.6273 12.7816H60.5352V21.6652C60.5352 22.5966 60.832 23.2004 61.7224 23.2004H62.1932V16.7731H63.145C63.8512 16.7731 64.4244 16.1999 64.4244 15.4937V15.4426H62.1932Z" fill="#565655"/>
<path d="M67.9346 15.4528H66.7065C66.0003 15.4528 65.4169 16.026 65.4169 16.7424V16.7731H67.9346C68.5896 16.7731 69.3675 16.9778 69.3675 17.7863C69.3675 18.7586 68.3747 18.6972 67.1158 18.8405C65.7342 19.0145 64.2092 19.3215 64.2092 21.1945C64.2092 22.6682 65.4374 23.3949 66.7883 23.3949C67.6685 23.3949 68.7329 23.1186 69.3879 22.484C69.5414 22.9241 69.8587 23.18 70.4421 23.1902H70.9231V17.6328C70.9334 16.0567 69.3982 15.4528 67.9346 15.4528ZM69.2651 20.478C69.2651 21.4196 68.2724 22.0644 67.3922 22.0644C66.8088 22.0644 65.9491 21.8802 65.8672 21.1228C65.7751 20.2529 66.512 19.9868 67.2182 19.8742C67.9448 19.7411 68.7534 19.7616 69.2651 19.4239V20.478Z" fill="#565655"/>
<path d="M99.4473 19.1475C99.4473 17.0392 98.6285 15.0537 97.1343 13.5696C93.7671 10.2025 88.2916 10.2025 84.9346 13.5696C81.2501 17.2541 81.2501 23.2414 84.9346 26.9259C86.8178 28.809 89.315 29.8837 91.9863 29.9553L92.0579 27.3864C90.0519 27.3353 88.179 26.5267 86.7564 25.1143C84.0851 22.4329 84.0851 18.0831 86.7564 15.4017C89.1206 13.0374 92.9586 13.0374 95.3125 15.4017C95.681 15.7701 95.988 16.1795 96.2234 16.6093C96.8784 17.8477 98.0452 18.7893 99.4473 19.1475Z" fill="#47779B"/>
<path d="M103.858 5.07487L103.603 5.44332C108.208 9.60882 110.419 16.4967 105.005 20.7237C105.005 28.6146 98.8946 33.5784 92.5696 33.5784C85.999 33.5784 79.3055 29.2798 79.3055 21.133C79.3055 16.7219 81.332 13.4366 83.0002 11.7786C85.0983 9.68046 87.8924 8.52395 90.8707 8.52395C93.8387 8.52395 96.6328 9.68046 98.7309 11.7786C100.675 13.7129 101.689 16.3023 101.586 19.0452C103.725 18.1548 105.23 16.0464 105.23 13.5901C105.23 12.3619 104.851 11.2259 104.217 10.2741C103.695 9.49624 103.091 8.76958 102.415 8.09409C99.3143 5.01347 95.2102 3.31451 90.8502 3.31451C86.4902 3.31451 82.3862 5.01347 79.3055 8.09409C75.9383 11.4613 74.0756 15.9441 74.0756 20.7134C74.0859 31.8385 82.3043 38.7776 92.5594 38.7776C103.357 38.7776 110.337 30.0679 110.337 20.5497C110.337 15.2174 109.211 9.9261 103.858 5.07487Z" fill="#47779B"/>
</svg>
