<svg id="Layer_1" data-name="Layer 1" xmlns="http://www.w3.org/2000/svg" xmlns:xlink="http://www.w3.org/1999/xlink" viewBox="0 0 2500 392.08">
  <defs>
    <style>
      .cls-1 {
        clip-path: url(#clippath);
      }

      .cls-2 {
        fill: none;
      }

      .cls-2, .cls-3 {
        stroke-width: 0px;
      }

      .cls-4 {
        clip-path: url(#clippath-1);
      }

      .cls-3 {
        fill: #5a9db9;
      }
    </style>
    <clipPath id="clippath">
      <rect class="cls-2" x="16.86" y="21.31" width="2466.28" height="349.46"/>
    </clipPath>
    <clipPath id="clippath-1">
      <rect class="cls-2" x="-353.19" y="-246.03" width="3206.38" height="884.14"/>
    </clipPath>
  </defs>
  <g class="cls-1">
    <g class="cls-4">
      <path class="cls-3" d="M16.86,111.82h115.75c19.05,0,36.44,1.67,50.46,17.85,8.59,10,10.97,22.63,10.97,32.38,0,12.86-4.3,28.1-16.2,37.17-9.05,6.9-20.72,9.28-27.4,10.48l50.99,70.27h-49.53l-45.02-67.66h-47.87v67.66H16.86V111.82ZM59.01,182.54h67.15c9.04,0,25.25-1.19,25.25-20.02,0-3.32-.47-9.03-3.34-13.09-3.07-4.05-7.13-8.1-23.8-8.1H59.01v41.21Z"/>
      <path class="cls-3" d="M290.92,111.81h45.5l81.21,168.15h-47.16l-14.27-31.68h-86.22l-14.29,31.68h-45.97l81.2-168.15ZM317.6,163.48c-1.19-2.13-2.15-4.52-2.85-6.66-.74-2.14-1.21-4.29-1.43-6.67-.73,2.15-1.22,4.05-1.69,5.94-.95,2.15-1.66,4.31-2.61,6.43l-25.48,55.98h59.06l-25-55.03Z"/>
      <path class="cls-3" d="M436.88,111.82h91.93c6.18.23,12.36.23,18.57.95,49.06,4.52,73.36,38.81,73.36,82.17,0,19.3-4.76,38.34-16.45,53.83-23.57,30.7-55.25,30.94-80.72,31.2h-86.68V111.82ZM478.79,141.58v108.6h46.45c14.98-.23,32.13-.49,43.32-16.44,5.02-6.91,10.25-18.57,10.25-39.77,0-15.95-3.57-26.91-8.34-34.54-10.95-17.37-28.56-17.61-43.09-17.84h-48.58Z"/>
      <rect class="cls-3" x="652.01" y="111.81" width="42.15" height="168.15"/>
      <path class="cls-3" d="M915.92,139.19c6.9,8.34,18.09,26.91,18.09,55.01,0,53.58-34.78,91.23-102.63,91.23s-103.83-36.92-103.83-89.31c0-57.87,41.42-87.16,96.7-89.54,33.08-1.44,70.72,7.13,91.68,32.61M770.87,197.07c0,20.48,7.63,31.2,10.73,35.25,4.04,5.71,16.43,23.1,49.06,23.1,39.3,0,60.24-26.67,60.24-59.07,0-37.62-28.36-60.73-61.93-59.55-28.09.95-58.1,19.53-58.1,60.26"/>
      <path class="cls-3" d="M961.4,111.81h60.73l43.83,102.87c4.52,10.95,6.2,15.49,8.58,25.01,1.66-7.14,3.1-11.42,7.87-23.1l43.81-104.78h60.23v168.15h-39.74v-117.67c0-4.99.7-9.27,1.65-15.71-1.65,5-2.38,6.91-4.78,12.85l-50.23,120.53h-38.37l-50.23-118.13c-2.61-6.44-3.11-8.34-5-15.25.71,7.14.94,8.58,1.43,15.01v118.37h-39.79V111.81Z"/>
      <polygon class="cls-3" points="1225.27 111.81 1381.96 111.81 1381.96 142.07 1267.44 142.07 1267.44 179.92 1378.13 179.92 1378.13 209.69 1267.44 209.69 1267.44 249.95 1386.74 249.95 1386.74 279.96 1225.27 279.96 1225.27 111.81"/>
      <polygon class="cls-3" points="1402.22 111.81 1569.16 111.81 1569.16 142.54 1506.76 142.54 1506.76 279.96 1464.61 279.96 1464.61 142.54 1402.22 142.54 1402.22 111.81"/>
      <polygon class="cls-3" points="1595.98 111.81 1752.69 111.81 1752.69 142.07 1638.14 142.07 1638.14 179.92 1748.88 179.92 1748.88 209.69 1638.14 209.69 1638.14 249.95 1757.47 249.95 1757.47 279.96 1595.98 279.96 1595.98 111.81"/>
      <path class="cls-3" d="M1790.16,111.82h115.73c19.05,0,36.44,1.67,50.49,17.85,8.59,10,10.97,22.63,10.97,32.38,0,12.86-4.29,28.1-16.22,37.17-9.04,6.9-20.71,9.28-27.35,10.48l50.94,70.27h-49.52l-45.02-67.66h-47.85v67.66h-42.16V111.82ZM1832.32,182.54h67.15c9.04,0,25.23-1.19,25.23-20.02,0-3.32-.47-9.03-3.32-13.09-3.1-4.05-7.13-8.1-23.81-8.1h-65.25v41.21Z"/>
      <path class="cls-3" d="M2110.3,204.6h-53.34v50.39h64.44c-6.28-15.72-10.14-32.66-11.09-50.39M2121.39,137.08h-64.44v50.38h53.34c.95-17.72,4.81-34.66,11.09-50.38M2269.12,355.1c-60.3,0-112.74-33.55-139.72-82.99h-72.45v98.66h426.19v-166.17h-55.19c-4.46,83.86-73.87,150.48-158.83,150.5M2056.95,21.31v98.64h72.45c26.98-49.43,79.42-82.98,139.72-82.98,84.96,0,154.35,66.63,158.83,150.49h55.19V21.31h-426.19ZM2269.12,337.97c78.36-.15,141.79-63.57,141.9-141.94-.11-78.38-63.55-141.79-141.9-141.93-78.38.14-141.79,63.55-141.92,141.93.13,78.4,63.54,141.79,141.92,141.94M2189.97,117.06l.57-.03c13.13-.44,102.4-1.13,107.61-1.13,18.3,0,30.15,2.27,39.11,7.32,11.9,6.86,18.11,19.51,18.11,36.3v.1c0,.05,0,.14,0,.17-.03,22.4-12.52,37.99-34.71,43.73l-.77.21.4.7,42.55,70.67h-25.34l-39.69-70.2h-63.45v-17.77l.58.03c23.04.06,53.63.06,58.47.06,16.46,0,24.22-1.37,29.46-4.85,6.33-4.15,9.65-11.58,9.67-22.07-.09-18.64-9.67-26.38-33.72-26.48-.09,0-73.14.21-86.98.43h-.58v140.86h-21.28V117.06Z"/>
    </g>
  </g>
</svg>