<svg version="1.1" xmlns="http://www.w3.org/2000/svg" width="90" height="60">
<path d="M0 0 C29.7 0 59.4 0 90 0 C90 19.8 90 39.6 90 60 C60.3 60 30.6 60 0 60 C0 40.2 0 20.4 0 0 Z " fill="#F5F7F8" transform="translate(0,0)"/>
<path d="M0 0 C3.95131518 3.28867226 6.51584876 5.83349812 7.32421875 11.1328125 C7.17792636 15.81416913 5.13919522 18.35272633 1.9375 21.625 C-10.07093767 31.67155647 -28.18856748 33.47318769 -43.23828125 32.4453125 C-53.68034521 31.05958405 -64.5743364 28.10925735 -72.23828125 20.4453125 C-74.81803599 16.35328775 -75.94228569 13.27277152 -75.23828125 8.4453125 C-71.92184946 1.52406355 -65.34376165 -2.43062048 -58.42578125 -5.3046875 C-40.45525844 -11.27132474 -15.97279492 -11.09454168 0 0 Z " fill="#F8F9FC" transform="translate(79.23828125,10.5546875)"/>
<path d="M0 0 C3.95131518 3.28867226 6.51584876 5.83349812 7.32421875 11.1328125 C7.17792636 15.81416913 5.13919522 18.35272633 1.9375 21.625 C-10.07093767 31.67155647 -28.18856748 33.47318769 -43.23828125 32.4453125 C-53.68034521 31.05958405 -64.5743364 28.10925735 -72.23828125 20.4453125 C-74.81803599 16.35328775 -75.94228569 13.27277152 -75.23828125 8.4453125 C-71.92184946 1.52406355 -65.34376165 -2.43062048 -58.42578125 -5.3046875 C-40.45525844 -11.27132474 -15.97279492 -11.09454168 0 0 Z M-70.80078125 5.8828125 C-72.59101041 9.07409057 -72.76491405 10.83411618 -72.23828125 14.4453125 C-68.97253315 20.99734799 -63.2289355 23.95170058 -56.53515625 26.45703125 C-54.11227325 27.20058067 -51.70595213 27.8688314 -49.23828125 28.4453125 C-48.47644531 28.62835938 -47.71460937 28.81140625 -46.9296875 29 C-32.42103156 31.40056136 -14.79122552 29.41160406 -2.23828125 21.4453125 C0.63857078 18.90442571 0.63857078 18.90442571 2.76171875 16.4453125 C3.25671875 15.9503125 3.25671875 15.9503125 3.76171875 15.4453125 C4.26067864 11.20415346 4.10473207 9.01700136 1.88671875 5.3203125 C-5.63161624 -2.69067692 -18.00157602 -5.33996921 -28.515625 -5.79296875 C-43.35922197 -6.14396757 -59.48997652 -4.87624566 -70.80078125 5.8828125 Z " fill="#1939A5" transform="translate(79.23828125,10.5546875)"/>
<path d="M0 0 C9.625 -0.25 9.625 -0.25 13 2 C13.3125 5.5 13.3125 5.5 13 9 C11 11 11 11 9.0546875 11.1953125 C7.03645833 11.13020833 5.01822917 11.06510417 3 11 C3 12.32 3 13.64 3 15 C2.01 15 1.02 15 0 15 C0 10.05 0 5.1 0 0 Z " fill="#1838A5" transform="translate(17,14)"/>
<path d="M0 0 C0.66 0 1.32 0 2 0 C3.17176518 2.12232979 4.33754785 4.24757791 5.5 6.375 C5.83386719 6.97828125 6.16773438 7.5815625 6.51171875 8.203125 C9 12.7734375 9 12.7734375 9 15 C7.68 14.67 6.36 14.34 5 14 C5 13.34 5 12.68 5 12 C2.36 12 -0.28 12 -3 12 C-3.33 12.99 -3.66 13.98 -4 15 C-4.99 15 -5.98 15 -7 15 C-5.45454854 9.52067211 -2.84456788 4.88570819 0 0 Z " fill="#2242A9" transform="translate(37,14)"/>
<path d="M0 0 C0.99 0 1.98 0 3 0 C3 3.96 3 7.92 3 12 C5.97 12 8.94 12 12 12 C12 12.99 12 13.98 12 15 C8.04 15 4.08 15 0 15 C0 10.05 0 5.1 0 0 Z " fill="#1939A5" transform="translate(62,14)"/>
<path d="M0 0 C0 0.66 0 1.32 0 2 C-10.23770365 4.439623 -19.4829038 5.40278241 -30 5 C-30 4.67 -30 4.34 -30 4 C-29.43152344 3.95101562 -28.86304688 3.90203125 -28.27734375 3.8515625 C-23.29262668 3.36890208 -18.81337209 2.43556712 -14 1 C-12.27596626 0.58237692 -10.5462729 0.18764384 -8.8125 -0.1875 C-7.99394531 -0.36667969 -7.17539062 -0.54585937 -6.33203125 -0.73046875 C-3.91326525 -1.01002462 -2.29914634 -0.74524054 0 0 Z " fill="#2442A9" transform="translate(66,38)"/>
<path d="M0 0 C0.99 0 1.98 0 3 0 C3 3.96 3 7.92 3 12 C5.64 12 8.28 12 11 12 C11 12.99 11 13.98 11 15 C7.37 15 3.74 15 0 15 C0 10.05 0 5.1 0 0 Z " fill="#1B3BA6" transform="translate(49,14)"/>
<path d="M0 0 C0 0.66 0 1.32 0 2 C-1.22976562 2.56267578 -1.22976562 2.56267578 -2.484375 3.13671875 C-4.10085937 3.90435547 -4.10085937 3.90435547 -5.75 4.6875 C-6.81734375 5.18636719 -7.8846875 5.68523438 -8.984375 6.19921875 C-13.84507214 9.10178531 -16.18744147 12.71337096 -18 18 C-18.33 18 -18.66 18 -19 18 C-19.42178719 13.78212806 -19.33170898 11.55284829 -17.125 7.875 C-12.67500947 3.13174362 -6.45672468 0 0 0 Z " fill="#1435A3" transform="translate(24,6)"/>
<path d="M0 0 C2.97 0.495 2.97 0.495 6 1 C6 2.65 6 4.3 6 6 C4.34385343 6.38218767 2.67542976 6.71395102 1 7 C0 6 0 6 -0.0625 2.9375 C-0.041875 1.968125 -0.02125 0.99875 0 0 Z " fill="#93A2D4" transform="translate(74,36)"/>
<path d="M0 0 C0.33 0.66 0.66 1.32 1 2 C-2.96 2.66 -6.92 3.32 -11 4 C-11 3.34 -11 2.68 -11 2 C-11.66 1.67 -12.32 1.34 -13 1 C-11.58622218 0.63447197 -10.16879424 0.28304505 -8.75 -0.0625 C-7.96109375 -0.25972656 -7.1721875 -0.45695313 -6.359375 -0.66015625 C-3.86185292 -1.01989867 -2.34449197 -0.9077126 0 0 Z " fill="#2544AA" transform="translate(35,4)"/>
<path d="M0 0 C1.98 0 3.96 0 6 0 C6.33 1.65 6.66 3.3 7 5 C4.69 5 2.38 5 0 5 C0 3.35 0 1.7 0 0 Z " fill="#E5E8F4" transform="translate(20,17)"/>
<path d="M0 0 C0.66 0 1.32 0 2 0 C2 1.32 2 2.64 2 4 C2.66 4 3.32 4 4 4 C4 4.66 4 5.32 4 6 C2.02 6 0.04 6 -2 6 C-2 5.34 -2 4.68 -2 4 C-3.32 4.33 -4.64 4.66 -6 5 C-5.34 3.68 -4.68 2.36 -4 1 C-3.34 1 -2.68 1 -2 1 C-1.67 1.66 -1.34 2.32 -1 3 C-0.67 2.01 -0.34 1.02 0 0 Z " fill="#7596A0" transform="translate(14,52)"/>
<path d="M0 0 C2.31 0 4.62 0 7 0 C7 1.65 7 3.3 7 5 C6.34 5 5.68 5 5 5 C5 4.01 5 3.02 5 2 C4.34 2 3.68 2 3 2 C2.67 2.99 2.34 3.98 2 5 C2 4.01 2 3.02 2 2 C1.34 2 0.68 2 0 2 C0 1.34 0 0.68 0 0 Z " fill="#7D9CA6" transform="translate(67,52)"/>
<path d="M0 0 C1.98 0.495 1.98 0.495 4 1 C4 2.32 4 3.64 4 5 C2.35 4.67 0.7 4.34 -1 4 C-0.67 2.68 -0.34 1.36 0 0 Z " fill="#71949E" transform="translate(51,52)"/>
<path d="M0 0 C1.98 0.495 1.98 0.495 4 1 C3.67 2.32 3.34 3.64 3 5 C1.68 5 0.36 5 -1 5 C-0.67 3.35 -0.34 1.7 0 0 Z " fill="#6F919C" transform="translate(34,52)"/>
<path d="M0 0 C2.475 0.495 2.475 0.495 5 1 C4.34 2.32 3.68 3.64 3 5 C2.01 5 1.02 5 0 5 C0 3.35 0 1.7 0 0 Z " fill="#698D98" transform="translate(56,52)"/>
<path d="M0 0 C0.99 0.33 1.98 0.66 3 1 C3 2.32 3 3.64 3 5 C1.35 4.67 -0.3 4.34 -2 4 C-1.34 2.68 -0.68 1.36 0 0 Z " fill="#71939E" transform="translate(77,52)"/>
<path d="M0 0 C0 0.66 0 1.32 0 2 C-1.98 2.33 -3.96 2.66 -6 3 C-6 2.34 -6 1.68 -6 1 C-6.66 0.67 -7.32 0.34 -8 0 C-4.94736336 -0.98120464 -3.05263664 -0.98120464 0 0 Z " fill="#2B49AC" transform="translate(66,38)"/>
<path d="M0 0 C1.32 0 2.64 0 4 0 C4 1.65 4 3.3 4 5 C2.68 5 1.36 5 0 5 C0 3.35 0 1.7 0 0 Z " fill="#658A95" transform="translate(39,52)"/>
<path d="M0 0 C0.66 0.33 1.32 0.66 2 1 C0.68 3.64 -0.64 6.28 -2 9 C-2.33 9 -2.66 9 -3 9 C-3.1875 5.625 -3.1875 5.625 -3 2 C-2.01 1.34 -1.02 0.68 0 0 Z " fill="#092C9F" transform="translate(8,15)"/>
</svg>