<!-- Generator: Adobe Illustrator 28.3.0, SVG Export Plug-In . SVG Version: 6.00 Build 0)  -->
<svg version="1.1" id="Layer_1" xmlns="http://www.w3.org/2000/svg" xmlns:xlink="http://www.w3.org/1999/xlink" x="0px" y="0px"
	 viewBox="0 0 100 61" style="enable-background:new 0 0 100 61;" xml:space="preserve">
<style type="text/css">
	.st0{fill:#EC1E31;}
</style>
<path class="st0" d="M57.6,12.5c0.5,0.7,0.5,1.6,0.1,2.4c-0.8,1.5-2.7,1.8-4.2,1.7c-1.1,0-2.1-0.6-2.8-1.4c-0.5-0.8-0.5-1.9,0-2.7
	c1-1.2,2.5-1.8,4-1.5C55.8,11.1,56.9,11.7,57.6,12.5z"/>
<path class="st0" d="M96.1,30.2c-1,0.5-2.5,1.4-3.6,0.5c-0.2-0.3-0.4-0.7-0.3-1.1l2.8-9.9c-2-0.1-4.1-0.1-6.2-0.1l-0.5,1.5
	c-0.3-0.4-0.6-0.8-1-1.1c-2.1-1.5-5.2-1-7.4-0.1c-3.4,1.6-6.1,4.8-6.1,8.7c-1.8,1.6-4.2,3.4-6.7,2.4c-1.3-0.7-1.2-2.4-1-3.7
	c0.4-2.1,1-4.4,3.1-5.3c1.4-0.6,2.7,0.3,3.7,1.1c0.3-0.9,0.6-1.9,0.8-2.9c-2.8-1.8-7.1-1.3-9.9,0.3s-5.3,4.7-5,8.3
	c-0.5,0.5-1.1,0.9-1.7,1.2c-0.9,0.4-2.3,1.2-3.3,0.3c-0.2-0.3-0.3-0.7-0.3-1.1c0.9-3.2,1.8-6.5,2.7-9.8c-2.3,0-4.7-0.1-6.9,0.1
	l-2.5,8.6c-1.9,1.2-3.9,2.1-6.1,2.7c-2.1,0.5-4.8,0.9-6.5-0.5c-0.5-0.6-0.7-1.3-0.5-2.1c3.7,0.3,7.7-0.2,10-2.9
	c0.8-1.1,1-2.5,0.6-3.8l-0.5-0.9c-2.8-2.6-7.9-2-11.2-0.8c-3.4,1.3-5.8,4.5-6,8.2c0.1,2,1.3,3.9,3,4.9c5.4,3.2,12.2,0.6,17-2
	c0,0,0.2,0.1,0.1,0.2c0.3,1.6,1.6,2.8,3.1,3.2c3.7,0.5,7.1-1,9.9-3.2c1.2,2.1,3.6,3.2,6.1,3.5v0c3.4,0.1,6.2-1.5,8.7-3.6
	c0.8,1.5,2,2.7,3.6,3.3c2.8,0.9,5.9,0.1,8-2c0.3,0.8,0.9,1.4,1.6,1.9c3.2,1.5,6.7-0.4,9.2-2C96.5,31.5,96.4,30.8,96.1,30.2z
	 M36.7,21.2c0.9-0.3,2.4-0.7,2.8,0.5c0.2,1.5-0.4,2.9-1.6,3.8c-1.2,0.7-2.6,1-4,0.7C34.5,24.4,35.1,22.4,36.7,21.2z M85.8,28.8
	c-0.5,1.3-1.5,2.3-2.8,2.7c-0.7,0.1-1.4-0.2-1.8-0.8c-0.8-2.2,0.3-4.4,1-6.5c0.5-1.1,1.5-2,2.6-2.5c0.8-0.2,1.7,0.2,2.1,0.9
	C87.6,24.9,86.3,26.8,85.8,28.8z"/>
<path class="st0" d="M97.5,36.2c-5.6,1.3-11.3,2.3-17,2.8c-11.4,0.8-22.8,0.9-34.2,0.2c-9.2-0.7-18.2-2.5-27-5.3
	c2.9-4.2,3.9-9.1,5.4-14c5-0.8,9.3-3.8,11.8-8.1c1.2-2.5,2.4-5.7,1-8.5c-0.5-0.8-1.1-1.5-1.9-2c-2.8-1.8-6.7-1.1-9.3,0.6
	c-6.1,3.2-7.1,10.1-8.8,16c-1.8-0.1-3.6-0.4-5.3-0.9c-0.3,0.6-0.6,1.2-0.7,1.9c1.7,0.7,3.6,1.1,5.4,1.3c-0.8,3.4-1.8,6.7-3.1,9.9
	c-0.4,0.7-0.4,1.6-1.1,2.1c-3.4-0.8-7.9-2-11.2,0c-1,0.7-1.6,1.9-1.5,3.2c0.2,1.6,1.2,3,2.7,3.7C7.4,41.4,13,39.8,16.9,37
	c3,1,5.9,2.1,8.9,3c9.2,2.5,18.8,4.7,29,4.3v0c14.6-0.2,29-2.1,43.1-5.9l0.2-0.2L97.5,36.2z M29.1,5.8c0.7-1.2,1.8-2.5,3.3-2.6
	c0.7,0,1.3,0,1.8,0.5c1.5,1.4,1,4,0.3,5.7c-1.6,4-5,6.9-9.2,7.9C26.1,13.4,27.4,9.5,29.1,5.8z M4.1,37c-0.4-0.3-1-0.7-1-1.3
	c0-0.5,0.3-1,0.8-1.3c2.2-1.2,4.7,0.1,6.8,0.7l0.4,0.2C9.3,36.8,6.6,38,4.1,37z"/>
<path class="st0" d="M12.3,60.5v-7h2.2c0.6,0,1.2,0.1,1.7,0.5c0.4,0.4,0.6,0.9,0.6,1.4c0,0.3-0.1,0.6-0.2,0.9
	c-0.2,0.3-0.4,0.4-0.6,0.6c0.3,0.1,0.6,0.3,0.7,0.5c0.2,0.3,0.3,0.6,0.3,1c0,0.6-0.2,1.1-0.6,1.5c-0.5,0.4-1,0.6-1.6,0.5L12.3,60.5z
	 M13.7,56.4h0.7c0.4,0,0.8-0.2,0.8-0.7c0-0.1,0-0.1,0-0.2c0-0.2,0-0.5-0.2-0.7c-0.2-0.2-0.4-0.2-0.6-0.2h-0.8V56.4z M13.7,57.4v1.9
	h0.9c0.2,0,0.4-0.1,0.6-0.2c0.1-0.2,0.2-0.4,0.2-0.7c0-0.6-0.2-1-0.7-1L13.7,57.4z"/>
<path class="st0" d="M22.3,60.5h-1.4v-7h1.4V60.5z"/>
<path class="st0" d="M31.5,57.6c0.1,0.8-0.2,1.6-0.7,2.2c-0.5,0.5-1.2,0.8-1.9,0.8c-0.7,0-1.4-0.2-1.9-0.8c-0.5-0.6-0.7-1.4-0.7-2.2
	v-1.2c0-0.8,0.2-1.6,0.7-2.3c0.5-0.5,1.1-0.8,1.9-0.8c0.7,0,1.4,0.3,1.9,0.8c0.5,0.6,0.7,1.4,0.7,2.2V57.6z M30.1,56.4
	c0-0.5-0.1-1-0.3-1.4c-0.2-0.3-0.5-0.5-0.9-0.5c-0.3,0-0.7,0.2-0.8,0.5c-0.2,0.4-0.3,0.9-0.3,1.4v1.2c0,0.5,0.1,0.9,0.3,1.4
	c0.2,0.3,0.5,0.4,0.9,0.4c0.3,0,0.7-0.1,0.8-0.4c0.2-0.4,0.3-0.9,0.3-1.3V56.4z"/>
<g>
	<path d="M38.5,58.6c0-0.2-0.1-0.5-0.2-0.7c-0.2-0.2-0.5-0.4-0.8-0.5c-0.6-0.2-1.1-0.5-1.5-0.9c-0.3-0.4-0.5-0.8-0.5-1.3
		c0-0.5,0.2-1.1,0.6-1.4c0.4-0.4,1-0.6,1.6-0.5c0.4,0,0.8,0.1,1.2,0.3c0.3,0.2,0.6,0.4,0.8,0.8c0.2,0.4,0.3,0.7,0.3,1.1h-1.5
		c0-0.3-0.1-0.5-0.2-0.8c-0.1-0.2-0.4-0.3-0.6-0.2c-0.2,0-0.4,0.1-0.6,0.2c-0.1,0.2-0.2,0.4-0.2,0.6c0,0.2,0.1,0.4,0.2,0.5
		c0.2,0.2,0.5,0.4,0.8,0.5c0.6,0.2,1.1,0.5,1.5,0.9c0.3,0.4,0.5,0.9,0.5,1.4c0,0.5-0.2,1-0.6,1.4c-0.4,0.4-1,0.6-1.6,0.5
		c-0.4,0-0.9-0.1-1.2-0.3c-0.4-0.2-0.7-0.5-0.9-0.8c-0.2-0.4-0.3-0.8-0.3-1.2h1.4c0,0.3,0.1,0.6,0.2,0.9c0.2,0.2,0.5,0.3,0.8,0.3
		C38.2,59.4,38.5,59.1,38.5,58.6L38.5,58.6z"/>
	<path d="M46,56.6l1.1-3.2h1.5l-1.9,4.5v2.6h-1.4v-2.6l-1.9-4.5H45L46,56.6z"/>
	<path d="M55.2,58.6c0-0.2,0-0.4-0.2-0.6c-0.2-0.2-0.5-0.4-0.8-0.5c-0.6-0.2-1.1-0.5-1.5-0.9c-0.3-0.4-0.5-0.8-0.5-1.3
		c0-0.5,0.2-1.1,0.6-1.4c0.8-0.6,1.9-0.7,2.8-0.3c0.3,0.2,0.6,0.4,0.8,0.8c0.2,0.4,0.3,0.7,0.3,1.1h-1.5c0-0.3-0.1-0.5-0.2-0.8
		c-0.3-0.3-0.8-0.3-1.2,0c-0.1,0.2-0.2,0.4-0.2,0.6c0,0.2,0.1,0.4,0.2,0.5c0.2,0.2,0.5,0.4,0.8,0.5c0.6,0.2,1.1,0.5,1.5,0.9
		c0.3,0.4,0.5,0.9,0.5,1.4c0,0.5-0.2,1-0.6,1.3c-0.4,0.4-1,0.6-1.6,0.5c-0.4,0-0.9-0.1-1.2-0.3c-0.4-0.2-0.7-0.5-0.9-0.8
		c-0.2-0.4-0.3-0.8-0.3-1.2h1.4c0,0.3,0.1,0.6,0.2,0.9c0.2,0.2,0.5,0.3,0.8,0.3C54.9,59.4,55.2,59.1,55.2,58.6z"/>
	<path d="M65.1,54.6h-1.7v5.9H62v-5.9h-1.8v-1.2h4.9V54.6z"/>
	<path d="M72.6,57.4h-2.2v1.9H73v1.2h-4v-7h4v1.1h-2.6v1.7h2.2V57.4z"/>
	<path d="M78.8,53.4l1.3,5.1l1.3-5.1h1.8v7h-1.4v-1.9l0.1-2.9l-1.4,4.8h-1l-1.4-4.8l0.1,2.9v1.9H77v-7L78.8,53.4z"/>
	<path d="M90.4,58.6c0-0.2-0.1-0.5-0.2-0.7c-0.2-0.2-0.5-0.4-0.8-0.5c-0.6-0.2-1.1-0.5-1.5-0.9c-0.3-0.4-0.5-0.8-0.5-1.3
		c0-0.5,0.2-1.1,0.6-1.4c0.4-0.4,1-0.6,1.6-0.5c0.4,0,0.8,0.1,1.2,0.3c0.3,0.2,0.6,0.4,0.8,0.8c0.2,0.4,0.3,0.7,0.3,1.1h-1.4
		c0-0.3-0.1-0.5-0.2-0.8c-0.3-0.3-0.9-0.3-1.2,0c-0.1,0.2-0.2,0.4-0.2,0.6c0,0.2,0.1,0.4,0.2,0.5c0.2,0.2,0.5,0.4,0.8,0.5
		c0.6,0.2,1.1,0.5,1.5,0.9c0.3,0.4,0.5,0.9,0.5,1.4c0,0.5-0.2,1-0.6,1.4c-0.4,0.4-1,0.6-1.6,0.5c-0.4,0-0.9-0.1-1.2-0.3
		c-0.4-0.2-0.7-0.5-0.9-0.8c-0.2-0.4-0.3-0.8-0.3-1.2h1.4c0,0.3,0.1,0.6,0.2,0.9c0.2,0.2,0.5,0.3,0.8,0.3
		C90.2,59.4,90.4,59.1,90.4,58.6z"/>
</g>
</svg>