<svg width="130" height="28" viewBox="0 0 130 28" fill="none" xmlns="http://www.w3.org/2000/svg">
<path d="M129.912 15.5599C129.912 12.3109 128.11 10.0699 124.862 10.0699C121.846 10.0699 119.669 12.3469 119.669 15.5959C119.669 18.8449 121.721 21.1219 125.013 21.1219C126.914 21.1219 128.475 20.4109 129.43 19.1869L127.601 17.7739C127.066 18.4309 126.182 18.8449 125.138 18.8449C123.595 18.8449 122.515 18.0349 122.23 16.4959H129.849C129.894 16.1989 129.912 15.8839 129.912 15.5599ZM122.239 14.4889C122.551 13.0579 123.506 12.2749 124.862 12.2749C126.28 12.2749 127.298 13.1569 127.378 14.4889H122.239Z" fill="#E02E37"/>
<path d="M112.478 21.1219C113.852 21.1219 114.896 20.5999 115.493 19.9429V20.9059H117.956V10.2679H115.386V16.5229C115.386 17.9719 114.548 18.7999 113.281 18.7999C111.862 18.7999 111.175 17.9899 111.175 16.5229V10.2679H108.605V16.8469C108.614 19.6369 110.202 21.1219 112.478 21.1219Z" fill="#E02E37"/>
<path d="M87.4234 10.061C84.1667 10.061 81.8022 12.338 81.8022 15.587C81.8022 18.836 84.1667 21.113 87.4234 21.113C90.6801 21.113 93.0445 18.836 93.0445 15.587C93.0445 12.338 90.6801 10.061 87.4234 10.061ZM87.4234 18.809C85.6121 18.809 84.3719 17.531 84.3719 15.596C84.3719 13.661 85.6032 12.383 87.4234 12.383C89.2436 12.383 90.4749 13.661 90.4749 15.596C90.4749 17.531 89.2436 18.809 87.4234 18.809Z" fill="#E02E37"/>
<path d="M64.0288 20.9149H66.5985V14.6599C66.5985 13.2109 67.4372 12.3829 68.7042 12.3829C70.1228 12.3829 70.8099 13.1929 70.8099 14.6599V20.9149H73.3795V14.6599C73.3795 13.2109 74.2182 12.3829 75.4852 12.3829C76.9039 12.3829 77.5909 13.1929 77.5909 14.6599V20.9149H80.1606V14.3359C80.1606 11.7259 78.5189 10.0699 76.1187 10.0699C74.6108 10.0699 73.4152 10.7269 72.5765 11.6269C71.8716 10.6459 70.7474 10.0699 69.4269 10.0699C68.1242 10.0699 67.2141 10.5919 66.5003 11.2489V10.2859H64.0377V20.9149H64.0288Z" fill="#E02E37"/>
<path d="M62.146 15.5599C62.146 12.3109 60.3437 10.0699 57.0959 10.0699C54.0802 10.0699 51.9031 12.3469 51.9031 15.5959C51.9031 18.8449 53.9552 21.1219 57.2476 21.1219C59.1481 21.1219 60.7095 20.4109 61.6642 19.1869L59.8351 17.7739C59.2998 18.4309 58.4165 18.8449 57.3725 18.8449C55.829 18.8449 54.7493 18.0349 54.4638 16.4959H62.0836C62.1282 16.1989 62.146 15.8839 62.146 15.5599ZM54.4727 14.4889C54.785 13.0579 55.7397 12.2749 57.0959 12.2749C58.5146 12.2749 59.5318 13.1569 59.6121 14.4889H54.4727Z" fill="#E02E37"/>
<path d="M37.8235 20.9149H40.5002V14.8489H47.3437V20.9149H50.0205V7.09094H47.3437V12.6079H40.5002V7.09094H37.8235V20.9149Z" fill="#E02E37"/>
<path d="M101.414 21.158C103.93 21.158 105.902 20.159 107.169 18.359L105.215 16.856C104.465 17.999 103.163 18.773 101.512 18.773C98.8887 18.773 97.1577 16.874 97.1577 14.003C97.1577 11.132 98.8887 9.23296 101.512 9.23296C103.154 9.23296 104.456 10.007 105.215 11.15L107.169 9.64696C105.902 7.84696 103.93 6.84796 101.414 6.84796C97.3183 6.84796 94.4631 9.81796 94.4631 14.003C94.4631 18.188 97.2916 21.158 101.414 21.158Z" fill="#E02E37"/>
<path d="M21.3884 15.659L25.4838 8.53998C26.1262 7.40598 26.3671 6.51498 26.3671 5.60598C26.3671 2.79798 24.2079 0.583984 21.3884 0.583984C18.5689 0.583984 16.4097 2.79798 16.4097 5.60598C16.4097 6.51498 16.6506 7.40598 17.293 8.53998L21.3884 15.659Z" fill="#E02E37"/>
<path d="M13.724 5.61498L5.56893 5.59698C4.27518 5.59698 3.39186 5.83999 2.60668 6.28999C0.188699 7.69399 -0.632166 10.682 0.77758 13.148C2.18733 15.614 5.16742 16.388 7.57648 14.984C8.35274 14.534 9.00407 13.877 9.65541 12.743L13.724 5.61498Z" fill="#E02E37"/>
<path d="M8.92383 17.342L12.9835 24.479C13.6349 25.613 14.2773 26.261 15.0625 26.72C17.4805 28.124 20.4516 27.35 21.8614 24.884C23.2711 22.418 22.4503 19.43 20.0412 18.026C19.2649 17.576 18.3727 17.333 17.0789 17.333L8.92383 17.342Z" fill="#E02E37"/>
</svg>
