<svg version="1.1" xmlns="http://www.w3.org/2000/svg" width="120" height="26">
<path d="M0 0 C39.6 0 79.2 0 120 0 C120 8.58 120 17.16 120 26 C80.4 26 40.8 26 0 26 C0 17.42 0 8.84 0 0 Z " fill="#FCFBFD" transform="translate(0,0)"/>
<path d="M0 0 C0.66 0 1.32 0 2 0 C3.32 2.31 4.64 4.62 6 7 C7.32 4.69 8.64 2.38 10 0 C12.49505962 2.49505962 12.35948376 3.67328888 12.625 7.125 C12.69976562 8.03507812 12.77453125 8.94515625 12.8515625 9.8828125 C12.90054687 10.58148438 12.94953125 11.28015625 13 12 C12.01 11.67 11.02 11.34 10 11 C9.67 10.01 9.34 9.02 9 8 C8.34 9.32 7.68 10.64 7 12 C6.01 12 5.02 12 4 12 C3.34 10.35 2.68 8.7 2 7 C1.34 8.65 0.68 10.3 0 12 C-0.66 12 -1.32 12 -2 12 C-1.34 8.04 -0.68 4.08 0 0 Z " fill="#8F45A4" transform="translate(7,8)"/>
<path d="M0 0 C2 2 2 2 2.1953125 3.9453125 C2.13020833 5.96354167 2.06510417 7.98177083 2 10 C1.01 10 0.02 10 -1 10 C-1 7.36 -1 4.72 -1 2 C-1.99 2 -2.98 2 -4 2 C-4 4.31 -4 6.62 -4 9 C-4.99 9 -5.98 9 -7 9 C-7 6.69 -7 4.38 -7 2 C-7.99 2.495 -7.99 2.495 -9 3 C-9.65772428 6.02934491 -9.65772428 6.02934491 -10 9 C-10.66 9 -11.32 9 -12 9 C-12 6.36 -12 3.72 -12 1 C-7.99047425 -0.33650858 -4.17983803 -0.20225023 0 0 Z " fill="#9148A5" transform="translate(60,11)"/>
<path d="M0 0 C2.97 0.495 2.97 0.495 6 1 C7.32841008 6.43440487 7.32841008 6.43440487 5.875 8.9375 C4 10 4 10 1.4375 10 C-1 9 -1 9 -2.5 6.6875 C-3 4 -3 4 -1.625 1.6875 C-0.820625 0.8521875 -0.820625 0.8521875 0 0 Z " fill="#9148A5" transform="translate(83,11)"/>
<path d="M0 0 C3.29714793 0.32971479 4.6226839 0.6226839 7 3 C6.67028521 6.29714793 6.3773161 7.6226839 4 10 C0.70285207 9.67028521 -0.6226839 9.3773161 -3 7 C-2.67028521 3.70285207 -2.3773161 2.3773161 0 0 Z " fill="#8C3FA1" transform="translate(66,11)"/>
<path d="M0 0 C1.97909398 -0.02686553 3.95828971 -0.04633375 5.9375 -0.0625 C7.03964844 -0.07410156 8.14179687 -0.08570313 9.27734375 -0.09765625 C12 0 12 0 13 1 C13.14115161 3.67058851 13.04247107 6.32432238 13 9 C12.34 9 11.68 9 11 9 C11 6.69 11 4.38 11 2 C10.01 2 9.02 2 8 2 C8 4.31 8 6.62 8 9 C7.01 9 6.02 9 5 9 C5 6.69 5 4.38 5 2 C4.01 2 3.02 2 2 2 C2 4.31 2 6.62 2 9 C1.34 9 0.68 9 0 9 C0 6.03 0 3.06 0 0 Z " fill="#8A3DA0" transform="translate(92,11)"/>
<path d="M0 0 C2 2 2 2 2.125 5.625 C2.08375 6.73875 2.0425 7.8525 2 9 C1.01 9 0.02 9 -1 9 C-1 6.69 -1 4.38 -1 2 C-1.99 2 -2.98 2 -4 2 C-4 4.31 -4 6.62 -4 9 C-4.66 9 -5.32 9 -6 9 C-6.33 7.02 -6.66 5.04 -7 3 C-7.66 3 -8.32 3 -9 3 C-9.33 4.98 -9.66 6.96 -10 9 C-10.66 9 -11.32 9 -12 9 C-12 6.36 -12 3.72 -12 1 C-7.99047425 -0.33650858 -4.17983803 -0.20225023 0 0 Z " fill="#893B9F" transform="translate(44,11)"/>
<path d="M0 0 C0.33 1.32 0.66 2.64 1 4 C-1.31 4 -3.62 4 -6 4 C-5.67 4.66 -5.34 5.32 -5 6 C-3.35 6 -1.7 6 0 6 C0 6.66 0 7.32 0 8 C-5.41139241 9.32278481 -5.41139241 9.32278481 -7.9375 7.9375 C-9.52666796 5.03960549 -8.87523205 3.09697496 -8 0 C-5.13822943 -1.43088528 -3.06624227 -0.59991697 0 0 Z " fill="#85359C" transform="translate(116,12)"/>
<path d="M0 0 C1 1 1 1 1.0625 4.5625 C1.041875 5.696875 1.02125 6.83125 1 8 C0.34 8 -0.32 8 -1 8 C-1 6.68 -1 5.36 -1 4 C-1.99 4.33 -2.98 4.66 -4 5 C-4 5.99 -4 6.98 -4 8 C-5.32 7.67 -6.64 7.34 -8 7 C-7.25 5.0625 -7.25 5.0625 -6 3 C-3.875 2.25 -3.875 2.25 -2 2 C-3.65 2 -5.3 2 -7 2 C-7 1.34 -7 0.68 -7 0 C-4.31633121 -1.3418344 -2.84719317 -0.73004953 0 0 Z " fill="#8E43A3" transform="translate(29,12)"/>
<path d="M0 0 C0.66 0 1.32 0 2 0 C2 0.66 2 1.32 2 2 C2.66 2 3.32 2 4 2 C4 2.66 4 3.32 4 4 C3.34 4 2.68 4 2 4 C2.66 6.64 3.32 9.28 4 12 C2.68 11.67 1.36 11.34 0 11 C0 8.69 0 6.38 0 4 C-0.66 4 -1.32 4 -2 4 C-2 3.34 -2 2.68 -2 2 C-1.34 2 -0.68 2 0 2 C0 1.34 0 0.68 0 0 Z " fill="#9047A5" transform="translate(75,9)"/>
<path d="M0 0 C1.98 0 3.96 0 6 0 C6 2.97 6 5.94 6 9 C5.67 9 5.34 9 5 9 C5 6.69 5 4.38 5 2 C4.01 2 3.02 2 2 2 C2 4.31 2 6.62 2 9 C1.34 9 0.68 9 0 9 C0 6.03 0 3.06 0 0 Z " fill="#934CA7" transform="translate(92,11)"/>
<path d="M0 0 C2.49505962 2.49505962 2.35948376 3.67328888 2.625 7.125 C2.69976563 8.03507812 2.77453125 8.94515625 2.8515625 9.8828125 C2.90054687 10.58148438 2.94953125 11.28015625 3 12 C2.01 11.67 1.02 11.34 0 11 C0 9.02 0 7.04 0 5 C-0.66 5 -1.32 5 -2 5 C-1.34 3.35 -0.68 1.7 0 0 Z " fill="#893B9F" transform="translate(17,8)"/>
<path d="M0 0 C1 1 1 1 1.0625 4.5625 C1.041875 5.696875 1.02125 6.83125 1 8 C0.01 8 -0.98 8 -2 8 C-2 5.69 -2 3.38 -2 1 C-3.32 0.67 -4.64 0.34 -6 0 C-3.49749232 -1.25125384 -2.59701335 -0.83774624 0 0 Z " fill="#9148A5" transform="translate(45,12)"/>
<path d="M0 0 C1.98 0.99 1.98 0.99 4 2 C4 4.64 4 7.28 4 10 C3.01 10 2.02 10 1 10 C0.67 6.7 0.34 3.4 0 0 Z " fill="#9A57AD" transform="translate(58,11)"/>
<path d="M0 0 C0.89130413 2.6739124 1.47731534 5.23723823 2 8 C1.01 8.33 0.02 8.66 -1 9 C-3 7 -3 7 -3.125 3.875 C-3.08375 2.92625 -3.0425 1.9775 -3 1 C-2.01 0.67 -1.02 0.34 0 0 Z " fill="#F2E9F4" transform="translate(80,12)"/>
<path d="M0 0 C1.32 0 2.64 0 4 0 C4 1.98 4 3.96 4 6 C2.68 6 1.36 6 0 6 C0 4.02 0 2.04 0 0 Z " fill="#F7F3F9" transform="translate(66,13)"/>
<path d="M0 0 C0.99 0 1.98 0 3 0 C3 1.98 3 3.96 3 6 C1.68 5.67 0.36 5.34 -1 5 C-0.67 3.35 -0.34 1.7 0 0 Z " fill="#FCFAFD" transform="translate(84,13)"/>
<path d="M0 0 C0.33 0.99 0.66 1.98 1 3 C3.64 3.33 6.28 3.66 9 4 C9 4.66 9 5.32 9 6 C6.1875 6.6875 6.1875 6.6875 3 7 C1.125 5.8125 1.125 5.8125 0 4 C0 2.68 0 1.36 0 0 Z " fill="#924AA6" transform="translate(107,14)"/>
<path d="M0 0 C0.99 0.33 1.98 0.66 3 1 C3 2.32 3 3.64 3 5 C4.32 5.33 5.64 5.66 7 6 C5.1875 6.6875 5.1875 6.6875 3 7 C1.25 5.8125 1.25 5.8125 0 4 C0 2.68 0 1.36 0 0 Z " fill="#9149A6" transform="translate(63,14)"/>
<path d="M0 0 C2.31 0 4.62 0 7 0 C6.67 0.99 6.34 1.98 6 3 C4.35 3 2.7 3 1 3 C0.67 2.01 0.34 1.02 0 0 Z " fill="#F7F2F9" transform="translate(110,16)"/>
<path d="M0 0 C0.33 0.66 0.66 1.32 1 2 C1.66 2.33 2.32 2.66 3 3 C2.34 4.98 1.68 6.96 1 9 C0.34 9 -0.32 9 -1 9 C-0.67 6.03 -0.34 3.06 0 0 Z " fill="#9752AA" transform="translate(6,11)"/>
<path d="M0 0 C0 0.99 0 1.98 0 3 C-2.97 2.505 -2.97 2.505 -6 2 C-6 1.34 -6 0.68 -6 0 C-3.50907189 -1.24546405 -2.58919267 -0.7767578 0 0 Z " fill="#C096CC" transform="translate(114,12)"/>
<path d="M0 0 C0.99 0 1.98 0 3 0 C3 1.32 3 2.64 3 4 C1.35 4.33 -0.3 4.66 -2 5 C-1.34 3.35 -0.68 1.7 0 0 Z " fill="#D4B8DC" transform="translate(25,16)"/>
</svg>