<svg version="1.1" xmlns="http://www.w3.org/2000/svg" width="160" height="106">
<path d="M0 0 C52.8 0 105.6 0 160 0 C160 34.98 160 69.96 160 106 C107.2 106 54.4 106 0 106 C0 71.02 0 36.04 0 0 Z " fill="#FEFEFE" transform="translate(0,0)"/>
<path d="M0 0 C16.14352334 -0.83983647 36.76341347 1.78353299 49.51171875 12.5390625 C52.89567646 15.86084776 53.86780718 18.10402647 54.5625 22.8125 C54.28883918 29.46098486 48.86290745 34.32014336 44.2734375 38.66796875 C42.98008275 39.8478942 41.68055238 41.02108517 40.375 42.1875 C32.20748071 49.00625374 32.20748071 49.00625374 27.75 58.3125 C27.5025 59.529375 27.255 60.74625 27 62 C21.09475371 61.43759559 17.24344134 59.31822272 13.125 55.0625 C11.68627874 52.42484436 11.58052068 50.97243949 12 48 C14.01171875 46.234375 14.01171875 46.234375 16.6875 44.75 C17.55761719 44.24984375 18.42773438 43.7496875 19.32421875 43.234375 C21.91716613 42.03821241 24.18732153 41.42570269 27 41 C24.21966184 25.98617392 12.75915598 14.85672307 2.75 3.99609375 C1 2 1 2 0 0 Z " fill="#9F2AFE" transform="translate(19,19)"/>
<path d="M0 0 C0.495 1.485 0.495 1.485 1 3 C-2.187951 9.02817036 -7.60604075 13.70342983 -12.625 18.1875 C-20.79251929 25.00625374 -20.79251929 25.00625374 -25.25 34.3125 C-25.62125 36.1378125 -25.62125 36.1378125 -26 38 C-31.90524629 37.43759559 -35.75655866 35.31822272 -39.875 31.0625 C-41.29664757 28.45614613 -41.3468876 26.93728201 -41 24 C-35.34688817 18.07261321 -25.23475414 15.67304447 -17.6652832 13.06713867 C-11.29654496 10.79591042 -4.2245654 7.99761452 -0.78271484 1.8125 C-0.52441895 1.214375 -0.26612305 0.61625 0 0 Z " fill="#5C23F2" transform="translate(72,43)"/>
<path d="M0 0 C0 0.66 0 1.32 0 2 C1.32 2.33 2.64 2.66 4 3 C3.525625 3.86625 3.05125 4.7325 2.5625 5.625 C1.06765105 8.85387374 0.41781687 11.49033826 0 15 C-5.92712035 14.43551235 -9.92120767 12.35596464 -13.875 7.875 C-15 6 -15 6 -15 4 C-13.06767179 3.13419713 -11.12892806 2.28270059 -9.1875 1.4375 C-8.10855469 0.96183594 -7.02960937 0.48617187 -5.91796875 -0.00390625 C-3 -1 -3 -1 0 0 Z " fill="#3F54FB" transform="translate(46,66)"/>
<path d="M0 0 C0.99 0 1.98 0 3 0 C3.02684312 2.81256281 3.04676188 5.62487241 3.0625 8.4375 C3.07087891 9.23994141 3.07925781 10.04238281 3.08789062 10.86914062 C3.0965143 12.91295221 3.0522815 14.95683902 3 17 C2 18 2 18 -0.8125 18.3125 C-4 18 -4 18 -6.375 16.3125 C-8 14 -8 14 -8.5 11.4375 C-8 9 -8 9 -6.25 7.1875 C-4 6 -4 6 0 6 C0 4.02 0 2.04 0 0 Z " fill="#414141" transform="translate(67,64)"/>
<path d="M0 0 C0.721875 0.391875 1.44375 0.78375 2.1875 1.1875 C1.8575 2.1775 1.5275 3.1675 1.1875 4.1875 C1.373125 4.868125 1.55875 5.54875 1.75 6.25 C1.894375 6.889375 2.03875 7.52875 2.1875 8.1875 C-0.27528801 10.65028801 -2.51926982 11.18521255 -5.8125 12.1875 C-6.4725 8.8875 -7.1325 5.5875 -7.8125 2.1875 C-3.50480769 -1.0125 -3.50480769 -1.0125 0 0 Z " fill="#A978FE" transform="translate(51.8125,47.8125)"/>
<path d="M0 0 C0.99 0 1.98 0 3 0 C3 1.98 3 3.96 3 6 C3.78375 5.95875 4.5675 5.9175 5.375 5.875 C8 6 8 6 10 8 C10.1953125 10.3828125 10.1953125 10.3828125 10.125 13.125 C10.10695313 14.03507812 10.08890625 14.94515625 10.0703125 15.8828125 C10.03550781 16.93082031 10.03550781 16.93082031 10 18 C9.34 18 8.68 18 8 18 C7.67 15.03 7.34 12.06 7 9 C5.68 9 4.36 9 3 9 C2.67 11.97 2.34 14.94 2 18 C1.34 18 0.68 18 0 18 C0 12.06 0 6.12 0 0 Z " fill="#333333" transform="translate(104,64)"/>
<path d="M0 0 C2.375 -0.125 2.375 -0.125 5 0 C7 2 7 2 7.23046875 4.12890625 C7.20919922 5.33353516 7.20919922 5.33353516 7.1875 6.5625 C7.17783203 7.77099609 7.17783203 7.77099609 7.16796875 9.00390625 C7 11 7 11 6 12 C3.66055264 11.71269945 1.3260857 11.38063221 -1 11 C-1.625 9.125 -1.625 9.125 -2 7 C0 5 0 5 2.625 4.875 C3.40875 4.91625 4.1925 4.9575 5 5 C5 4.01 5 3.02 5 2 C3.02 2.33 1.04 2.66 -1 3 C-0.67 2.01 -0.34 1.02 0 0 Z " fill="#202020" transform="translate(73,70)"/>
<path d="M0 0 C2 2 2 2 2 6 C-0.64 6 -3.28 6 -6 6 C-5.01 7.485 -5.01 7.485 -4 9 C-0.91634129 9.2502157 -0.91634129 9.2502157 2 9 C2 9.66 2 10.32 2 11 C-0.75 11.75 -0.75 11.75 -4 12 C-6.375 10.375 -6.375 10.375 -8 8 C-8.50188668 5.06037803 -8.4519739 3.68985491 -6.8125 1.1875 C-4.3864306 -0.40199375 -2.84602594 -0.36487512 0 0 Z " fill="#505050" transform="translate(124,70)"/>
<path d="M0 0 C1.99954746 -0.04254356 4.00041636 -0.04080783 6 0 C7 1 7 1 7.09765625 3.50390625 C7.08605469 4.51324219 7.07445313 5.52257812 7.0625 6.5625 C7.05347656 7.57441406 7.04445313 8.58632812 7.03515625 9.62890625 C7.02355469 10.41136719 7.01195313 11.19382812 7 12 C4.125 12.125 4.125 12.125 1 12 C0.34 11.34 -0.32 10.68 -1 10 C-0.625 7.375 -0.625 7.375 0 5 C1.65 5 3.3 5 5 5 C5 4.01 5 3.02 5 2 C3.35 2 1.7 2 0 2 C0 1.34 0 0.68 0 0 Z " fill="#050505" transform="translate(95,70)"/>
<path d="M0 0 C-0.33 2.64 -0.66 5.28 -1 8 C-6.53846154 7.38461538 -6.53846154 7.38461538 -8.875 5.4375 C-9.24625 4.963125 -9.6175 4.48875 -10 4 C-9.67 3.01 -9.34 2.02 -9 1 C-5.8035914 -0.06546953 -3.34252724 -0.07427838 0 0 Z " fill="#3066FD" transform="translate(47,73)"/>
<path d="M0 0 C6.0546875 -0.1953125 6.0546875 -0.1953125 8 0 C10 2 10 2 10.1953125 4.3828125 C10.17210938 5.28773437 10.14890625 6.19265625 10.125 7.125 C10.10695313 8.03507812 10.08890625 8.94515625 10.0703125 9.8828125 C10.04710938 10.58148438 10.02390625 11.28015625 10 12 C9.34 12 8.68 12 8 12 C7.67 9.03 7.34 6.06 7 3 C5.68 3 4.36 3 3 3 C2.67 5.97 2.34 8.94 2 12 C1.34 12 0.68 12 0 12 C0 8.04 0 4.08 0 0 Z " fill="#1F1F1F" transform="translate(82,70)"/>
<path d="M0 0 C0 0.66 0 1.32 0 2 C1.32 2.33 2.64 2.66 4 3 C2 5 2 5 0.01171875 5.16015625 C-1.13876953 5.11181641 -1.13876953 5.11181641 -2.3125 5.0625 C-5.70427771 4.98044086 -8.69119989 5.1461161 -12 6 C-12 5.01 -12 4.02 -12 3 C-10.5682384 2.30062798 -9.12932968 1.61587282 -7.6875 0.9375 C-6.48673828 0.36322266 -6.48673828 0.36322266 -5.26171875 -0.22265625 C-3 -1 -3 -1 0 0 Z " fill="#4A3CF8" transform="translate(46,66)"/>
<path d="M0 0 C2.31 0 4.62 0 7 0 C7 0.66 7 1.32 7 2 C5.68 2.33 4.36 2.66 3 3 C2.67 5.97 2.34 8.94 2 12 C1.34 12 0.68 12 0 12 C0 8.04 0 4.08 0 0 Z " fill="#242424" transform="translate(128,70)"/>
<path d="M0 0 C1.65 0.33 3.3 0.66 5 1 C5 2.32 5 3.64 5 5 C5.66 5.66 6.32 6.32 7 7 C4.125 7.125 4.125 7.125 1 7 C0.34 6.34 -0.32 5.68 -1 5 C-0.625 2.375 -0.625 2.375 0 0 Z " fill="#787878" transform="translate(95,75)"/>
<path d="M0 0 C1.32 0 2.64 0 4 0 C4 2.31 4 4.62 4 7 C2.35 7 0.7 7 -1 7 C-1.04254356 5.00045254 -1.04080783 2.99958364 -1 1 C-0.67 0.67 -0.34 0.34 0 0 Z " fill="#F9F9F9" transform="translate(63,72)"/>
<path d="M0 0 C0.721875 0.391875 1.44375 0.78375 2.1875 1.1875 C1.8575 2.1775 1.5275 3.1675 1.1875 4.1875 C-1.4525 4.5175 -4.0925 4.8475 -6.8125 5.1875 C-7.1425 4.1975 -7.4725 3.2075 -7.8125 2.1875 C-3.50480769 -1.0125 -3.50480769 -1.0125 0 0 Z " fill="#A361FE" transform="translate(51.8125,47.8125)"/>
<path d="M0 0 C2.625 0.375 2.625 0.375 5 1 C5 2.32 5 3.64 5 5 C3.02 5.33 1.04 5.66 -1 6 C-1.625 4.125 -1.625 4.125 -2 2 C-1.34 1.34 -0.68 0.68 0 0 Z " fill="#828282" transform="translate(73,75)"/>
<path d="M0 0 C2.5 0.25 2.5 0.25 4.5 2.25 C4.5 3.57 4.5 4.89 4.5 6.25 C3.84 6.25 3.18 6.25 2.5 6.25 C2.17 5.26 1.84 4.27 1.5 3.25 C-2.37797662 2.81613908 -2.37797662 2.81613908 -4.25 4.75 C-4.6625 5.245 -5.075 5.74 -5.5 6.25 C-4.75451591 2.52257953 -4.15390859 0.41539086 0 0 Z " fill="#141414" transform="translate(121.5,69.75)"/>
<path d="M0 0 C2.64 0 5.28 0 8 0 C8 0.99 8 1.98 8 3 C6.02 3.33 4.04 3.66 2 4 C1.34 2.68 0.68 1.36 0 0 Z " fill="#D7D7D7" transform="translate(118,76)"/>
<path d="M0 0 C2.31 0.66 4.62 1.32 7 2 C6.01 3.485 6.01 3.485 5 5 C5.66 5.66 6.32 6.32 7 7 C6.01 7 5.02 7 4 7 C0 2.65714286 0 2.65714286 0 0 Z " fill="#625FFE" transform="translate(31,70)"/>
<path d="M0 0 C1.32 0 2.64 0 4 0 C4 1.65 4 3.3 4 5 C2.35 4.67 0.7 4.34 -1 4 C-0.67 2.68 -0.34 1.36 0 0 Z " fill="#0F89FE" transform="translate(42,76)"/>
<path d="M0 0 C-0.99 1.32 -1.98 2.64 -3 4 C-4.65 3.67 -6.3 3.34 -8 3 C-7 1 -7 1 -4.5625 -0.1875 C-2 -1 -2 -1 0 0 Z " fill="#5C42FC" transform="translate(41,68)"/>
<path d="M0 0 C1.98 0 3.96 0 6 0 C6.33 1.32 6.66 2.64 7 4 C6.01 4.495 6.01 4.495 5 5 C5 4.01 5 3.02 5 2 C3.35 2 1.7 2 0 2 C0 1.34 0 0.68 0 0 Z " fill="#1D1D1D" transform="translate(95,70)"/>
<path d="M0 0 C0.598125 0.20625 1.19625 0.4125 1.8125 0.625 C1.02875 0.7075 0.245 0.79 -0.5625 0.875 C-3.33499104 1.35306339 -3.33499104 1.35306339 -4.5 3.6875 C-4.726875 4.326875 -4.95375 4.96625 -5.1875 5.625 C-5.1875 4.305 -5.1875 2.985 -5.1875 1.625 C-2.1875 -0.375 -2.1875 -0.375 0 0 Z " fill="#2575FD" transform="translate(45.1875,74.375)"/>
<path d="M0 0 C0 0.99 0 1.98 0 3 C-1.65 3.66 -3.3 4.32 -5 5 C-5 3.68 -5 2.36 -5 1 C-3 0 -3 0 0 0 Z " fill="#A98AFE" transform="translate(51,55)"/>
</svg>