<svg width="71" height="51" viewBox="0 0 71 51" fill="none" xmlns="http://www.w3.org/2000/svg">
<path d="M64.4241 0.800781H6.57802C2.94508 0.800781 0 3.74586 0 7.3788V44.2228C0 47.8557 2.94508 50.8008 6.57802 50.8008H64.4241C68.057 50.8008 71.0021 47.8557 71.0021 44.2228V7.3788C71.0021 3.74586 68.057 0.800781 64.4241 0.800781Z" fill="#36495D"/>
<path d="M41.4628 15.0781H29.5352V36.5139H41.4628V15.0781Z" fill="#F16522"/>
<path d="M30.2954 25.7995C30.2954 21.4516 32.3318 17.5792 35.5019 15.0827C33.1816 13.2577 30.258 12.168 27.0769 12.168C19.5478 12.168 13.4453 18.2727 13.4453 25.8017C13.4453 33.3308 19.5478 39.4355 27.0769 39.4355C30.258 39.4355 33.1816 38.3458 35.5019 36.5207C32.3318 34.0243 30.2954 30.1519 30.2954 25.8039" fill="#E41B24"/>
<path d="M57.5586 25.7973C57.5586 33.3264 51.4561 39.4311 43.927 39.4311C40.7459 39.4311 37.8223 38.3414 35.502 36.5163C38.6721 34.0199 40.7084 30.1474 40.7084 25.7995C40.7084 21.4516 38.6721 17.5792 35.502 15.0827C37.8201 13.2577 40.7459 12.168 43.927 12.168C51.4561 12.168 57.5586 18.2705 57.5586 25.7995M56.2575 34.2466V33.8085H56.4336V33.7205H55.9823V33.8085H56.1584V34.2466H56.2553H56.2575ZM57.1315 34.2466V33.7183H56.9928L56.8343 34.0815L56.6758 33.7183H56.5371V34.2466H56.634V33.8481L56.7837 34.1938H56.8849L57.0346 33.8481V34.2488H57.1315V34.2466Z" fill="#F89E1C"/>
</svg>
