<svg width="177" height="37" viewBox="0 0 177 37" fill="none" xmlns="http://www.w3.org/2000/svg">
<g clip-path="url(#clip0_37394_65521)">
<path d="M48.2583 0H5.68151C3.00753 0 0.839844 2.16769 0.839844 4.84166V31.9602C0.839844 34.6341 3.00753 36.8018 5.68151 36.8018H48.2583C50.9323 36.8018 53.1 34.6341 53.1 31.9602V4.84166C53.1 2.16769 50.9323 0 48.2583 0Z" fill="#0066B2"/>
<path d="M110.208 0H67.6307C64.9567 0 62.7891 2.16769 62.7891 4.84166V31.9602C62.7891 34.6341 64.9567 36.8018 67.6307 36.8018H110.208C112.882 36.8018 115.049 34.6341 115.049 31.9602V4.84166C115.049 2.16769 112.882 0 110.208 0Z" fill="#36495D"/>
<path d="M172.157 0H129.58C126.906 0 124.738 2.16769 124.738 4.84166V31.9602C124.738 34.6341 126.906 36.8018 129.58 36.8018H172.157C174.831 36.8018 176.998 34.6341 176.998 31.9602V4.84166C176.998 2.16769 174.831 0 172.157 0Z" fill="#006FCF"/>
<path d="M24.7515 24.1656H22.0293L23.7307 13.7109H26.4529L24.7515 24.1656Z" fill="white"/>
<path d="M19.7394 13.7109L17.1436 20.9021L16.8373 19.3531L15.9218 14.6524C15.9218 14.6524 15.8116 13.7109 14.6304 13.7109H10.3412L10.291 13.8876C10.291 13.8876 11.6035 14.1598 13.138 15.0834L15.5021 24.1656H18.3378L22.669 13.7109H19.7394Z" fill="white"/>
<path d="M41.1496 24.1656H43.6482L41.4688 13.7109H39.2797C38.2685 13.7109 38.0239 14.4903 38.0239 14.4903L33.9648 24.1656H36.8021L37.3692 22.6132H40.8287L41.1479 24.1656H41.1496ZM38.1551 20.4679L39.5859 16.5547L40.3912 20.4679H38.1567H38.1551Z" fill="white"/>
<path d="M34.176 16.2246L34.5649 13.9788C34.5649 13.9788 33.3658 13.5234 32.1165 13.5234C30.7651 13.5234 27.5584 14.1149 27.5584 16.9845C27.5584 19.6857 31.3225 19.7197 31.3225 21.1376C31.3225 22.5554 27.9457 22.3026 26.8309 21.4082L26.4258 23.7544C26.4258 23.7544 27.6411 24.3459 29.498 24.3459C31.3549 24.3459 34.1582 23.3834 34.1582 20.7665C34.1582 18.1496 30.36 17.7947 30.36 16.6135C30.36 15.4322 33.011 15.5829 34.176 16.2246Z" fill="white"/>
<path d="M16.8373 19.3531L15.9218 14.6524C15.9218 14.6524 15.8116 13.7109 14.6304 13.7109H10.3412L10.291 13.8876C10.291 13.8876 12.3537 14.3153 14.3306 15.9163C16.2216 17.4459 16.8373 19.3531 16.8373 19.3531Z" fill="#F9A533"/>
<path d="M93.3085 10.5117H84.5293V26.2893H93.3085V10.5117Z" fill="#F16522"/>
<path d="M85.0878 18.4005C85.0878 15.2003 86.5867 12.3501 88.92 10.5126C87.2122 9.16927 85.0603 8.36719 82.7189 8.36719C77.1772 8.36719 72.6855 12.8605 72.6855 18.4021C72.6855 23.9438 77.1772 28.4371 82.7189 28.4371C85.0603 28.4371 87.2122 27.635 88.92 26.2917C86.5867 24.4542 85.0878 21.604 85.0878 18.4038" fill="#E41B24"/>
<path d="M105.154 18.3989C105.154 23.9406 100.663 28.4338 95.1211 28.4338C92.7796 28.4338 90.6278 27.6318 88.9199 26.2885C91.2533 24.451 92.7521 21.6007 92.7521 18.4005C92.7521 15.2003 91.2533 12.3501 88.9199 10.5126C90.6262 9.16927 92.7796 8.36719 95.1211 8.36719C100.663 8.36719 105.154 12.8589 105.154 18.4005M104.197 24.6179V24.2954H104.326V24.2306H103.994V24.2954H104.124V24.6179H104.195H104.197ZM104.84 24.6179V24.229H104.738L104.621 24.4963L104.505 24.229H104.403V24.6179H104.474V24.3246L104.584 24.579H104.659L104.769 24.3246V24.6195H104.84V24.6179Z" fill="#F89E1C"/>
<path d="M170.568 17.8453H174.487V8.72266H170.303V10.181L169.372 8.72266H165.724V10.5683L164.908 8.72266H158.878C158.588 8.72266 158.306 8.74372 158.032 8.78747C157.799 8.82474 157.572 8.87659 157.353 8.94465C157.182 8.99812 157.015 9.06131 156.854 9.13585C156.665 9.22335 156.485 9.32219 156.313 9.43724V8.72428H136.634L136.097 10.3155L135.551 8.72428H130.972V10.5893L130.146 8.72428H126.411L124.74 12.6261V17.847H127.386L127.879 16.5377H128.811L129.311 17.847H149.666V16.5199L150.686 17.847H156.31V17.1842C156.456 17.2782 156.606 17.3608 156.759 17.4321C156.913 17.5034 157.07 17.5634 157.229 17.6152C157.425 17.6801 157.626 17.727 157.823 17.7643C158.147 17.8226 158.471 17.8486 158.778 17.8486H162.143L162.636 16.5393H163.568L164.068 17.8486H169.71V16.4956L170.563 17.8486L170.568 17.8453ZM176.965 29.5444V20.984H144.569L143.742 22.1523L142.926 20.984H133.609V30.1067H142.89L143.699 28.9206L144.533 30.1067H150.342V28.1379H150.28C151.003 28.1379 151.659 28.0067 152.241 27.7912V30.1067H156.292V28.7796L157.311 30.1067H174.889C175.395 30.1067 175.869 30.0208 176.294 29.8669C176.534 29.7794 176.757 29.6724 176.963 29.5444H176.965Z" fill="#F7F7F7"/>
<path d="M174.926 27.3914H171.771V28.6229H174.882C176.211 28.6229 177.002 27.8143 177.002 26.6623C177.002 25.5102 176.29 24.922 175.095 24.922H173.67C173.319 24.922 173.072 24.6935 173.072 24.3322C173.072 23.9708 173.317 23.7164 173.67 23.7164H176.342L176.888 22.4688H173.716C172.389 22.4688 171.598 23.2773 171.598 24.384C171.598 25.4907 172.345 26.1681 173.515 26.1681H174.929C175.281 26.1681 175.535 26.3965 175.535 26.766C175.535 27.1354 175.281 27.3898 174.929 27.3898L174.926 27.3914ZM169.072 27.3914H165.917V28.6229H169.028C170.355 28.6229 171.147 27.8143 171.147 26.6623C171.147 25.5102 170.436 24.922 169.24 24.922H167.816C167.464 24.922 167.218 24.6935 167.218 24.3322C167.218 23.9708 167.464 23.7164 167.816 23.7164H170.488L171.034 22.4688H167.861C166.534 22.4688 165.743 23.2773 165.743 24.384C165.743 25.4907 166.49 26.1681 167.66 26.1681H169.075C169.427 26.1681 169.681 26.3965 169.681 26.766C169.681 27.1354 169.427 27.3898 169.075 27.3898L169.072 27.3914ZM165.021 23.7181V22.4704H160.098V28.6229H165.021V27.3833H161.576V26.1437H164.941V24.9123H161.576V23.7164H165.021V23.7181ZM156.776 23.7262C157.303 23.7262 157.585 24.0681 157.585 24.491C157.585 24.9139 157.303 25.2461 156.776 25.2461H155.044V23.7262H156.776ZM155.044 26.4062H155.739L157.577 28.6213H159.414L157.366 26.3528C158.413 26.1583 159.035 25.4032 159.035 24.4197C159.035 23.2676 158.218 22.4688 156.908 22.4688H153.568V28.6213H155.044V26.4062ZM151.282 24.5331C151.282 24.9463 151.018 25.2898 150.499 25.2898H148.733V23.778H150.499C151.018 23.778 151.282 24.1118 151.282 24.5331ZM147.257 22.4688V28.6213H148.733V26.591H150.587C151.931 26.591 152.766 25.7127 152.766 24.5266C152.766 23.3405 151.949 22.4704 150.638 22.4704H147.255L147.257 22.4688ZM145.085 28.6213H146.931L144.462 25.5183L146.913 22.4688H145.121L143.609 24.4197L142.107 22.4688H140.262L142.723 25.5442L140.271 28.6213H142.065L143.577 26.6428L145.089 28.6213H145.085ZM139.962 23.7164V22.4688H135.039V28.6213H139.962V27.3817H136.517V26.1421H139.882V24.9106H136.517V23.7148H139.962V23.7164Z" fill="#006FCF"/>
<path d="M168.519 12.6781L168.501 12.1677L168.809 12.6781L171.163 16.3612H172.887V10.2087H171.445V13.7686L171.463 14.2255L171.191 13.7686L168.887 10.2087H167.077V16.3612H168.517V12.6781H168.519ZM162.63 12.5031L163.079 11.351L163.526 12.5031L164.073 13.8658H162.094L162.63 12.5031ZM165.074 16.3612H166.735L164.108 10.2087H162.165L159.529 16.3612H161.102L161.621 15.0422H164.547L165.074 16.3612ZM158.631 16.3612H158.711L159.317 15.0519H158.868C157.857 15.0519 157.259 14.42 157.259 13.3295V13.242C157.259 12.2665 157.795 11.5374 158.85 11.5374H160.449V10.2103H158.727C156.828 10.2103 155.791 11.4855 155.791 13.2339V13.3392C155.791 15.167 156.854 16.3547 158.63 16.3628L158.631 16.3612ZM153.385 16.3612H154.861V10.2087H153.385V16.3612ZM150.282 11.4661C150.808 11.4661 151.09 11.808 151.09 12.2309C151.09 12.6538 150.808 12.986 150.282 12.986H148.549V11.4661H150.282ZM148.549 14.1461H149.245L151.082 16.3612H152.92L150.871 14.0927C151.918 13.8999 152.542 13.1431 152.542 12.1596C152.542 11.0075 151.724 10.2087 150.414 10.2087H147.075V16.3612H148.551V14.1461H148.549ZM145.992 11.4563V10.2087H141.07V16.3612H145.992V15.1038H142.548V13.882H145.913V12.6522H142.548V11.4563H145.992ZM133.749 12.1596L133.713 10.4987L135.418 16.3612H136.755L138.459 10.5343L138.424 12.1515V16.3612H139.856V10.2087H137.255L136.087 14.5674L134.909 10.2087H132.317V16.3612H133.749V12.1596ZM127.869 12.5015L128.317 11.3494L128.766 12.5015L129.311 13.8642H127.334L127.87 12.5015H127.869ZM130.312 16.3596H131.973L129.345 10.207H127.402L124.766 16.3596H126.339L126.858 15.0406H129.784L130.311 16.3596H130.312Z" fill="#006FCF"/>
</g>
<defs>
<clipPath id="clip0_37394_65521">
<rect width="176.16" height="36.8018" fill="white" transform="translate(0.839844)"/>
</clipPath>
</defs>
</svg>
