<svg width="11" height="12" viewBox="0 0 11 12" fill="none" xmlns="http://www.w3.org/2000/svg">
<path d="M10.3818 10.2063L7.19353 7.01805C7.68828 6.37843 7.95592 5.5964 7.95592 4.77386C7.95592 3.78926 7.57165 2.86604 6.87679 2.16995C6.18192 1.47386 5.25625 1.09082 4.27288 1.09082C3.28951 1.09082 2.36384 1.47508 1.66897 2.16995C0.972879 2.86482 0.589844 3.78926 0.589844 4.77386C0.589844 5.75723 0.974107 6.6829 1.66897 7.37776C2.36384 8.07386 3.28828 8.45689 4.27288 8.45689C5.09542 8.45689 5.87623 8.18926 6.51585 7.69573L9.70413 10.8828C9.71348 10.8921 9.72458 10.8996 9.7368 10.9046C9.74901 10.9097 9.76211 10.9123 9.77534 10.9123C9.78856 10.9123 9.80166 10.9097 9.81387 10.9046C9.82609 10.8996 9.83719 10.8921 9.84654 10.8828L10.3818 10.3487C10.3912 10.3394 10.3986 10.3283 10.4036 10.3161C10.4087 10.3039 10.4113 10.2908 10.4113 10.2775C10.4113 10.2643 10.4087 10.2512 10.4036 10.239C10.3986 10.2268 10.3912 10.2157 10.3818 10.2063ZM6.21752 6.7185C5.69699 7.23781 5.00703 7.52386 4.27288 7.52386C3.53873 7.52386 2.84877 7.23781 2.32824 6.7185C1.80893 6.19796 1.52288 5.50801 1.52288 4.77386C1.52288 4.0397 1.80893 3.34852 2.32824 2.82921C2.84877 2.30991 3.53873 2.02386 4.27288 2.02386C5.00703 2.02386 5.69822 2.30868 6.21752 2.82921C6.73683 3.34975 7.02288 4.0397 7.02288 4.77386C7.02288 5.50801 6.73683 6.19919 6.21752 6.7185Z" fill="#6B7280"/>
</svg>
