         <svg width="18" height="18" viewBox="0 0 18 18" fill="none" xmlns="http://www.w3.org/2000/svg" class="w-6 h-6">
            <path d="M5.661 16.4259C12.4533 16.4259 16.1685 10.7982 16.1685 5.91839C16.1685 5.75819 16.1685 5.59889 16.1577 5.44139C16.8806 4.91807 17.5044 4.27015 18 3.52799C17.326 3.8268 16.6109 4.02278 15.8787 4.10939C16.6497 3.64775 17.2267 2.92171 17.5023 2.06639C16.7775 2.49649 15.9846 2.79965 15.1578 2.96279C14.6011 2.37038 13.8645 1.97805 13.0623 1.84653C12.26 1.71501 11.4368 1.85165 10.72 2.2353C10.0033 2.61894 9.43297 3.22818 9.09746 3.96869C8.76195 4.7092 8.67993 5.53966 8.8641 6.33149C7.39583 6.25791 5.95944 5.87639 4.64818 5.21169C3.33692 4.54699 2.18009 3.61397 1.2528 2.47319C0.780586 3.28608 0.63593 4.24837 0.848282 5.16416C1.06063 6.07995 1.61403 6.88038 2.3958 7.4025C1.80834 7.38545 1.23358 7.22741 0.72 6.94169V6.98849C0.72035 7.84106 1.01556 8.66727 1.55556 9.32702C2.09556 9.98676 2.84712 10.4394 3.6828 10.6083C3.13903 10.7565 2.5685 10.7781 2.0151 10.6713C2.25105 11.4052 2.71051 12.047 3.32921 12.5069C3.94792 12.9669 4.69492 13.2219 5.4657 13.2363C4.69991 13.838 3.82301 14.2828 2.88515 14.5454C1.9473 14.8079 0.966891 14.883 0 14.7663C1.68894 15.8502 3.65417 16.4251 5.661 16.4223" fill="#4B5563"></path>
         </svg>