<svg width="20" height="20" viewBox="0 0 20 20" fill="none" xmlns="http://www.w3.org/2000/svg">
<rect width="20" height="20" rx="10" fill="#7523FF"/>
<path d="M15.4535 6.68176C15.1098 6.83701 14.7327 6.93127 14.3668 6.99226C14.5442 6.96454 14.7993 6.64294 14.9046 6.51541C15.0599 6.32135 15.1929 6.09401 15.265 5.85559C15.2761 5.83895 15.2817 5.81123 15.265 5.80014C15.2428 5.78905 15.2262 5.79459 15.2096 5.80568C14.7993 6.02747 14.3723 6.18827 13.9176 6.29917C13.8788 6.31026 13.8511 6.29917 13.8289 6.27699C13.7901 6.23263 13.7568 6.19382 13.718 6.16055C13.5295 5.99975 13.3244 5.87222 13.0915 5.77796C12.7865 5.65597 12.4594 5.60053 12.1322 5.62271C11.8162 5.64488 11.5057 5.7336 11.2229 5.87777C10.9401 6.02747 10.6906 6.23263 10.491 6.4766C10.2858 6.73166 10.1306 7.03662 10.0529 7.35268C9.97531 7.66318 9.98085 7.96815 10.0308 8.27865C10.0363 8.32856 10.0308 8.33965 9.9864 8.32856C8.21207 8.06241 6.7427 7.4303 5.55058 6.07183C5.50067 6.01084 5.47295 6.01084 5.42859 6.07738C4.90738 6.85919 5.16244 8.11785 5.81118 8.73887C5.8999 8.82204 5.98861 8.90521 6.08288 8.97729C6.04961 8.98284 5.61157 8.93848 5.22898 8.73887C5.17908 8.7056 5.15135 8.72223 5.14581 8.78323C5.14026 8.8664 5.14581 8.94403 5.16244 9.03829C5.26225 9.83119 5.81118 10.5686 6.56527 10.8514C6.65399 10.8902 6.75379 10.9235 6.84805 10.9401C6.67617 10.979 6.49873 11.0067 6.01079 10.9679C5.9498 10.9568 5.92762 10.9845 5.9498 11.0455C6.3213 12.0546 7.11975 12.3541 7.71304 12.526C7.79067 12.5426 7.87384 12.5426 7.95146 12.5592C7.94592 12.5648 7.94038 12.5648 7.93483 12.5759C7.73522 12.8808 7.04767 13.1026 6.73161 13.2135C6.14941 13.4187 5.51731 13.5074 4.90184 13.4464C4.80203 13.4297 4.7854 13.4353 4.75767 13.4464C4.72995 13.463 4.75213 13.4852 4.7854 13.5129C4.91293 13.5961 5.03491 13.6682 5.16799 13.7403C5.55612 13.9454 5.96644 14.1118 6.39338 14.2282C8.59466 14.8381 11.0676 14.389 12.72 12.7477C14.0174 11.4614 14.4721 9.68148 14.4721 7.90161C14.4721 7.82953 14.5553 7.79626 14.6052 7.75744C14.9434 7.50238 15.2151 7.20297 15.4646 6.86473C15.5201 6.78711 15.5201 6.72057 15.5201 6.69285C15.5201 6.6873 15.5201 6.68176 15.5201 6.68176C15.4979 6.65403 15.4979 6.66512 15.4535 6.68176Z" fill="white"/>
</svg>
