<svg width="20" height="20" viewBox="0 0 20 20" fill="none" xmlns="http://www.w3.org/2000/svg">
<g id="View grid">
<g id="Icon">
<path d="M3.33398 5.00065C3.33398 4.08018 4.08018 3.33398 5.00065 3.33398H6.66732C7.58779 3.33398 8.33398 4.08018 8.33398 5.00065V6.66732C8.33398 7.58779 7.58779 8.33398 6.66732 8.33398H5.00065C4.08018 8.33398 3.33398 7.58779 3.33398 6.66732V5.00065Z" fill="white"/>
<path d="M11.6673 5.00065C11.6673 4.08018 12.4135 3.33398 13.334 3.33398H15.0007C15.9211 3.33398 16.6673 4.08018 16.6673 5.00065V6.66732C16.6673 7.58779 15.9211 8.33398 15.0007 8.33398H13.334C12.4135 8.33398 11.6673 7.58779 11.6673 6.66732V5.00065Z" fill="white"/>
<path d="M3.33398 13.334C3.33398 12.4135 4.08018 11.6673 5.00065 11.6673H6.66732C7.58779 11.6673 8.33398 12.4135 8.33398 13.334V15.0007C8.33398 15.9211 7.58779 16.6673 6.66732 16.6673H5.00065C4.08018 16.6673 3.33398 15.9211 3.33398 15.0007V13.334Z" fill="white"/>
<path d="M11.6673 13.334C11.6673 12.4135 12.4135 11.6673 13.334 11.6673H15.0007C15.9211 11.6673 16.6673 12.4135 16.6673 13.334V15.0007C16.6673 15.9211 15.9211 16.6673 15.0007 16.6673H13.334C12.4135 16.6673 11.6673 15.9211 11.6673 15.0007V13.334Z" fill="white"/>
<path d="M3.33398 5.00065C3.33398 4.08018 4.08018 3.33398 5.00065 3.33398H6.66732C7.58779 3.33398 8.33398 4.08018 8.33398 5.00065V6.66732C8.33398 7.58779 7.58779 8.33398 6.66732 8.33398H5.00065C4.08018 8.33398 3.33398 7.58779 3.33398 6.66732V5.00065Z" stroke="white" stroke-width="2" stroke-linecap="round" stroke-linejoin="round"/>
<path d="M11.6673 5.00065C11.6673 4.08018 12.4135 3.33398 13.334 3.33398H15.0007C15.9211 3.33398 16.6673 4.08018 16.6673 5.00065V6.66732C16.6673 7.58779 15.9211 8.33398 15.0007 8.33398H13.334C12.4135 8.33398 11.6673 7.58779 11.6673 6.66732V5.00065Z" stroke="white" stroke-width="2" stroke-linecap="round" stroke-linejoin="round"/>
<path d="M3.33398 13.334C3.33398 12.4135 4.08018 11.6673 5.00065 11.6673H6.66732C7.58779 11.6673 8.33398 12.4135 8.33398 13.334V15.0007C8.33398 15.9211 7.58779 16.6673 6.66732 16.6673H5.00065C4.08018 16.6673 3.33398 15.9211 3.33398 15.0007V13.334Z" stroke="white" stroke-width="2" stroke-linecap="round" stroke-linejoin="round"/>
<path d="M11.6673 13.334C11.6673 12.4135 12.4135 11.6673 13.334 11.6673H15.0007C15.9211 11.6673 16.6673 12.4135 16.6673 13.334V15.0007C16.6673 15.9211 15.9211 16.6673 15.0007 16.6673H13.334C12.4135 16.6673 11.6673 15.9211 11.6673 15.0007V13.334Z" stroke="white" stroke-width="2" stroke-linecap="round" stroke-linejoin="round"/>
</g>
</g>
</svg>
