<svg width="71" height="51" viewBox="0 0 71 51" fill="none" xmlns="http://www.w3.org/2000/svg">
<path d="M64.4241 0.800781H6.57802C2.94508 0.800781 0 3.74586 0 7.3788V44.2228C0 47.8557 2.94508 50.8008 6.57802 50.8008H64.4241C68.057 50.8008 71.0021 47.8557 71.0021 44.2228V7.3788C71.0021 3.74586 68.057 0.800781 64.4241 0.800781Z" fill="#0066B2"/>
<path d="M32.4856 33.6336H28.7871L31.0987 19.4297H34.7971L32.4856 33.6336Z" fill="white"/>
<path d="M25.6767 19.4297L22.1499 29.1999L21.7338 27.0952L20.49 20.7087C20.49 20.7087 20.3403 19.4297 18.7354 19.4297H12.9081L12.8398 19.6696C12.8398 19.6696 14.623 20.0395 16.7078 21.2943L19.9198 33.6336H23.7724L29.6569 19.4297H25.6767Z" fill="white"/>
<path d="M54.7653 33.6336H58.16L55.199 19.4297H52.2248C50.851 19.4297 50.5186 20.4886 50.5186 20.4886L45.0039 33.6336H48.8587L49.6292 31.5246H54.3294L54.7631 33.6336H54.7653ZM50.6969 28.6099L52.6408 23.2933L53.735 28.6099H50.6991H50.6969Z" fill="white"/>
<path d="M45.2914 22.8456L45.8197 19.7944C45.8197 19.7944 44.1907 19.1758 42.4933 19.1758C40.6573 19.1758 36.3006 19.9793 36.3006 23.8781C36.3006 27.548 41.4146 27.5942 41.4146 29.5205C41.4146 31.4468 36.8267 31.1034 35.3121 29.8882L34.7617 33.0759C34.7617 33.0759 36.4128 33.8795 38.9357 33.8795C41.4586 33.8795 45.2672 32.5718 45.2672 29.0164C45.2672 25.461 40.1069 24.9789 40.1069 23.374C40.1069 21.7691 43.7085 21.9739 45.2914 22.8456Z" fill="white"/>
<path d="M21.7338 27.0952L20.49 20.7087C20.49 20.7087 20.3403 19.4297 18.7354 19.4297H12.9081L12.8398 19.6696C12.8398 19.6696 15.6423 20.2508 18.3281 22.4259C20.8973 24.5041 21.7338 27.0952 21.7338 27.0952Z" fill="#F9A533"/>
</svg>
