<svg width="20" height="20" viewBox="0 0 20 20" fill="none" xmlns="http://www.w3.org/2000/svg">
<g id="View grid">
<g id="Icon">
<path d="M3.33301 4.99967C3.33301 4.0792 4.0792 3.33301 4.99967 3.33301H6.66634C7.58682 3.33301 8.33301 4.0792 8.33301 4.99967V6.66634C8.33301 7.58682 7.58682 8.33301 6.66634 8.33301H4.99967C4.0792 8.33301 3.33301 7.58682 3.33301 6.66634V4.99967Z" fill="white"/>
<path d="M11.6663 4.99967C11.6663 4.0792 12.4125 3.33301 13.333 3.33301H14.9997C15.9201 3.33301 16.6663 4.0792 16.6663 4.99967V6.66634C16.6663 7.58682 15.9201 8.33301 14.9997 8.33301H13.333C12.4125 8.33301 11.6663 7.58682 11.6663 6.66634V4.99967Z" fill="white"/>
<path d="M3.33301 13.333C3.33301 12.4125 4.0792 11.6663 4.99967 11.6663H6.66634C7.58682 11.6663 8.33301 12.4125 8.33301 13.333V14.9997C8.33301 15.9201 7.58682 16.6663 6.66634 16.6663H4.99967C4.0792 16.6663 3.33301 15.9201 3.33301 14.9997V13.333Z" fill="white"/>
<path d="M11.6663 13.333C11.6663 12.4125 12.4125 11.6663 13.333 11.6663H14.9997C15.9201 11.6663 16.6663 12.4125 16.6663 13.333V14.9997C16.6663 15.9201 15.9201 16.6663 14.9997 16.6663H13.333C12.4125 16.6663 11.6663 15.9201 11.6663 14.9997V13.333Z" fill="white"/>
<path d="M3.33301 4.99967C3.33301 4.0792 4.0792 3.33301 4.99967 3.33301H6.66634C7.58682 3.33301 8.33301 4.0792 8.33301 4.99967V6.66634C8.33301 7.58682 7.58682 8.33301 6.66634 8.33301H4.99967C4.0792 8.33301 3.33301 7.58682 3.33301 6.66634V4.99967Z" stroke="white" stroke-width="2" stroke-linecap="round" stroke-linejoin="round"/>
<path d="M11.6663 4.99967C11.6663 4.0792 12.4125 3.33301 13.333 3.33301H14.9997C15.9201 3.33301 16.6663 4.0792 16.6663 4.99967V6.66634C16.6663 7.58682 15.9201 8.33301 14.9997 8.33301H13.333C12.4125 8.33301 11.6663 7.58682 11.6663 6.66634V4.99967Z" stroke="white" stroke-width="2" stroke-linecap="round" stroke-linejoin="round"/>
<path d="M3.33301 13.333C3.33301 12.4125 4.0792 11.6663 4.99967 11.6663H6.66634C7.58682 11.6663 8.33301 12.4125 8.33301 13.333V14.9997C8.33301 15.9201 7.58682 16.6663 6.66634 16.6663H4.99967C4.0792 16.6663 3.33301 15.9201 3.33301 14.9997V13.333Z" stroke="white" stroke-width="2" stroke-linecap="round" stroke-linejoin="round"/>
<path d="M11.6663 13.333C11.6663 12.4125 12.4125 11.6663 13.333 11.6663H14.9997C15.9201 11.6663 16.6663 12.4125 16.6663 13.333V14.9997C16.6663 15.9201 15.9201 16.6663 14.9997 16.6663H13.333C12.4125 16.6663 11.6663 15.9201 11.6663 14.9997V13.333Z" stroke="white" stroke-width="2" stroke-linecap="round" stroke-linejoin="round"/>
</g>
</g>
</svg>
